<svg viewBox="0 0 5834 8750" xmlns="http://www.w3.org/2000/svg" xml:space="preserve" fill-rule="evenodd" clip-rule="evenodd" stroke-linecap="round" stroke-linejoin="round" stroke-miterlimit="1.5">
<title>The main house floor plan. From the northwest corner going east is the pantry, dining room, and drawing room. From the southwest corner going east is the billiard room, hall/staircase, and stairs/study. There is a terrace outside on the north and east sides, the front door is on the south opening into the hall, and a small summer house and lodge are further south of the big house.</title>
<circle cx="4118.98" cy="5855.74" r="260.051" fill="none" stroke="#000" stroke-width="33.33"/><path d="M388.955 819.744v3642.75M1556 4468.44h2587.97m-48.28-1045.58V1303.29h-358.377m358.377 2435.7v717.174M3436.85 1299.18h-388.671m-1021.619 0h-304.93m-1017.176 0H390.401m315.091 3169.26H392.031m883.679 0H981.042M2772.7 1303.41h-482.972m-834.918 0H988.642m1497.498.52v1381.74M2857.79 4459V3017.45h339.242M1280.91 1303.93v1377.7m1553.68 3.92h1257.88M1208.04 2685.55h408.438m3.582-2.17 87.74-171.545M394.2 2685.55h580.612m3.584-2.17 87.74-171.545m745.044 173.715h302.481m3.059-1.23 81.344-167.082M1690.88 4456.12l-.012-95.277m-1.108-.523-115.703-174.654M2608.39 2684.32l81.345-167.082M2329.15 2685.55h277.18M2859.02 2795.26l167.082 101.15m-168.312-199.09v95.388M3396.86 3023l-65.072 167.099m759.782-172.649-693.065.177M1052.3 3023l61.011 167.099M400.953 3017.45l649.809.177M1690.88 3021.59v1093.07" fill="none" stroke="#000" stroke-width="33.33"/><path d="M1706.14 3120.78h483.535s-475.41 2.319-483.535 0Zm0 626.16h483.535s-475.41 2.32-483.535 0Zm0-104.36h483.535s-475.41 2.32-483.535 0Zm0-104.36h483.535s-475.41 2.319-483.535 0Zm0-104.36h483.535s-475.41 2.32-483.535 0Zm0-104.36h483.535s-475.41 2.319-483.535 0Zm0-104.36h483.535s-475.41 2.32-483.535 0Z" fill="none" stroke="#000" stroke-width="25"/><path d="M1379.87 3017.45h803.6m-483.02 833.85h488.013m.537-832.14v827.958" fill="none" stroke="#000" stroke-width="33.33"/><path d="M741.965 1345.75h218.997m-218.997-87.5h218.997M733.157 4513.02h218.997m-218.997-87.5h218.997M1312.32 4513.02h218.996m-218.996-87.5h218.996M1479.46 1345.75h218.997m-218.997-87.5h218.997M2046.13 1345.75h218.996m-218.996-87.5h218.996M2800.3 1345.75h218.997m-218.997-87.5h218.997M3471.13 1345.75h218.996m-218.996-87.5h218.996M4053.06 3456.85v259.162m87.5-259.162v259.162" fill="none" stroke="#000" stroke-width="20.83"/><path d="M3643.02 3015.13v-166.9h433.053" fill="none" stroke="#000" stroke-width="33.33"/><path d="M3701.23 2857.29v154.581m55.95-154.581v154.581m55.96-154.581v154.581m55.95-154.581v154.581m55.95-154.581v154.581m55.95-154.581v154.581m55.95-154.581v154.581" fill="none" stroke="#000" stroke-width="25"/><path d="M2295.55 4465.28v55.584m266.67-55.584v55.584" fill="none" stroke="#000" stroke-width="33.33" stroke-linecap="butt"/><path d="M392.21 7203.29h1889.02m291.33 0h1972.01" fill="none" stroke="#000" stroke-width="33.33"/><path d="M2565.32 6152.74v-976.204c0-56.121 129.657-117.098 195.402-217.081 73.818-112.262 65.396-222.578 65.396-222.578M2289.43 7207.42V5193.58c0-95.71-79.966-90.371-179.054-215.509-89.242-112.703-36.038-278.745-36.038-278.745M2569.32 6165.21s203.702-125.699 355.958-223.025c88.775-56.747 265.731-195.2 310.332-232.423 100.502-83.878 215.705-226.708 215.705-226.708m164.635-191.574s188.718-174.696 263.002-289.101c46.451-71.539 105.644-126.441 174.567-253.517 54.727-100.904 127.288-281.263 127.288-281.263M2570.43 6618.27s340.718-243.588 635.34-478.896c135.603-108.303 264.734-211.676 355.92-289.043 117.144-99.392 432.698-426.962 538.766-566.272 77.769-102.141 158.71-211.22 219.244-310.247 159.014-260.127 242.051-472.883 242.051-472.883M385.272 854.475h3897.01c157.18 0 284.599 127.42 284.599 284.6v3332.15" fill="none" stroke="#000" stroke-width="16.67" stroke-dasharray="66.67,25,0,0"/><path fill="none" stroke="#000" stroke-width="33.33" d="M2562.67 6685.23h449.226v518.628H2562.67z"/><path d="M1917.13 989.919c0 3.42 1.221 4.152 2.686 4.152 6.107 0 3.42-9.037 10.015-17.83 2.686-3.419 3.175-6.106 39.324-6.106 17.83 0 18.562.733 18.562 6.839 0 0 .245 17.83.245 43.72 0 10.259-.489 75.229-2.443 92.326-.733 6.595-4.885 8.793-9.281 9.77-6.106 1.466-12.701.489-12.701 5.618 0 2.931 3.908 3.908 9.037 3.908 7.816 0 18.563-1.71 24.913-1.71 8.06 0 20.761 1.954 27.112 1.954 4.152 0 5.862-.244 5.862-4.152 0-6.351-11.236-1.71-20.517-10.747-2.931-2.931-3.42-7.328-3.42-13.922 0-4.397.245-9.526.245-15.876 0-22.227.732-32.485.732-89.395V986.5c0-14.655.733-15.632 8.549-15.632h31.752c20.517 0 21.494 4.64 24.669 16.12.733 2.687 2.199 2.931 2.687 2.931 3.175 0 3.908-.733 3.908-9.281 0-1.954-1.465-16.853-1.465-19.784 0-.733-.489-4.153-4.641-4.153-.489 0-1.221.245-1.71.245-12.945.732-39.079 1.221-75.228 1.221-53.979 0-51.781-1.954-68.878-1.954-7.328 0-6.839 3.175-7.572 8.549-.977 6.106-2.442 18.074-2.442 25.157Zm154.85 94.281c0 36.393 25.402 52.025 51.536 52.025 28.577 0 43.232-21.006 43.232-23.692 0-.977-1.221-2.199-2.442-2.199-4.153 0-14.655 10.992-31.997 10.992-20.272 0-41.278-16.854-41.278-49.339 0-2.442 0-2.686 2.687-2.686h62.772c6.839 0 10.014-.977 10.014-4.397 0-3.663-8.305-38.835-44.942-38.835-29.798 0-49.582 26.379-49.582 58.131Zm20.517-24.181c0-8.548 7.327-27.844 24.913-27.844 19.296 0 26.379 20.517 26.379 26.867 0 2.199-.489 2.931-5.129 2.931-4.153 0-31.753 1.466-42.988 1.466-2.687 0-3.175-1.221-3.175-3.42Zm89.153-21.249c0 3.419 2.443 3.908 4.641 3.908.977 0 1.954.244 2.687.244 10.991 0 12.212 4.641 12.212 9.037 0 4.641.489 0 .489 46.651 0 19.296-.245 24.425-9.038 26.624-2.686.732-3.175 2.198-3.175 4.152 0 1.709 0 2.931 5.374 2.931 4.152 0 12.212-1.222 25.401-1.222 5.618 0 12.946 1.222 20.762 1.222 2.686 0 2.931-2.199 2.931-3.908 0-3.664-6.351-3.175-12.457-4.152-5.618-.977-11.48-5.862-11.48-13.19 0-4.152-.488.244-.488-25.646v-25.402c0-5.129 8.548-15.143 18.074-15.143 11.724 0 12.945 5.862 18.563 5.862.733 0 8.304-3.664 8.304-13.678 0-1.221-.732-4.152-5.129-7.083-4.885-3.175-6.35-4.641-11.48-4.641-15.876 0-23.692 19.784-25.646 19.784-1.465 0-1.954-.244-1.954-10.502 0-2.443.245-4.641.245-6.595 0-2.443-.977-4.885-3.176-4.885-.244 0-2.198.488-3.419.977-20.028 9.526-32.241 8.793-32.241 14.655Zm91.59 0c0 3.419 2.443 3.908 4.641 3.908.977 0 1.954.244 2.687.244 10.991 0 12.212 4.641 12.212 9.037 0 4.641.489 0 .489 46.651 0 19.296-.245 24.425-9.038 26.624-2.686.732-3.175 2.198-3.175 4.152 0 1.709 0 2.931 5.374 2.931 4.152 0 12.212-1.222 25.401-1.222 5.618 0 12.946 1.222 20.762 1.222 2.686 0 2.931-2.199 2.931-3.908 0-3.664-6.351-3.175-12.457-4.152-5.618-.977-11.48-5.862-11.48-13.19 0-4.152-.488.244-.488-25.646v-25.402c0-5.129 8.548-15.143 18.074-15.143 11.724 0 12.945 5.862 18.563 5.862.733 0 8.304-3.664 8.304-13.678 0-1.221-.732-4.152-5.129-7.083-4.885-3.175-6.35-4.641-11.479-4.641-15.877 0-23.693 19.784-25.647 19.784-1.465 0-1.954-.244-1.954-10.502 0-2.443.245-4.641.245-6.595 0-2.443-.977-4.885-3.176-4.885-.244 0-2.198.488-3.419.977-20.028 9.526-32.241 8.793-32.241 14.655Zm97.95 72.05c0 6.595 1.709 12.701 6.106 17.097 5.618 5.862 12.212 7.328 22.715 7.328 17.586 0 31.264-15.144 32.241-15.144 1.221 0 5.373 13.434 19.54 13.434 10.258 0 15.387-1.466 15.387-5.129 0-8.793-18.563 5.862-18.563-26.623 0-18.319 1.222-13.678 1.222-45.43 0-9.282 0-30.776-36.638-30.776-21.005 0-41.033 14.411-41.033 26.868 0 8.304 12.212 9.525 15.143 9.525 2.687 0 4.397-.732 4.397-4.885 0-2.198-.977-5.129-.977-8.793 0-6.106 2.198-14.654 17.585-14.654 6.839 0 23.692 5.129 23.692 26.378 0 3.908-.488 7.816-.488 12.701 0 3.175-1.465 3.42-4.152 3.908-30.531 5.374-56.177 7.816-56.177 34.195Zm19.051-3.664c0-20.272 21.494-23.203 37.126-25.89.733 0 1.71-.489 2.442-.489.977 0 1.71.733 1.71 2.199v17.585c0 8.061 0 24.914-22.471 24.914-12.212 0-18.807-7.328-18.807-18.319Zm87.929-22.466c0 32.73 20.273 52.025 50.56 52.025 31.508 0 44.453-20.761 44.453-22.959 0-1.221-1.221-2.443-2.687-2.443-3.175 0-12.701 12.701-32.241 12.701-23.692 0-41.766-22.226-41.766-47.14 0-33.95 19.296-40.545 24.181-40.545 12.945 0 26.867 8.06 32.485 12.945 4.152 3.42 4.64 7.816 8.06 7.816 1.954 0 2.686-5.129 2.686-10.747 0-4.152-.244-8.548-.488-11.479-.489-4.641-18.563-8.06-28.577-8.06-34.683 0-56.666 28.088-56.666 57.886Zm110.4-.49c0 36.393 25.402 52.025 51.537 52.025 28.577 0 43.232-21.006 43.232-23.692 0-.977-1.222-2.199-2.443-2.199-4.152 0-14.655 10.992-31.996 10.992-20.273 0-41.278-16.854-41.278-49.339 0-2.442 0-2.686 2.687-2.686h62.771c6.839 0 10.014-.977 10.014-4.397 0-3.663-8.304-38.835-44.941-38.835-29.798 0-49.583 26.379-49.583 58.131Zm20.517-24.181c0-8.548 7.328-27.844 24.914-27.844 19.295 0 26.378 20.517 26.378 26.867 0 2.199-.488 2.931-5.129 2.931-4.152 0-31.752 1.466-42.987 1.466-2.687 0-3.176-1.221-3.176-3.42ZM496.538 1755.39c0 2.443 2.199 3.175 4.885 3.175 14.411 0 17.83 13.678 17.83 19.54 0 6.351.245 15.876.245 41.522 0 14.655-1.222 79.137-3.664 86.22-3.908 11.48-5.129 9.77-8.549 10.747-5.617 1.465-9.281 1.465-9.281 7.083 0 2.687 4.885 2.687 7.572 2.687 10.746 0 16.608-.977 22.715-.977 3.663 0 25.157 1.221 34.927 1.221 2.687 0 5.618-.733 5.618-4.152 0-8.549-11.724-2.198-20.273-7.572-5.618-3.664-10.014-11.235-10.014-28.088 0-76.206.489-4.397.489-100.875 0-21.982 3.419-24.913 12.945-24.913 33.462 0 49.582 25.402 49.582 44.453 0 27.356-27.6 34.195-40.789 34.195-6.351 0-9.038-1.954-12.457-1.954-1.71 0-3.175.977-3.175 3.663 0 2.687 13.678 5.618 23.936 5.618 12.945 0 53.246-8.549 53.246-50.803 0-30.776-28.333-44.942-56.177-44.942-8.549 0-29.798.733-40.301.733-4.396 0-11.968-.733-14.655-.733-7.327 0-6.594.244-9.037.244-3.908 0-5.618 1.954-5.618 3.908Zm141.176 148.75c0 6.595 1.709 12.701 6.106 17.098 5.618 5.861 12.212 7.327 22.715 7.327 17.586 0 31.264-15.143 32.241-15.143 1.221 0 5.373 13.433 19.54 13.433 10.258 0 15.387-1.465 15.387-5.129 0-8.793-18.563 5.862-18.563-26.623 0-18.319 1.222-13.678 1.222-45.43 0-9.282 0-30.775-36.638-30.775-21.005 0-41.033 14.41-41.033 26.867 0 8.304 12.212 9.526 15.143 9.526 2.687 0 4.397-.733 4.397-4.885 0-2.199-.977-5.13-.977-8.793 0-6.107 2.198-14.655 17.585-14.655 6.839 0 23.692 5.129 23.692 26.379 0 3.908-.488 7.816-.488 12.7 0 3.176-1.466 3.42-4.152 3.908-30.531 5.374-56.177 7.816-56.177 34.195Zm19.051-3.664c0-20.272 21.494-23.203 37.126-25.89.732 0 1.709-.488 2.442-.488.977 0 1.71.732 1.71 2.198v17.586c0 8.06 0 24.913-22.471 24.913-12.212 0-18.807-7.327-18.807-18.319Zm89.395-70.836c0 1.709 1.221 2.686 4.641 2.686h2.442c5.618 0 10.503 1.71 10.503 13.19v35.171c0 7.084 0 4.641-.489 18.319-.977 29.065-12.945 15.876-12.945 23.448 0 1.465.733 2.442 3.664 2.442 2.198 0 16.853-.977 27.356-.977 11.235 0 8.792.977 17.83.977 2.198 0 4.64-.488 4.64-3.175 0-2.931-8.548-3.664-10.014-3.664-12.701-.977-13.922-10.502-13.922-24.669v-9.281c0-8.06.977-35.172 2.198-38.591.977-2.931 11.236-14.899 27.356-14.899 15.388 0 31.508 10.991 31.508 38.102v32.974c0 6.594-.488 14.899-5.373 16.364-.489.245-6.107.245-6.107 3.664 0 1.954 1.71 3.175 4.885 3.175 2.931 0 12.701-.977 18.807-.977 5.374 0 10.015 1.221 20.029 1.221 2.442 0 4.885-.488 4.885-2.442 0-1.954-.489-2.931-4.885-3.664-13.922-2.198-14.899-6.594-14.899-17.83v-5.373c0-34.928-.245-30.776-.245-34.928 0-12.945-7.327-41.033-42.01-41.033-7.816 0-15.388 3.175-21.25 6.839-8.793 5.373-9.77 10.014-11.479 10.014-.977 0-1.222-1.954-1.222-6.351 0-3.908.489-8.793.489-10.502 0-1.71-.489-2.931-2.198-2.931h-.489c-2.442 0-10.991 5.373-21.738 8.304-5.373 1.466-11.968 1.221-11.968 4.397Zm140.931 1.47c0 2.931 1.221 3.419 4.152 3.419 1.221 0 2.931-.244 4.641-.244 4.152 0 5.129.733 5.129 3.908 0 1.954-.977 35.416-.977 56.91v3.664c0 9.525 1.954 28.577 32.974 28.577 14.41 0 26.623-10.259 26.623-13.922 0-2.443-.733-2.931-2.443-2.931-2.687 0-9.281 4.64-18.074 4.64-18.319 0-21.006-8.548-21.006-28.332 0-12.946.977-38.592.977-45.431 0-6.839.977-8.06 7.328-8.06.244 0 8.06 1.466 25.89 1.71 1.954 0 7.816-10.991 7.816-13.434 0-1.465-.733-2.686-2.442-2.686-2.687 0-2.931 3.419-18.808 3.419h-8.548c-10.014 0-10.014-.244-10.014-4.885s.977-9.526.977-13.922c0-4.152-.733-5.618-2.687-5.618-4.885 0-8.793 9.77-18.563 20.029-8.549 8.793-12.945 9.281-12.945 13.189Zm82.311.98c0 3.419 2.443 3.908 4.641 3.908.977 0 1.954.244 2.687.244 10.991 0 12.212 4.641 12.212 9.037 0 4.641.489 0 .489 46.652 0 19.295-.244 24.425-9.037 26.623-2.687.733-3.176 2.198-3.176 4.152 0 1.71 0 2.931 5.374 2.931 4.152 0 12.212-1.221 25.402-1.221 5.617 0 12.945 1.221 20.761 1.221 2.686 0 2.931-2.198 2.931-3.908 0-3.664-6.351-3.175-12.457-4.152-5.618-.977-11.48-5.862-11.48-13.19 0-4.152-.488.245-.488-25.646v-25.401c0-5.13 8.549-15.144 18.074-15.144 11.724 0 12.945 5.862 18.563 5.862.733 0 8.305-3.664 8.305-13.678 0-1.221-.733-4.152-5.13-7.083-4.885-3.175-6.35-4.641-11.479-4.641-15.876 0-23.692 19.784-25.646 19.784-1.466 0-1.954-.244-1.954-10.502 0-2.443.244-4.641.244-6.595 0-2.442-.977-4.885-3.175-4.885-.245 0-2.199.489-3.42.977-20.028 9.526-32.241 8.793-32.241 14.655Zm91.108-7.82c0 6.351 6.106-.488 13.922 14.411 8.793 16.609 38.103 76.205 38.103 86.952 0 18.807-22.227 40.057-22.227 42.743 0 2.687 3.175 3.176 4.641 3.176 10.991 0 10.014-.245 11.235-.245 3.664 0 7.572-14.655 21.494-51.78l21.738-57.887c4.885-13.189 10.503-26.867 13.19-30.775 2.931-4.152 10.014-2.198 10.014-6.595 0-1.954-1.71-3.175-5.129-3.175-1.954 0-10.992.244-15.144.244-4.396 0-10.991-.244-17.586-.244-4.396 0-4.64 1.954-4.64 2.931 0 8.06 15.143-1.221 15.143 13.433 0 8.305-19.296 62.039-21.25 62.039-2.198 0-7.815-15.143-12.945-26.134-11.724-26.379-14.655-31.997-14.655-38.103 0-2.687.245-6.839 3.908-6.839h3.664c3.664 0 5.862-.488 5.862-4.396 0-1.221-1.954-2.687-4.396-2.687-6.595 0-6.107.489-13.923.489-10.502 0-12.945-.489-26.134-.489-1.466 0-4.885.733-4.885 2.931Zm-53.56 4132.32c0 1.954.244 3.419 3.664 3.419 9.525.244 19.295 4.885 19.784 15.144.244 7.816.488 15.143.488 22.226 0 15.144-.733 28.821-.733 42.255v30.287c0 37.37-2.931 43.72-8.304 47.872-3.419 2.443-6.106 2.443-7.083 2.443-1.221 0-3.908 1.221-3.908 3.908 0 1.71 2.198 2.931 7.083 2.931 11.968 0 17.097-1.954 30.531-1.954 14.899 0 35.904 2.442 67.168 2.442 9.77 0 28.822-17.341 28.822-31.996 0-2.931-1.466-4.152-2.931-4.152-7.084 0 1.954 23.203-75.962 23.203-3.663 0-5.129-.244-10.502-1.954-4.152-1.221-5.862-11.235-5.862-19.295v-9.77c0-2.687 1.221-86.953 1.954-102.096 1.71-29.554 20.028-15.876 20.028-26.379 0-1.954-.977-2.442-4.152-2.442-4.397 0-12.457.977-25.646.977-9.77 0-15.388-.977-21.25-.977-2.442 0-4.64-.489-6.594-.489-1.954 0-6.595.733-6.595 4.397Zm154.12 148.99c0 6.595 1.71 12.701 6.107 17.097 5.617 5.862 12.212 7.328 22.715 7.328 17.585 0 31.263-15.144 32.24-15.144 1.222 0 5.374 13.434 19.54 13.434 10.259 0 15.388-1.465 15.388-5.129 0-8.793-18.563 5.862-18.563-26.623 0-18.319 1.221-13.678 1.221-45.43 0-9.282 0-30.776-36.637-30.776-21.005 0-41.034 14.411-41.034 26.868 0 8.304 12.213 9.525 15.144 9.525 2.686 0 4.396-.732 4.396-4.885 0-2.198-.977-5.129-.977-8.792 0-6.107 2.198-14.655 17.586-14.655 6.839 0 23.692 5.129 23.692 26.378 0 3.908-.488 7.816-.488 12.701 0 3.176-1.466 3.42-4.153 3.908-30.531 5.374-56.177 7.816-56.177 34.195Zm19.052-3.664c0-20.272 21.494-23.203 37.125-25.89.733 0 1.71-.488 2.443-.488.977 0 1.71.732 1.71 2.198v17.586c0 8.06 0 24.913-22.471 24.913-12.213 0-18.807-7.328-18.807-18.319Zm83.288-77.186c0 2.931 1.466 2.198 4.641 4.885 12.945 10.747 11.724 16.12 18.074 31.996 25.158 62.284 25.158 67.169 29.066 67.169 8.06 0 32.485-62.528 35.172-62.528 4.396 0 21.738 63.26 29.065 63.26 2.931 0 5.862-6.35 11.235-17.83 29.799-63.26 28.822-67.412 35.172-76.205 5.129-7.083 10.747-4.641 10.747-9.037 0-2.931-1.221-3.176-7.083-3.176h-28.089c-2.686 0-5.129 0-5.129 1.954 0 7.084 13.434.977 13.434 14.167 0 11.724-20.029 61.795-23.204 61.795-2.198 0-6.35-13.678-11.479-24.669-8.549-18.808-14.411-36.149-14.411-40.79 0-5.618 4.152-6.595 7.327-6.839 2.687-.244 3.664-.244 3.664-2.442 0-.733-.244-3.42-5.373-3.42-3.176 0-1.466.244-7.572.244-29.798 0-13.189-.488-29.554-.488-1.465 0-3.664 0-3.664 2.198 0 4.397 5.618.977 13.922 12.945 3.664 5.374 7.084 14.655 7.084 16.609 0 5.862-1.222 7.083-12.946 29.554-4.885 9.282-8.548 16.853-9.769 16.853-2.199 0-6.839-13.433-11.969-24.424-8.548-19.296-13.678-31.997-13.678-39.569 0-10.747 10.747-6.594 10.747-11.479 0-2.687-2.442-2.687-11.479-2.687-7.083 0-4.885.244-11.968.244-9.77 0-15.632-.977-17.342-.977-1.465 0-4.641.489-4.641 2.687Zm185.39 6.35c0 1.71 1.221 2.687 4.64 2.687h2.443c5.617 0 10.502 1.71 10.502 13.19v35.171c0 7.083 0 4.641-.488 18.319-.977 29.065-12.945 15.876-12.945 23.448 0 1.465.732 2.442 3.663 2.442 2.199 0 16.854-.977 27.356-.977 11.236 0 8.793.977 17.83.977 2.199 0 4.641-.488 4.641-3.175 0-2.931-8.549-3.664-10.014-3.664-12.701-.977-13.922-10.502-13.922-24.669v-9.281c0-8.06.977-35.172 2.198-38.591.977-2.931 11.235-14.9 27.356-14.9 15.387 0 31.508 10.992 31.508 38.103v32.974c0 6.594-.489 14.899-5.374 16.364-.488.244-6.106.244-6.106 3.664 0 1.954 1.71 3.175 4.885 3.175 2.931 0 12.701-.977 18.807-.977 5.374 0 10.014 1.221 20.028 1.221 2.443 0 4.885-.488 4.885-2.442 0-1.954-.488-2.931-4.885-3.664-13.922-2.198-14.899-6.595-14.899-17.83v-5.373c0-34.928-.244-30.776-.244-34.928 0-12.945-7.327-41.034-42.011-41.034-7.815 0-15.387 3.176-21.249 6.839-8.793 5.374-9.77 10.015-11.48 10.015-.977 0-1.221-1.954-1.221-6.351 0-3.908.488-8.793.488-10.503 0-1.709-.488-2.931-2.198-2.931h-.488c-2.443 0-10.991 5.374-21.738 8.305-5.374 1.465-11.968 1.221-11.968 4.396Zm1868.94-749.13c0 2.443 2.198 3.176 4.885 3.176 14.411 0 17.83 13.678 17.83 19.54 0 6.35.244 15.876.244 41.522 0 14.655-1.221 79.136-3.663 86.219-3.908 11.48-5.13 9.77-8.549 10.747-5.618 1.466-9.282 1.466-9.282 7.083 0 2.687 4.885 2.687 7.572 2.687 10.747 0 16.609-.977 22.715-.977 3.664 0 25.158 1.221 34.928 1.221 2.686 0 5.617-.732 5.617-4.152 0-8.549-11.723-2.198-20.272-7.572-5.618-3.663-10.014-11.235-10.014-28.088 0-76.205.488-4.397.488-100.875 0-21.982 3.42-24.913 12.945-24.913 33.462 0 49.583 25.402 49.583 44.453 0 27.356-27.6 34.195-40.79 34.195-6.35 0-9.037-1.954-12.456-1.954-1.71 0-3.176.977-3.176 3.664 0 2.687 13.678 5.617 23.937 5.617 12.945 0 53.246-8.548 53.246-50.803 0-30.775-28.333-44.942-56.177-44.942-8.549 0-29.799.733-40.301.733-4.397 0-11.968-.733-14.655-.733-7.328 0-6.595.245-9.037.245-3.908 0-5.618 1.954-5.618 3.907Zm141.18 148.75c0 6.594 1.71 12.7 6.107 17.097 5.617 5.862 12.212 7.327 22.715 7.327 17.585 0 31.263-15.143 32.24-15.143 1.222 0 5.374 13.434 19.54 13.434 10.259 0 15.388-1.466 15.388-5.13 0-8.793-18.563 5.862-18.563-26.623 0-18.318 1.221-13.678 1.221-45.43 0-9.281 0-30.775-36.637-30.775-21.005 0-41.034 14.411-41.034 26.867 0 8.305 12.213 9.526 15.144 9.526 2.686 0 4.396-.733 4.396-4.885 0-2.198-.977-5.129-.977-8.793 0-6.106 2.198-14.655 17.586-14.655 6.839 0 23.692 5.129 23.692 26.379 0 3.908-.488 7.816-.488 12.701 0 3.175-1.466 3.419-4.153 3.908-30.531 5.373-56.177 7.816-56.177 34.195Zm19.052-3.664c0-20.273 21.494-23.204 37.125-25.89.733 0 1.71-.489 2.443-.489.977 0 1.71.733 1.71 2.198v17.586c0 8.06 0 24.913-22.471 24.913-12.213 0-18.807-7.327-18.807-18.318Zm85.968-69.366c0 2.931 1.221 3.42 4.152 3.42 1.221 0 2.931-.244 4.641-.244 4.152 0 5.129.732 5.129 3.908 0 1.954-.977 35.416-.977 56.909v3.664c0 9.526 1.954 28.577 32.974 28.577 14.41 0 26.623-10.258 26.623-13.922 0-2.443-.733-2.931-2.443-2.931-2.687 0-9.281 4.641-18.074 4.641-18.319 0-21.006-8.549-21.006-28.333 0-12.945.977-38.591.977-45.43 0-6.839.977-8.06 7.328-8.06.244 0 8.06 1.465 25.89 1.709 1.954 0 7.816-10.991 7.816-13.433 0-1.466-.733-2.687-2.442-2.687-2.687 0-2.931 3.419-18.807 3.419h-8.549c-10.014 0-10.014-.244-10.014-4.885 0-4.64.977-9.525.977-13.922 0-4.152-.733-5.617-2.687-5.617-4.885 0-8.793 9.77-18.563 20.028-8.549 8.793-12.945 9.281-12.945 13.189Zm81.83-76.45c0 1.465 1.466 2.442 4.152 2.442.733 0 .489.244 4.152.244 10.259 0 10.259 5.13 10.259 47.873v11.968l-.977 83.289c0 9.77-1.221 15.876-11.235 18.807-2.687.733-2.931 1.954-2.931 3.175 0 1.466-.245 2.443 6.594 2.443 3.664 0 13.922-1.222 17.342-1.222 1.221 0 25.89 1.222 26.134 1.222 1.466 0 2.687-1.466 2.687-2.931 0-4.397-7.327-2.199-12.457-4.397-9.037-3.908-9.769-15.387-9.769-27.111v-5.618c0-35.66.977-40.545 6.838-45.186 5.618-4.396 14.411-9.526 23.693-9.526 16.12 0 30.286 16.609 30.286 36.638 0 40.545-.488 36.393-.488 40.545 0 16.609-13.19 7.327-13.19 15.387 0 1.954 2.443 2.443 5.618 2.443 1.954 0 14.899-.733 18.807-.733 5.129 0 17.586 1.221 20.517 1.221 3.908 0 7.572-.732 7.572-3.908 0-2.931-5.862-4.396-13.19-5.129-6.839-.733-8.06-10.502-8.06-14.166v-35.416c0-33.951-16.609-48.117-41.766-48.117-20.273 0-31.997 18.074-34.439 18.074-1.466 0-1.954-1.709-1.954-4.64 0-7.084.977-7.084 1.71-71.809 0-8.305 1.709-11.724 1.709-15.144 0-1.709-.244-5.617-3.175-5.617s-10.991 3.908-17.586 6.839c-6.595 2.931-16.853 3.419-16.853 8.06Zm-551.06 1658.27c0 1.954.245 3.419 3.664 3.419 9.526.245 19.296 4.885 19.784 15.144.244 7.816.489 15.143.489 22.226 0 15.144-.733 28.822-.733 42.255v30.287c0 37.37-2.931 43.72-8.305 47.873-3.419 2.442-6.106 2.442-7.083 2.442-1.221 0-3.908 1.221-3.908 3.908 0 1.71 2.199 2.931 7.084 2.931 11.968 0 17.097-1.954 30.531-1.954 14.899 0 35.904 2.443 67.168 2.443 9.77 0 28.821-17.342 28.821-31.997 0-2.931-1.466-4.152-2.931-4.152-7.083 0 1.954 23.203-75.961 23.203-3.664 0-5.129-.244-10.503-1.954-4.152-1.221-5.862-11.235-5.862-19.295v-9.77c0-2.687 1.222-86.952 1.954-102.096 1.71-29.554 20.029-15.876 20.029-26.379 0-1.954-.977-2.442-4.153-2.442-4.396 0-12.456.977-25.646.977-9.77 0-15.387-.977-21.249-.977-2.443 0-4.641-.489-6.595-.489-1.954 0-6.595.733-6.595 4.397Zm151.92 120.17c0 27.111 18.562 53.979 55.932 53.979 29.31 0 58.62-18.807 58.62-55.445 0-35.66-28.333-54.223-56.91-54.223-38.347 0-57.642 28.089-57.642 55.689Zm19.295-8.304c0-30.287 18.319-40.79 32.485-40.79 30.043 0 44.453 29.066 44.453 54.956 0 27.6-15.632 40.789-32.973 40.789-20.761 0-43.965-19.295-43.965-54.955Zm114.315 10.264c0 26.134 16.121 51.048 48.117 51.048 23.204 0 32.974-15.876 35.66-15.876 1.954 0 2.199 2.442 2.199 4.152 0 4.396.732 6.839.732 9.037 0 1.954.977 2.687 2.687 2.687 2.931 0 8.304-1.954 15.388-2.443 17.83-1.465 18.807-3.175 18.807-4.396 0-4.152-6.595-3.908-10.503-5.129-7.083-2.199-8.549-7.328-8.549-29.554 0-17.586.489-45.186.489-89.151 0-20.517 3.175-47.873 3.175-53.002 0-3.663-1.221-4.885-2.931-4.885-2.931 0-6.595 2.443-9.526 3.664-19.295 8.793-27.6 8.06-27.6 11.724v.244c0 1.71 0 1.954 5.13 1.954h2.686c12.946 0 12.946 10.991 12.946 27.356 0 8.793-.489 0-.489 31.508 0 7.327-.488 8.793-1.221 8.793-3.42 0-16.853-7.083-27.844-7.083-39.569 0-59.353 30.286-59.353 59.352Zm17.586-11.48c0-22.715 12.213-40.789 33.951-40.789 8.793 0 21.249 6.106 29.065 10.747 3.42 1.954 6.839 5.373 6.839 18.807 0 4.152 0 0-.244 41.766 0 11.236-14.899 19.296-29.066 19.296-25.401 0-40.545-27.356-40.545-49.827Zm117.964 82.8c0 21.25 26.379 26.868 45.43 26.868 25.158 0 46.163-10.259 52.513-26.135 1.466-3.419 1.71-7.327 1.71-11.48 0-20.761-23.936-21.493-35.416-21.493h-11.235c-20.273 0-32.73-.733-32.73-12.701 0-11.48 10.503-11.968 10.992-11.968 3.663 0 7.816 2.198 18.807 2.198 22.471 0 40.301-16.365 40.301-37.126 0-4.885-2.687-12.212-2.687-12.212 3.419-1.466 7.327-3.42 10.014-7.572 2.198-3.419 5.374-13.678 5.374-22.227 0-1.954-2.443-1.954-3.176-1.954-4.152 0-2.442 9.038-8.793 11.724-4.64 1.954-8.793 4.397-12.456 4.397-3.42 0-9.282-9.77-30.775-9.77-34.928 0-42.255 24.669-42.255 37.37 0 25.646 16.608 28.821 16.608 32.729 0 2.443-12.7 7.572-12.7 24.181 0 10.747 8.06 12.945 8.06 14.41 0 2.443-17.586 5.862-17.586 20.761Zm14.166-1.465c0-10.259 9.037-16.365 11.236-16.365 2.686 0 17.097 3.42 30.042 3.42h2.198c13.923 0 27.112 0 27.112 12.456 0 13.678-20.517 22.227-39.324 22.227-16.12 0-31.264-6.351-31.264-21.738Zm10.014-93.059c0-19.784 10.503-29.554 21.739-29.554 16.608 0 25.401 17.83 25.401 34.684 0 15.143-7.327 29.065-22.715 29.065-14.166 0-24.425-14.655-24.425-34.195Zm93.8 23.444c0 36.393 25.401 52.025 51.536 52.025 28.577 0 43.232-21.005 43.232-23.692 0-.977-1.221-2.198-2.443-2.198-4.152 0-14.654 10.991-31.996 10.991-20.273 0-41.278-16.853-41.278-49.338 0-2.443 0-2.687 2.687-2.687h62.772c6.838 0 10.014-.977 10.014-4.396 0-3.664-8.305-38.836-44.942-38.836-29.798 0-49.582 26.379-49.582 58.131Zm20.517-24.18c0-8.549 7.327-27.845 24.913-27.845 19.295 0 26.379 20.517 26.379 26.868 0 2.198-.489 2.931-5.13 2.931-4.152 0-31.752 1.465-42.987 1.465-2.687 0-3.175-1.221-3.175-3.419ZM3661.603 6248.708c0 2.198 6.839 36.637 11.968 39.568 15.143 8.06 27.356 9.281 48.117 9.281 31.02 0 56.91-20.517 56.91-55.688 0-11.236-3.909-19.784-9.77-26.135-30.043-32.24-86.709-21.494-86.709-60.573 0-17.098 16.365-27.112 35.66-27.112 11.236 0 22.96 3.664 31.997 11.724 7.083 6.35 10.014 8.06 16.12 22.96.733 2.198 1.466 3.419 3.42 3.419 1.465 0 3.42-1.71 3.42-6.84 0-3.419-3.176-21.981-5.13-33.217-.244-1.221-2.198-1.954-3.663-1.954-1.71 0-4.153 1.954-5.618 1.954-3.42 0-19.54-8.06-35.172-8.06-33.218 0-56.665 18.807-56.665 47.873 0 16.608 8.304 27.6 22.226 35.904 31.752 19.051 74.252 17.097 74.252 50.07 0 20.762-15.877 34.928-40.546 34.928-35.171 0-47.384-25.89-53.49-40.79-.488-1.465-2.442-2.442-3.908-2.442-1.71 0-3.42 1.466-3.42 5.13ZM3799.847 6198.148c0 2.687 1.71 3.42 4.397 3.42h4.396c2.443 0 7.328 3.42 7.328 10.747 0 8.793-.245 4.396-.245 43.964 0 29.799 14.9 42.5 39.324 42.5 21.983 0 33.218-15.632 35.172-15.632 1.465 0 1.221 12.456 4.396 12.456 2.443 0 17.342-2.686 24.67-2.686 6.838 0 9.037-.245 9.037-4.153 0-2.442-2.443-3.175-5.862-3.175-1.954 0-4.153.244-6.35.244-5.374 0-6.84-6.106-6.84-25.646 0-33.217 1.222-60.817 1.222-62.283 0-5.618-.733-6.839-5.862-6.839-2.199 0-5.13 1.221-8.793 1.221-16.61 0-21.494 2.199-21.494 5.618 0 1.954 2.687 2.931 5.373 3.175 10.503.977 11.236 6.35 11.236 21.494l.488 33.706c0 22.715-9.525 29.799-29.798 29.799-10.747 0-27.112-7.084-27.112-39.324 0-25.646 1.222-30.043 1.222-42.988 0-11.48 0-12.212-5.618-12.212-1.466 0-10.747 1.22-13.922 1.22-14.167 0-16.365 2.2-16.365 5.374ZM3941.022 6199.614c0 7.816 16.364-2.931 16.364 14.166 0 10.014.245 20.273.245 29.798 0 17.342-.489 31.997-1.954 37.126-3.42 10.503-11.236 5.618-11.236 10.747 0 1.71.244 3.664 5.862 3.664 3.664 0 9.526-.733 19.296-.733 10.502 0 16.853.733 20.517.733 5.129 0 5.129-.977 5.129-3.664 0-5.618-20.517 2.931-20.517-22.47v-49.339c0-9.526 12.7-17.83 26.379-17.83 15.876 0 24.913 11.724 24.913 28.577 0 1.466.488 0 .488 15.388 0 26.378-.244 23.203-.244 26.623 0 14.166-3.908 14.655-5.617 15.143-4.885 1.954-5.618 2.687-5.618 4.885 0 2.442 3.664 3.175 5.373 3.175 2.199 0 17.83-1.221 22.227-1.221 7.083 0 13.678 1.221 17.83 1.221 1.465 0 4.64 0 4.64-2.686 0-.733-.732-3.42-4.396-3.908-14.899-2.199-16.853-9.77-16.853-23.204v-20.761c0-24.913-1.465-27.844-1.465-31.02 0-2.198 12.945-13.189 25.157-13.189 7.328 0 14.167 2.687 18.319 7.572 7.816 9.525 9.281 6.594 9.281 60.573v3.908c0 4.885-.244 9.282-.977 11.236-1.954 4.64-11.235 3.908-11.235 8.793 0 1.953 3.175 2.442 5.862 2.442 5.129 0 10.747-.977 17.586-.977 4.885 0 12.945.977 16.12.977 2.687 0 8.06 0 8.06-3.664 0-4.152-7.327-4.152-9.281-4.64-6.35-1.954-6.84-9.282-6.84-22.227v-7.816c0-8.549-.243-19.051-1.465-31.02-1.954-18.807-13.433-36.637-38.835-36.637-20.028 0-31.752 20.029-33.462 20.029-2.443 0-4.885-19.296-31.264-19.296-24.913 0-31.264 17.586-32.973 17.586-1.466 0-1.466-1.466-1.466-2.931 0-1.954 1.221-7.327 1.221-10.258 0-3.908-.732-7.084-2.93-7.084-4.153 0-5.618 1.466-10.747 3.664-10.503 4.64-21.494 3.42-21.494 8.549ZM4143.016 6199.614c0 7.816 16.364-2.931 16.364 14.166 0 10.014.245 20.273.245 29.798 0 17.342-.489 31.997-1.954 37.126-3.42 10.503-11.236 5.618-11.236 10.747 0 1.71.244 3.664 5.862 3.664 3.664 0 9.526-.733 19.296-.733 10.502 0 16.853.733 20.517.733 5.129 0 5.129-.977 5.129-3.664 0-5.618-20.517 2.931-20.517-22.47v-49.339c0-9.526 12.7-17.83 26.379-17.83 15.876 0 24.913 11.724 24.913 28.577 0 1.466.488 0 .488 15.388 0 26.378-.244 23.203-.244 26.623 0 14.166-3.908 14.655-5.617 15.143-4.885 1.954-5.618 2.687-5.618 4.885 0 2.442 3.664 3.175 5.373 3.175 2.199 0 17.83-1.221 22.227-1.221 7.083 0 13.678 1.221 17.83 1.221 1.465 0 4.64 0 4.64-2.686 0-.733-.732-3.42-4.396-3.908-14.899-2.199-16.853-9.77-16.853-23.204v-20.761c0-24.913-1.465-27.844-1.465-31.02 0-2.198 12.945-13.189 25.157-13.189 7.328 0 14.167 2.687 18.319 7.572 7.816 9.525 9.281 6.594 9.281 60.573v3.908c0 4.885-.244 9.282-.977 11.236-1.954 4.64-11.235 3.908-11.235 8.793 0 1.953 3.175 2.442 5.862 2.442 5.129 0 10.747-.977 17.586-.977 4.885 0 12.945.977 16.12.977 2.687 0 8.06 0 8.06-3.664 0-4.152-7.327-4.152-9.281-4.64-6.35-1.954-6.84-9.282-6.84-22.227v-7.816c0-8.549-.243-19.051-1.465-31.02-1.954-18.807-13.433-36.637-38.835-36.637-20.028 0-31.752 20.029-33.462 20.029-2.443 0-4.885-19.296-31.264-19.296-24.913 0-31.264 17.586-32.973 17.586-1.466 0-1.466-1.466-1.466-2.931 0-1.954 1.221-7.327 1.221-10.258 0-3.908-.732-7.084-2.93-7.084-4.153 0-5.618 1.466-10.747 3.664-10.503 4.64-21.494 3.42-21.494 8.549ZM4344.518 6246.998c0 36.393 25.401 52.025 51.536 52.025 28.577 0 43.232-21.006 43.232-23.692 0-.977-1.221-2.199-2.443-2.199-4.152 0-14.654 10.992-31.996 10.992-20.273 0-41.278-16.854-41.278-49.339 0-2.442 0-2.686 2.687-2.686h62.771c6.84 0 10.015-.977 10.015-4.397 0-3.663-8.305-38.835-44.942-38.835-29.798 0-49.582 26.379-49.582 58.13Zm20.517-24.18c0-8.55 7.327-27.845 24.913-27.845 19.295 0 26.379 20.517 26.379 26.867 0 2.199-.489 2.931-5.13 2.931-4.152 0-31.752 1.466-42.987 1.466-2.687 0-3.175-1.221-3.175-3.42ZM4454.184 6201.568c0 3.42 2.443 3.908 4.641 3.908.977 0 1.954.244 2.687.244 10.991 0 12.212 4.64 12.212 9.037 0 4.64.489 0 .489 46.652 0 19.295-.244 24.424-9.037 26.623-2.687.732-3.176 2.198-3.176 4.152 0 1.71 0 2.93 5.374 2.93 4.152 0 12.212-1.22 25.402-1.22 5.617 0 12.945 1.22 20.76 1.22 2.687 0 2.932-2.197 2.932-3.907 0-3.664-6.35-3.175-12.457-4.152-5.618-.977-11.48-5.862-11.48-13.19 0-4.152-.488.244-.488-25.646v-25.402c0-5.129 8.549-15.143 18.074-15.143 11.724 0 12.945 5.862 18.563 5.862.733 0 8.305-3.664 8.305-13.678 0-1.221-.733-4.152-5.13-7.083-4.885-3.175-6.35-4.64-11.48-4.64-15.875 0-23.691 19.783-25.645 19.783-1.466 0-1.954-.244-1.954-10.502 0-2.443.244-4.641.244-6.595 0-2.443-.977-4.885-3.175-4.885-.245 0-2.199.488-3.42.977-20.028 9.526-32.24 8.793-32.24 14.655ZM3760.035 6389.885c0 .732 1.221 4.152 5.13 4.152 7.082 0 17.097 4.152 18.318 12.945s1.465 19.051 1.465 29.066c0 10.014-.244 19.295-.244 26.378v13.922c0 28.822-2.442 61.307-3.175 65.215-3.664 15.876-18.075 9.037-18.075 15.632 0 1.954 1.466 3.663 11.48 3.663 8.793 0 13.678-1.221 26.379-1.221 8.06 0 7.083.977 20.272.977 4.153 0 7.816-.488 7.816-4.396 0-1.222-2.198-2.687-4.64-2.687-5.13 0-9.282-.489-10.503-1.221-10.747-6.84-11.48-13.19-11.48-25.646v-10.503c0-9.526.977-18.319.977-30.043 0-8.548 1.71-9.037 6.107-9.037 15.631 0 24.669.733 44.941.733 1.466 0 23.692-.733 30.043-.733 13.678 0 15.387 2.198 15.387 6.595 0 10.991-.488 21.005-.488 30.042 0 3.908-.244 8.305-.244 13.19 0 5.373-.489 11.48-1.71 17.83-1.71 9.281-16.853 8.06-16.853 12.7 0 3.176 2.442 3.176 8.793 3.176 11.48 0 13.678-1.221 22.959-1.221 7.083 0 13.19 1.221 18.807 1.221 8.793 0 11.968-.244 11.968-2.687 0-2.442-2.198-2.686-2.93-2.686-6.595-.733-20.518-3.664-20.518-18.075 0-6.839-.977-9.281-.977-22.47v-9.038c0-13.19.489-24.913.489-36.637 0-18.563.488-35.904.733-59.352 0-8.549 4.396-15.144 13.922-15.144.977 0 3.42 0 3.42-3.175 0-2.442-3.42-3.175-5.618-3.175-8.793 0-13.19.488-19.052.488-9.525 0-17.83-.488-23.692-.488-5.862 0-9.526.488-9.526 2.442 0 9.526 20.517-4.885 20.517 29.31v13.19c0 32.485-.244 33.95-2.686 33.95-31.753-.244-40.79-.488-46.163-.488-35.905 0-31.997.244-40.057.244-7.083 0-8.304-1.221-8.304-9.526 0-4.885.488-11.968.488-22.47v-9.038c0-9.526 1.71-30.53 9.282-30.53 7.815 0 8.548-1.955 8.548-4.153 0-3.175-3.664-3.42-5.373-3.42-15.388 0-10.991.489-21.494.489-13.678 0-20.761-.977-27.6-.977-3.175 0-6.839 0-6.839 2.687ZM3957.874 6511.032c0 27.111 18.563 53.978 55.932 53.978 29.31 0 58.62-18.807 58.62-55.444 0-35.66-28.333-54.223-56.91-54.223-38.347 0-57.642 28.089-57.642 55.689Zm19.295-8.305c0-30.287 18.319-40.79 32.485-40.79 30.043 0 44.453 29.066 44.453 54.957 0 27.6-15.631 40.789-32.973 40.789-20.761 0-43.965-19.296-43.965-54.956ZM4089.038 6464.38c0 2.687 1.71 3.42 4.397 3.42h4.396c2.443 0 7.328 3.42 7.328 10.747 0 8.793-.245 4.396-.245 43.964 0 29.799 14.9 42.5 39.324 42.5 21.983 0 33.218-15.632 35.172-15.632 1.465 0 1.221 12.456 4.396 12.456 2.443 0 17.342-2.686 24.67-2.686 6.838 0 9.037-.245 9.037-4.153 0-2.442-2.443-3.175-5.862-3.175-1.954 0-4.153.244-6.35.244-5.374 0-6.84-6.106-6.84-25.646 0-33.217 1.222-60.817 1.222-62.283 0-5.618-.733-6.839-5.862-6.839-2.199 0-5.13 1.221-8.793 1.221-16.61 0-21.494 2.199-21.494 5.618 0 1.954 2.687 2.931 5.373 3.175 10.503.977 11.236 6.35 11.236 21.494l.488 33.706c0 22.715-9.525 29.799-29.798 29.799-10.747 0-27.112-7.084-27.112-39.324 0-25.646 1.222-30.043 1.222-42.988 0-11.48 0-12.212-5.618-12.212-1.466 0-10.747 1.22-13.922 1.22-14.167 0-16.365 2.2-16.365 5.374ZM4236.074 6550.111c0 6.107 2.93 5.862 8.793 7.816 3.663 1.222 14.654 6.595 27.355 6.595 14.655 0 20.761-4.64 24.18-7.572 7.084-6.35 12.946-16.12 12.946-25.402 0-19.05-6.595-26.378-29.798-35.171-11.724-4.397-26.135-7.572-26.135-21.983 0-7.327 7.083-12.456 16.365-12.456 21.982 0 25.402 22.47 29.554 22.47 3.42 0 4.396-1.71 4.396-7.083 0-2.686-.977-13.922-.977-14.654 0-1.71-2.442-9.038-27.844-9.038-19.051 0-36.881 11.48-36.881 30.287 0 35.172 54.711 24.67 54.711 54.223 0 13.922-13.678 17.342-21.25 17.342-15.143 0-22.959-16.365-25.401-22.471-2.198-5.618-1.221-10.503-6.35-10.503-1.71 0-3.664 2.687-3.664 6.35v21.25ZM4328.156 6513.23c0 36.393 25.401 52.025 51.536 52.025 28.577 0 43.232-21.006 43.232-23.692 0-.977-1.221-2.199-2.443-2.199-4.152 0-14.654 10.992-31.996 10.992-20.273 0-41.278-16.854-41.278-49.339 0-2.442 0-2.686 2.687-2.686h62.771c6.84 0 10.015-.977 10.015-4.397 0-3.663-8.305-38.835-44.942-38.835-29.798 0-49.582 26.379-49.582 58.13Zm20.517-24.18c0-8.55 7.327-27.845 24.913-27.845 19.295 0 26.379 20.517 26.379 26.867 0 2.199-.489 2.931-5.13 2.931-4.152 0-31.752 1.466-42.987 1.466-2.687 0-3.175-1.221-3.175-3.42ZM3151.59 3654.59c0 2.198 6.839 36.637 11.968 39.568 15.143 8.06 27.356 9.282 48.117 9.282 31.019 0 56.91-20.517 56.91-55.689 0-11.235-3.908-19.784-9.77-26.134-30.043-32.241-86.708-21.494-86.708-60.574 0-17.097 16.364-27.112 35.66-27.112 11.235 0 22.959 3.664 31.996 11.724 7.083 6.351 10.014 8.061 16.121 22.96.732 2.198 1.465 3.419 3.419 3.419 1.466 0 3.42-1.71 3.42-6.839 0-3.419-3.176-21.982-5.13-33.217-.244-1.222-2.198-1.954-3.663-1.954-1.71 0-4.153 1.954-5.618 1.954-3.42 0-19.54-8.061-35.172-8.061-33.218 0-56.665 18.807-56.665 47.873 0 16.609 8.304 27.6 22.226 35.904 31.752 19.052 74.252 17.098 74.252 50.071 0 20.761-15.876 34.928-40.546 34.928-35.171 0-47.384-25.891-53.49-40.79-.488-1.465-2.442-2.442-3.908-2.442-1.71 0-3.419 1.465-3.419 5.129Zm137.76-48.12c0 2.931 1.221 3.42 4.152 3.42 1.221 0 2.931-.245 4.641-.245 4.152 0 5.129.733 5.129 3.908 0 1.954-.977 35.416-.977 56.91v3.664c0 9.526 1.954 28.577 32.973 28.577 14.411 0 26.623-10.259 26.623-13.922 0-2.443-.733-2.931-2.442-2.931-2.687 0-9.282 4.64-18.075 4.64-18.318 0-21.005-8.548-21.005-28.332 0-12.945.977-38.591.977-45.43 0-6.839.977-8.061 7.328-8.061.244 0 8.06 1.466 25.89 1.71 1.954 0 7.816-10.991 7.816-13.434 0-1.465-.733-2.686-2.443-2.686-2.686 0-2.931 3.419-18.807 3.419h-8.549c-10.014 0-10.014-.244-10.014-4.885 0-4.64.977-9.525.977-13.922 0-4.152-.732-5.618-2.686-5.618-4.885 0-8.793 9.77-18.563 20.029-8.549 8.793-12.945 9.281-12.945 13.189Zm84.02-2.44c0 2.686 1.71 3.419 4.396 3.419h4.397c2.442 0 7.327 3.42 7.327 10.747 0 8.793-.244 4.397-.244 43.965 0 29.798 14.899 42.499 39.324 42.499 21.982 0 33.218-15.632 35.172-15.632 1.465 0 1.221 12.457 4.396 12.457 2.443 0 17.342-2.687 24.669-2.687 6.839 0 9.037-.244 9.037-4.152 0-2.443-2.442-3.176-5.862-3.176-1.954 0-4.152.245-6.35.245-5.374 0-6.839-6.106-6.839-25.646 0-33.218 1.221-60.818 1.221-62.284 0-5.617-.733-6.839-5.862-6.839-2.198 0-5.129 1.222-8.793 1.222-16.609 0-21.493 2.198-21.493 5.617 0 1.954 2.686 2.931 5.373 3.176 10.503.977 11.235 6.35 11.235 21.493l.489 33.707c0 22.715-9.526 29.798-29.798 29.798-10.747 0-27.112-7.083-27.112-39.324 0-25.646 1.221-30.042 1.221-42.988 0-11.479 0-12.212-5.617-12.212-1.466 0-10.747 1.221-13.922 1.221-14.167 0-16.365 2.198-16.365 5.374Zm143.13 48.61c0 26.135 16.121 51.048 48.117 51.048 23.204 0 32.974-15.876 35.66-15.876 1.954 0 2.199 2.442 2.199 4.152 0 4.396.732 6.839.732 9.037 0 1.954.977 2.687 2.687 2.687 2.931 0 8.304-1.954 15.388-2.443 17.83-1.465 18.807-3.175 18.807-4.396 0-4.152-6.595-3.908-10.503-5.129-7.083-2.199-8.549-7.328-8.549-29.554 0-17.586.489-45.186.489-89.151 0-20.517 3.175-47.872 3.175-53.002 0-3.663-1.221-4.885-2.931-4.885-2.931 0-6.595 2.443-9.526 3.664-19.295 8.793-27.6 8.06-27.6 11.724v.244c0 1.71 0 1.954 5.13 1.954h2.686c12.945 0 12.945 10.991 12.945 27.356 0 8.793-.488 0-.488 31.508 0 7.327-.488 8.793-1.221 8.793-3.42 0-16.853-7.083-27.845-7.083-39.568 0-59.352 30.287-59.352 59.352Zm17.586-11.48c0-22.715 12.212-40.789 33.951-40.789 8.792 0 21.249 6.106 29.065 10.747 3.42 1.954 6.839 5.373 6.839 18.807 0 4.152 0 0-.244 41.766 0 11.236-14.899 19.296-29.066 19.296-25.402 0-40.545-27.356-40.545-49.827Zm113.334-41.52c0 6.351 6.106-.488 13.922 14.411 8.793 16.609 38.103 76.205 38.103 86.952 0 18.807-22.227 40.057-22.227 42.744 0 2.686 3.176 3.175 4.641 3.175 10.991 0 10.014-.244 11.236-.244 3.663 0 7.571-14.655 21.493-51.781l21.738-57.887c4.885-13.189 10.503-26.867 13.19-30.775 2.931-4.152 10.014-2.198 10.014-6.595 0-1.954-1.71-3.175-5.129-3.175-1.954 0-10.991.244-15.144.244-4.396 0-10.991-.244-17.585-.244-4.397 0-4.641 1.954-4.641 2.931 0 8.06 15.143-1.221 15.143 13.434 0 8.304-19.295 62.039-21.249 62.039-2.199 0-7.816-15.144-12.946-26.135-11.723-26.379-14.654-31.996-14.654-38.103 0-2.686.244-6.839 3.908-6.839h3.663c3.664 0 5.862-.488 5.862-4.396 0-1.221-1.954-2.687-4.396-2.687-6.595 0-6.106.489-13.922.489-10.503 0-12.945-.489-26.135-.489-1.465 0-4.885.733-4.885 2.931ZM2145.28 4540.831c0 5.13 6.839 2.198 12.212 4.885 10.503 4.885 11.48 13.678 11.48 21.494v14.166c0 15.144-.733 29.066-.733 42.5-.488 57.642.977 73.762-9.525 77.426-10.015 3.664-10.503 3.175-10.503 7.572 0 2.686 2.442 2.686 4.885 2.686 11.968 0 16.12-1.465 29.554-1.465 6.35 0 16.12 1.954 23.692 1.954 6.35 0 7.572-3.42 7.572-4.64 0-1.71-1.71-4.397-7.328-4.397-17.586 0-19.54-19.052-19.54-25.402 0-3.175.245-6.35.245-9.77 0-13.678.488-21.25.488-35.172 0-3.908 4.885-4.64 10.014-4.64h21.25c.977 0 18.318.977 23.692 3.42 4.64 1.953 4.64 7.327 5.373 11.723.489 3.42 1.466 6.106 5.13 6.106 1.954 0 3.42-.244 3.42-6.106 0-4.64-1.71-11.724-1.71-20.028 0-8.549 2.198-15.876 2.198-20.273 0-2.93-.245-3.908-3.176-3.908-4.885 0-2.686 4.885-5.862 9.77-.732 1.221-1.954 2.443-3.42 3.42-4.64 3.175-7.082 4.396-28.088 4.396h-7.571c-3.908 0-6.84.244-10.503.244-1.71 0-3.908-.244-6.106-.244-4.397-.244-4.397-7.816-4.397-12.212 0-11.236.245-31.997.733-40.79.489-11.48-.488-15.632 16.365-15.632 8.793 0 22.47 1.222 43.964 2.931 8.305.489 11.236 8.305 11.236 16.853 0 3.42 1.465 4.885 3.42 4.885 1.953 0 3.419-1.954 3.663-4.885 1.465-12.456 3.42-20.028 3.42-24.913 0-5.13-2.443-5.862-4.153-5.862-24.425 0-22.96 1.221-55.444 1.221-36.882 0-36.149-1.465-53.002-1.465h-6.595c-5.617 0-6.35 3.42-6.35 4.152ZM2277.415 4618.258c0 3.42 2.443 3.908 4.641 3.908.977 0 1.954.244 2.687.244 10.991 0 12.212 4.64 12.212 9.037 0 4.64.489 0 .489 46.652 0 19.295-.244 24.424-9.037 26.623-2.687.732-3.176 2.198-3.176 4.152 0 1.71 0 2.93 5.374 2.93 4.152 0 12.212-1.22 25.402-1.22 5.617 0 12.945 1.22 20.76 1.22 2.687 0 2.932-2.197 2.932-3.907 0-3.664-6.35-3.175-12.457-4.152-5.618-.977-11.48-5.862-11.48-13.19 0-4.152-.488.244-.488-25.646v-25.402c0-5.129 8.549-15.143 18.074-15.143 11.724 0 12.945 5.862 18.563 5.862.733 0 8.305-3.664 8.305-13.678 0-1.221-.733-4.152-5.13-7.083-4.885-3.175-6.35-4.64-11.48-4.64-15.875 0-23.691 19.783-25.645 19.783-1.466 0-1.954-.244-1.954-10.502 0-2.443.244-4.641.244-6.595 0-2.443-.977-4.885-3.175-4.885-.245 0-2.199.488-3.42.977-20.028 9.526-32.24 8.793-32.24 14.655ZM2373.163 4661.49c0 27.111 18.563 53.978 55.932 53.978 29.31 0 58.62-18.807 58.62-55.444 0-35.66-28.333-54.223-56.91-54.223-38.347 0-57.642 28.089-57.642 55.689Zm19.295-8.305c0-30.287 18.319-40.79 32.485-40.79 30.043 0 44.453 29.066 44.453 54.957 0 27.6-15.631 40.789-32.973 40.789-20.761 0-43.965-19.296-43.965-54.956ZM2504.812 4615.815c0 1.71 1.22 2.687 4.64 2.687h2.443c5.618 0 10.503 1.71 10.503 13.19v35.171c0 7.083 0 4.64-.489 18.319-.977 29.065-12.945 15.876-12.945 23.448 0 1.465.733 2.442 3.664 2.442 2.198 0 16.853-.977 27.355-.977 11.236 0 8.793.977 17.83.977 2.199 0 4.641-.488 4.641-3.175 0-2.931-8.548-3.664-10.014-3.664-12.7-.977-13.922-10.503-13.922-24.669v-9.281c0-8.06.977-35.172 2.198-38.592.977-2.93 11.236-14.899 27.356-14.899 15.388 0 31.508 10.991 31.508 38.103v32.973c0 6.595-.489 14.9-5.374 16.365-.488.244-6.106.244-6.106 3.664 0 1.954 1.71 3.175 4.885 3.175 2.931 0 12.701-.977 18.807-.977 5.374 0 10.014 1.221 20.029 1.221 2.442 0 4.885-.488 4.885-2.442 0-1.954-.489-2.931-4.885-3.664-13.922-2.198-14.9-6.595-14.9-17.83v-5.374c0-34.927-.244-30.775-.244-34.927 0-12.945-7.327-41.034-42.01-41.034-7.816 0-15.388 3.176-21.25 6.84-8.793 5.373-9.77 10.013-11.48 10.013-.977 0-1.22-1.954-1.22-6.35 0-3.908.488-8.793.488-10.503 0-1.71-.489-2.93-2.199-2.93h-.488c-2.443 0-10.991 5.373-21.738 8.304-5.374 1.465-11.968 1.221-11.968 4.396ZM2645.742 4617.28c0 2.932 1.22 3.42 4.152 3.42 1.221 0 2.93-.244 4.64-.244 4.153 0 5.13.733 5.13 3.908 0 1.954-.977 35.416-.977 56.91v3.663c0 9.526 1.954 28.577 32.973 28.577 14.411 0 26.623-10.258 26.623-13.922 0-2.442-.732-2.93-2.442-2.93-2.687 0-9.282 4.64-18.074 4.64-18.32 0-21.006-8.549-21.006-28.333 0-12.945.977-38.59.977-45.43 0-6.839.977-8.06 7.328-8.06.244 0 8.06 1.465 25.89 1.71 1.954 0 7.816-10.991 7.816-13.434 0-1.465-.733-2.687-2.443-2.687-2.686 0-2.93 3.42-18.807 3.42h-8.548c-10.015 0-10.015-.244-10.015-4.885 0-4.64.977-9.526.977-13.922 0-4.152-.732-5.618-2.686-5.618-4.885 0-8.793 9.77-18.563 20.028-8.549 8.793-12.945 9.282-12.945 13.19ZM2160.302 4806.33c0 5.374 4.64 5.618 9.77 5.862 6.595.489 12.945 7.572 12.945 12.945 0 29.31.244 42.255.244 62.04 0 21.005-.244 40.3-.244 66.19 0 6.351-5.373 13.679-10.503 15.877-4.885 1.954-8.548 1.221-8.548 5.618 0 1.954.732 3.175 5.862 3.175 4.885 0 9.77-1.221 24.424-1.221 17.586 0 52.758 1.22 58.62 1.22 21.494 0 41.766-9.525 49.827-16.12 21.25-17.585 35.416-32.485 35.416-79.869 0-52.757-52.514-79.625-96.478-79.625-16.61 0-34.684.977-47.629.977h-21.25c-10.258 0-12.456 0-12.456 2.931Zm43.232 136.535c0-10.258.244-26.623.244-52.025 0-4.64.489-37.37.489-46.895 0-30.776.244-31.02 29.31-31.02 37.858 0 83.776 25.402 83.776 80.113 0 19.052-4.396 42.988-18.074 56.177-13.922 13.434-28.088 19.785-50.804 19.785h-4.884c-6.35 0-12.701-.977-17.83-2.443-19.54-5.618-22.227-2.687-22.227-23.692ZM2358.385 4927.722c0 27.111 18.563 53.978 55.932 53.978 29.31 0 58.62-18.807 58.62-55.444 0-35.66-28.333-54.223-56.91-54.223-38.347 0-57.642 28.089-57.642 55.689Zm19.295-8.305c0-30.287 18.319-40.79 32.485-40.79 30.043 0 44.453 29.066 44.453 54.957 0 27.6-15.631 40.789-32.973 40.789-20.761 0-43.965-19.296-43.965-54.956ZM2491.992 4927.722c0 27.111 18.563 53.978 55.932 53.978 29.31 0 58.62-18.807 58.62-55.444 0-35.66-28.333-54.223-56.91-54.223-38.347 0-57.642 28.089-57.642 55.689Zm19.295-8.305c0-30.287 18.319-40.79 32.485-40.79 30.043 0 44.453 29.066 44.453 54.957 0 27.6-15.631 40.789-32.973 40.789-20.761 0-43.965-19.296-43.965-54.956ZM2621.441 4884.49c0 3.42 2.443 3.908 4.641 3.908.977 0 1.954.244 2.687.244 10.991 0 12.212 4.64 12.212 9.037 0 4.64.489 0 .489 46.652 0 19.295-.244 24.424-9.037 26.623-2.687.732-3.176 2.198-3.176 4.152 0 1.71 0 2.93 5.374 2.93 4.152 0 12.212-1.22 25.402-1.22 5.617 0 12.945 1.22 20.76 1.22 2.687 0 2.932-2.197 2.932-3.907 0-3.664-6.35-3.175-12.457-4.152-5.618-.977-11.48-5.862-11.48-13.19 0-4.152-.488.244-.488-25.646v-25.402c0-5.129 8.549-15.143 18.074-15.143 11.724 0 12.945 5.862 18.563 5.862.733 0 8.305-3.664 8.305-13.678 0-1.221-.733-4.152-5.13-7.083-4.885-3.175-6.35-4.64-11.48-4.64-15.875 0-23.691 19.783-25.645 19.783-1.466 0-1.954-.244-1.954-10.502 0-2.443.244-4.641.244-6.595 0-2.443-.977-4.885-3.175-4.885-.245 0-2.199.488-3.42.977-20.028 9.526-32.24 8.793-32.24 14.655ZM2306.81 3219.9c0 .733 1.221 4.152 5.129 4.152 7.083 0 17.098 4.152 18.319 12.945s1.465 19.052 1.465 29.066-.244 19.295-.244 26.378v13.923c0 28.821-2.442 61.306-3.175 65.214-3.664 15.876-18.074 9.037-18.074 15.632 0 1.954 1.465 3.663 11.479 3.663 8.793 0 13.678-1.221 26.379-1.221 8.06 0 7.083.977 20.273.977 4.152 0 7.815-.488 7.815-4.396 0-1.222-2.198-2.687-4.64-2.687-5.129 0-9.282-.489-10.503-1.221-10.747-6.839-11.48-13.19-11.48-25.646v-10.503c0-9.526.977-18.319.977-30.042 0-8.549 1.71-9.038 6.107-9.038 15.631 0 24.669.733 44.941.733 1.466 0 23.692-.733 30.043-.733 13.678 0 15.387 2.199 15.387 6.595 0 10.991-.488 21.005-.488 30.043 0 3.908-.244 8.304-.244 13.189 0 5.373-.489 11.48-1.71 17.83-1.71 9.281-16.853 8.06-16.853 12.701 0 3.175 2.442 3.175 8.793 3.175 11.479 0 13.678-1.221 22.959-1.221 7.083 0 13.189 1.221 18.807 1.221 8.793 0 11.968-.244 11.968-2.687 0-2.442-2.198-2.686-2.931-2.686-6.594-.733-20.517-3.664-20.517-18.075 0-6.839-.977-9.281-.977-22.47v-9.038c0-13.189.489-24.913.489-36.637 0-18.563.488-35.904.733-59.352 0-8.549 4.396-15.143 13.922-15.143.977 0 3.419 0 3.419-3.176 0-2.442-3.419-3.175-5.617-3.175-8.793 0-13.19.489-19.052.489-9.525 0-17.83-.489-23.692-.489-5.862 0-9.525.489-9.525 2.443 0 9.525 20.516-4.885 20.516 29.309v13.19c0 32.485-.244 33.95-2.686 33.95-31.753-.244-40.79-.488-46.163-.488-35.905 0-31.997.244-40.057.244-7.083 0-8.304-1.221-8.304-9.526 0-4.885.488-11.968.488-22.471v-9.037c0-9.525 1.71-30.531 9.282-30.531 7.816 0 8.548-1.954 8.548-4.152 0-3.175-3.663-3.419-5.373-3.419-15.388 0-10.991.488-21.494.488-13.678 0-20.761-.977-27.6-.977-3.175 0-6.839 0-6.839 2.687Zm200.04 149.97c0 6.595 1.71 12.701 6.106 17.097 5.618 5.862 12.213 7.328 22.715 7.328 17.586 0 31.264-15.144 32.241-15.144 1.221 0 5.374 13.434 19.54 13.434 10.258 0 15.388-1.465 15.388-5.129 0-8.793-18.563 5.862-18.563-26.623 0-18.319 1.221-13.678 1.221-45.43 0-9.282 0-30.775-36.637-30.775-21.006 0-41.034 14.41-41.034 26.867 0 8.304 12.213 9.525 15.144 9.525 2.686 0 4.396-.732 4.396-4.884 0-2.199-.977-5.13-.977-8.793 0-6.107 2.198-14.655 17.586-14.655 6.839 0 23.692 5.129 23.692 26.378 0 3.908-.489 7.816-.489 12.701 0 3.176-1.465 3.42-4.152 3.908-30.531 5.374-56.177 7.816-56.177 34.195Zm19.051-3.664c0-20.272 21.494-23.203 37.126-25.89.733 0 1.71-.488 2.443-.488.977 0 1.709.732 1.709 2.198v17.586c0 8.06 0 24.913-22.47 24.913-12.213 0-18.808-7.327-18.808-18.319Zm86.709-144.836c0 1.71 1.221 1.954 2.686 1.954 4.885 0 8.06.245 9.77.977 2.931 1.222 5.862 8.06 5.862 15.632 0 31.02-.977 83.044-.977 103.806v18.074c0 2.442.244 4.396.244 6.35 0 8.549-.732 13.19-6.594 15.876-3.664 1.71-8.305.977-8.305 5.374 0 .733 1.221 2.442 3.908 2.442 5.374 0 8.549-1.954 19.784-1.954 7.572 0 19.54 1.71 24.669 1.71 4.641 0 7.572-.733 7.572-3.419 0-1.71-1.465-3.664-3.175-3.664-18.563 0-19.784-10.014-19.784-17.83v-72.786c0-12.212.488-11.724.488-32.485v-13.678c0-22.226 1.954-33.462 1.954-37.126 0-2.442-.488-4.64-2.931-4.64-4.885 0-12.212 4.396-18.563 6.839-13.677 5.373-16.608 3.908-16.608 8.548Zm68.14 0c0 1.71 1.221 1.954 2.686 1.954 4.885 0 8.061.245 9.77.977 2.931 1.222 5.862 8.06 5.862 15.632 0 31.02-.977 83.044-.977 103.806v18.074c0 2.442.245 4.396.245 6.35 0 8.549-.733 13.19-6.595 15.876-3.664 1.71-8.305.977-8.305 5.374 0 .733 1.222 2.442 3.908 2.442 5.374 0 8.549-1.954 19.785-1.954 7.571 0 19.539 1.71 24.669 1.71 4.64 0 7.571-.733 7.571-3.419 0-1.71-1.465-3.664-3.175-3.664-18.563 0-19.784-10.014-19.784-17.83v-72.786c0-12.212.488-11.724.488-32.485v-13.678c0-22.226 1.954-33.462 1.954-37.126 0-2.442-.488-4.64-2.931-4.64-4.885 0-12.212 4.396-18.562 6.839-13.678 5.373-16.609 3.908-16.609 8.548Zm-936.45 808.84c0 2.199 6.839 36.638 11.969 39.569 15.143 8.06 27.355 9.281 48.116 9.281 31.02 0 56.91-20.517 56.91-55.689 0-11.235-3.908-19.784-9.77-26.134-30.042-32.241-86.708-21.494-86.708-60.574 0-17.097 16.365-27.111 35.661-27.111 11.235 0 22.959 3.664 31.996 11.724 7.083 6.35 10.014 8.06 16.12 22.959.733 2.198 1.466 3.42 3.42 3.42 1.465 0 3.419-1.71 3.419-6.839 0-3.42-3.175-21.983-5.129-33.218-.244-1.221-2.198-1.954-3.664-1.954-1.709 0-4.152 1.954-5.617 1.954-3.42 0-19.54-8.06-35.172-8.06-33.218 0-56.666 18.807-56.666 47.872 0 16.609 8.305 27.6 22.227 35.905 31.752 19.051 74.251 17.097 74.251 50.071 0 20.761-15.876 34.927-40.545 34.927-35.171 0-47.384-25.89-53.49-40.789-.489-1.466-2.443-2.443-3.908-2.443-1.71 0-3.42 1.466-3.42 5.129Zm137.76-48.12c0 2.93 1.222 3.419 4.153 3.419 1.221 0 2.931-.244 4.64-.244 4.152 0 5.129.732 5.129 3.908 0 1.954-.977 35.416-.977 56.909v3.664c0 9.526 1.954 28.577 32.974 28.577 14.411 0 26.623-10.258 26.623-13.922 0-2.442-.733-2.931-2.442-2.931-2.687 0-9.282 4.641-18.075 4.641-18.318 0-21.005-8.549-21.005-28.333 0-12.945.977-38.591.977-45.43 0-6.839.977-8.06 7.327-8.06.245 0 8.06 1.465 25.891 1.709 1.954 0 7.816-10.991 7.816-13.433 0-1.466-.733-2.687-2.443-2.687-2.687 0-2.931 3.42-18.807 3.42h-8.549c-10.014 0-10.014-.245-10.014-4.885 0-4.641.977-9.526.977-13.923 0-4.152-.733-5.617-2.687-5.617-4.885 0-8.793 9.77-18.563 20.028-8.548 8.793-12.945 9.282-12.945 13.19Zm88.66 73.03c0 6.594 1.71 12.701 6.107 17.097 5.617 5.862 12.212 7.327 22.715 7.327 17.585 0 31.263-15.143 32.24-15.143 1.222 0 5.374 13.434 19.54 13.434 10.259 0 15.388-1.466 15.388-5.129 0-8.793-18.563 5.861-18.563-26.624 0-18.318 1.221-13.677 1.221-45.43 0-9.281 0-30.775-36.637-30.775-21.005 0-41.034 14.411-41.034 26.867 0 8.305 12.213 9.526 15.144 9.526 2.686 0 4.396-.733 4.396-4.885 0-2.198-.977-5.129-.977-8.793 0-6.106 2.198-14.655 17.586-14.655 6.839 0 23.692 5.13 23.692 26.379 0 3.908-.488 7.816-.488 12.701 0 3.175-1.466 3.419-4.153 3.908-30.531 5.373-56.177 7.816-56.177 34.195Zm19.052-3.664c0-20.273 21.494-23.204 37.125-25.89.733 0 1.71-.489 2.443-.489.977 0 1.71.733 1.71 2.198v17.586c0 8.06 0 24.914-22.471 24.914-12.213 0-18.807-7.328-18.807-18.319Zm90.618-68.636c0 .977 1.221 1.954 2.442 2.443 5.374 1.954 14.167-1.466 14.167 18.807v21.494c0 42.255-.489 40.789-10.015 43.964-2.198.733-3.663 2.931-3.663 4.641 0 2.442 3.663 3.175 9.77 3.175 4.152 0 7.083-.488 17.341-.488 9.282 0 7.083.488 17.342.488 1.221 0 2.687.244 3.664.244 3.908 0 4.152-2.686 4.152-4.152 0-3.419-3.175-3.419-7.328-3.663-6.106-.489-13.678-1.954-13.678-17.831v-66.924c0-4.152 1.466-8.792 1.466-11.723 0-3.42-2.198-4.641-3.664-4.641-3.908 0-3.419.733-12.212 4.396-13.678 5.618-19.784 5.862-19.784 9.77Zm13.922-51.048c0 3.908 4.885 13.923 11.968 13.923 2.198 0 11.48-7.572 11.48-13.434 0-4.885-5.618-13.922-11.236-13.922-5.373 0-12.212 10.258-12.212 13.433Zm50.798 51.298c0 3.419 2.443 3.907 4.641 3.907.977 0 1.954.245 2.687.245 10.991 0 12.212 4.64 12.212 9.037 0 4.641.489 0 .489 46.651 0 19.296-.244 24.425-9.037 26.623-2.687.733-3.176 2.199-3.176 4.153 0 1.709 0 2.93 5.374 2.93 4.152 0 12.212-1.221 25.402-1.221 5.617 0 12.945 1.221 20.761 1.221 2.686 0 2.931-2.198 2.931-3.907 0-3.664-6.351-3.176-12.457-4.153-5.618-.977-11.48-5.862-11.48-13.189 0-4.152-.488.244-.488-25.646v-25.402c0-5.129 8.549-15.143 18.074-15.143 11.724 0 12.945 5.862 18.563 5.862.733 0 8.305-3.664 8.305-13.678 0-1.221-.733-4.152-5.13-7.083-4.885-3.176-6.35-4.641-11.479-4.641-15.876 0-23.692 19.784-25.646 19.784-1.466 0-1.954-.244-1.954-10.503 0-2.442.244-4.64.244-6.594 0-2.443-.977-4.885-3.175-4.885-.245 0-2.199.488-3.42.977-20.028 9.525-32.241 8.793-32.241 14.655Zm95.75 45.92c0 32.729 20.272 52.025 50.559 52.025 31.508 0 44.453-20.761 44.453-22.959 0-1.222-1.221-2.443-2.687-2.443-3.175 0-12.7 12.701-32.24 12.701-23.692 0-41.767-22.227-41.767-47.14 0-33.95 19.296-40.545 24.181-40.545 12.945 0 26.867 8.06 32.485 12.945 4.152 3.42 4.641 7.816 8.06 7.816 1.954 0 2.687-5.129 2.687-10.747 0-4.152-.245-8.548-.489-11.479-.488-4.641-18.563-8.061-28.577-8.061-34.683 0-56.665 28.089-56.665 57.887Zm112.6 26.13c0 6.594 1.71 12.701 6.106 17.097 5.618 5.862 12.213 7.327 22.715 7.327 17.586 0 31.264-15.143 32.241-15.143 1.221 0 5.373 13.434 19.54 13.434 10.258 0 15.387-1.466 15.387-5.129 0-8.793-18.562 5.861-18.562-26.624 0-18.318 1.221-13.677 1.221-45.43 0-9.281 0-30.775-36.637-30.775-21.006 0-41.034 14.411-41.034 26.867 0 8.305 12.212 9.526 15.143 9.526 2.687 0 4.397-.733 4.397-4.885 0-2.198-.977-5.129-.977-8.793 0-6.106 2.198-14.655 17.586-14.655 6.839 0 23.692 5.13 23.692 26.379 0 3.908-.489 7.816-.489 12.701 0 3.175-1.465 3.419-4.152 3.908-30.531 5.373-56.177 7.816-56.177 34.195Zm19.051-3.664c0-20.273 21.494-23.204 37.126-25.89.733 0 1.71-.489 2.443-.489.977 0 1.709.733 1.709 2.198v17.586c0 8.06 0 24.914-22.471 24.914-12.212 0-18.807-7.328-18.807-18.319Zm95.249 13.924c0 6.106 2.931 5.862 8.793 7.816 3.664 1.221 14.655 6.595 27.356 6.595 14.655 0 20.761-4.641 24.18-7.572 7.084-6.35 12.945-16.12 12.945-25.402 0-19.051-6.594-26.379-29.798-35.171-11.724-4.397-26.134-7.572-26.134-21.983 0-7.327 7.083-12.456 16.364-12.456 21.983 0 25.402 22.47 29.554 22.47 3.42 0 4.397-1.709 4.397-7.083 0-2.687-.977-13.922-.977-14.655 0-1.709-2.443-9.037-27.845-9.037-19.051 0-36.881 11.48-36.881 30.287 0 35.172 54.712 24.669 54.712 54.223 0 13.922-13.678 17.342-21.25 17.342-15.143 0-22.959-16.365-25.402-22.471-2.198-5.618-1.221-10.503-6.35-10.503-1.71 0-3.664 2.687-3.664 6.351v21.249Zm92.09-36.88c0 36.393 25.401 52.024 51.536 52.024 28.577 0 43.232-21.005 43.232-23.692 0-.977-1.221-2.198-2.443-2.198-4.152 0-14.655 10.991-31.996 10.991-20.273 0-41.278-16.853-41.278-49.338 0-2.442 0-2.686 2.687-2.686h62.771c6.839 0 10.015-.977 10.015-4.397 0-3.664-8.305-38.835-44.942-38.835-29.798 0-49.582 26.378-49.582 58.131Zm20.516-24.181c0-8.549 7.328-27.844 24.914-27.844 19.295 0 26.378 20.517 26.378 26.867 0 2.198-.488 2.931-5.129 2.931-4.152 0-31.752 1.466-42.987 1.466-2.687 0-3.176-1.222-3.176-3.42ZM3050.19 2892.66c0 2.14 6.655 35.652 11.646 38.504 14.736 7.843 26.62 9.031 46.822 9.031 30.185 0 55.378-19.964 55.378-54.189 0-10.933-3.803-19.252-9.507-25.432-29.234-31.373-84.374-20.915-84.374-58.943 0-16.637 15.924-26.382 34.7-26.382 10.933 0 22.342 3.565 31.136 11.409 6.892 6.179 9.744 7.843 15.686 22.341.713 2.139 1.426 3.327 3.327 3.327 1.427 0 3.328-1.663 3.328-6.654 0-3.328-3.09-21.391-4.991-32.324-.238-1.189-2.139-1.902-3.565-1.902-1.664 0-4.041 1.902-5.467 1.902-3.327 0-19.014-7.844-34.225-7.844-32.324 0-55.141 18.301-55.141 46.585 0 16.162 8.081 26.857 21.629 34.938 30.898 18.539 72.253 16.637 72.253 48.723 0 20.203-15.449 33.988-39.454 33.988-34.225 0-46.109-25.194-52.051-39.692-.475-1.426-2.377-2.377-3.803-2.377-1.663 0-3.327 1.426-3.327 4.991Zm134.05-46.82c0 2.852 1.189 3.327 4.041 3.327 1.188 0 2.852-.238 4.516-.238 4.04 0 4.991.713 4.991 3.803 0 1.902-.951 34.463-.951 55.378v3.565c0 9.27 1.902 27.808 32.086 27.808 14.023 0 25.907-9.982 25.907-13.547 0-2.377-.713-2.852-2.377-2.852-2.614 0-9.032 4.516-17.588 4.516-17.825 0-20.44-8.319-20.44-27.571 0-12.596.951-37.552.951-44.207 0-6.655.951-7.843 7.13-7.843.238 0 7.843 1.426 25.194 1.663 1.901 0 7.605-10.695 7.605-13.072 0-1.426-.713-2.614-2.377-2.614-2.614 0-2.852 3.327-18.3 3.327h-8.319c-9.745 0-9.745-.237-9.745-4.753s.951-9.27.951-13.548c0-4.04-.713-5.466-2.614-5.466-4.754 0-8.557 9.507-18.064 19.489-8.318 8.556-12.597 9.032-12.597 12.835Zm86.27 71.06c0 6.418 1.664 12.359 5.942 16.638 5.467 5.704 11.884 7.13 22.104 7.13 17.113 0 30.422-14.736 31.373-14.736 1.188 0 5.229 13.072 19.014 13.072 9.982 0 14.974-1.426 14.974-4.991 0-8.556-18.064 5.704-18.064-25.907 0-17.825 1.189-13.309 1.189-44.207 0-9.032 0-29.947-35.652-29.947-20.44 0-39.929 14.023-39.929 26.144 0 8.081 11.884 9.269 14.736 9.269 2.614 0 4.278-.713 4.278-4.753 0-2.139-.951-4.991-.951-8.556 0-5.942 2.139-14.261 17.113-14.261 6.655 0 23.054 4.991 23.054 25.669 0 3.803-.475 7.606-.475 12.359 0 3.09-1.426 3.327-4.04 3.803-29.71 5.229-54.666 7.605-54.666 33.274Zm18.539-3.565c0-19.727 20.915-22.579 36.127-25.193.713 0 1.663-.476 2.376-.476.951 0 1.664.713 1.664 2.139v17.113c0 7.843 0 24.243-21.866 24.243-11.884 0-18.301-7.13-18.301-17.826Zm88.181-66.785c0 .95 1.189 1.901 2.377 2.376 5.229 1.902 13.785-1.426 13.785 18.301v20.916c0 41.117-.475 39.691-9.744 42.781-2.139.713-3.566 2.852-3.566 4.516 0 2.377 3.566 3.09 9.507 3.09 4.041 0 6.893-.476 16.875-.476 9.032 0 6.893.476 16.875.476 1.189 0 2.615.237 3.565.237 3.803 0 4.041-2.614 4.041-4.04 0-3.328-3.09-3.328-7.13-3.565-5.942-.476-13.31-1.902-13.31-17.35v-65.123c0-4.041 1.426-8.557 1.426-11.409 0-3.327-2.139-4.516-3.565-4.516-3.803 0-3.328.713-11.884 4.279-13.31 5.466-19.252 5.704-19.252 9.507Zm13.548-49.674c0 3.802 4.753 13.547 11.646 13.547 2.139 0 11.171-7.368 11.171-13.072 0-4.754-5.467-13.548-10.933-13.548-5.229 0-11.884 9.983-11.884 13.073Zm49.432 49.914c0 3.328 2.377 3.803 4.516 3.803.951 0 1.901.238 2.614.238 10.696 0 11.884 4.516 11.884 8.794 0 4.515.476 0 .476 45.396 0 18.776-.238 23.767-8.794 25.906-2.615.713-3.09 2.139-3.09 4.041 0 1.663 0 2.852 5.229 2.852 4.04 0 11.883-1.189 24.718-1.189 5.466 0 12.597 1.189 20.202 1.189 2.615 0 2.852-2.139 2.852-3.803 0-3.565-6.179-3.09-12.121-4.041-5.467-.95-11.171-5.704-11.171-12.834 0-4.041-.475.238-.475-24.956v-24.718c0-4.991 8.318-14.736 17.588-14.736 11.408 0 12.596 5.704 18.063 5.704.713 0 8.081-3.565 8.081-13.309 0-1.189-.713-4.041-4.991-6.893-4.754-3.09-6.18-4.516-11.171-4.516-15.449 0-23.054 19.252-24.956 19.252-1.426 0-1.901-.238-1.901-10.22 0-2.377.237-4.516.237-6.417 0-2.377-.95-4.754-3.089-4.754-.238 0-2.139.475-3.328.951-19.489 9.269-31.373 8.556-31.373 14.26Zm96.97 80.1c0 5.941 2.853 5.704 8.557 7.605 3.565 1.189 14.26 6.417 26.619 6.417 14.261 0 20.203-4.515 23.53-7.367 6.893-6.18 12.597-15.687 12.597-24.719 0-18.538-6.417-25.669-28.996-34.225-11.409-4.278-25.432-7.368-25.432-21.391 0-7.13 6.893-12.121 15.925-12.121 21.39 0 24.718 21.866 28.758 21.866 3.328 0 4.278-1.664 4.278-6.892 0-2.615-.95-13.548-.95-14.261 0-1.664-2.377-8.794-27.095-8.794-18.539 0-35.889 11.171-35.889 29.472 0 34.225 53.239 24.005 53.239 52.764 0 13.547-13.31 16.874-20.678 16.874-14.736 0-22.341-15.924-24.718-21.866-2.139-5.466-1.188-10.22-6.179-10.22-1.664 0-3.566 2.615-3.566 6.18v20.678Z" fill-rule="nonzero"/><g fill-rule="nonzero"><path d="M1518.549 1642.548c0 5.374 4.64 5.618 9.77 5.862 6.595.489 12.945 7.572 12.945 12.945 0 29.31.244 42.255.244 62.04 0 21.005-.244 40.3-.244 66.19 0 6.351-5.373 13.679-10.503 15.877-4.885 1.954-8.548 1.221-8.548 5.618 0 1.954.732 3.175 5.862 3.175 4.885 0 9.77-1.221 24.424-1.221 17.586 0 52.758 1.22 58.62 1.22 21.494 0 41.766-9.525 49.827-16.12 21.25-17.585 35.416-32.485 35.416-79.869 0-52.757-52.514-79.625-96.478-79.625-16.61 0-34.684.977-47.629.977h-21.25c-10.258 0-12.456 0-12.456 2.931Zm43.232 136.535c0-10.258.244-26.623.244-52.025 0-4.64.489-37.37.489-46.895 0-30.776.244-31.02 29.31-31.02 37.858 0 83.776 25.402 83.776 80.113 0 19.052-4.396 42.988-18.074 56.177-13.922 13.434-28.088 19.785-50.804 19.785h-4.884c-6.35 0-12.701-.977-17.83-2.443-19.54-5.618-22.227-2.687-22.227-23.692ZM1715.899 1720.464c0 .977 1.221 1.953 2.442 2.442 5.374 1.954 14.167-1.465 14.167 18.807v21.494c0 42.255-.489 40.79-10.014 43.965-2.199.732-3.664 2.93-3.664 4.64 0 2.443 3.664 3.175 9.77 3.175 4.152 0 7.083-.488 17.341-.488 9.282 0 7.084.488 17.342.488 1.221 0 2.687.245 3.664.245 3.908 0 4.152-2.687 4.152-4.152 0-3.42-3.175-3.42-7.327-3.664-6.107-.489-13.678-1.954-13.678-17.83v-66.924c0-4.152 1.465-8.793 1.465-11.724 0-3.42-2.198-4.64-3.664-4.64-3.908 0-3.42.732-12.212 4.396-13.678 5.617-19.784 5.862-19.784 9.77Zm13.922-51.048c0 3.908 4.885 13.922 11.968 13.922 2.198 0 11.48-7.572 11.48-13.434 0-4.885-5.618-13.922-11.236-13.922-5.373 0-12.212 10.258-12.212 13.434ZM1784.048 1718.265c0 1.71 1.22 2.687 4.64 2.687h2.443c5.618 0 10.503 1.71 10.503 13.19v35.171c0 7.083 0 4.64-.489 18.319-.977 29.065-12.945 15.876-12.945 23.448 0 1.465.733 2.442 3.664 2.442 2.198 0 16.853-.977 27.355-.977 11.236 0 8.793.977 17.83.977 2.199 0 4.641-.488 4.641-3.175 0-2.931-8.548-3.664-10.014-3.664-12.7-.977-13.922-10.503-13.922-24.669v-9.281c0-8.06.977-35.172 2.198-38.592.977-2.93 11.236-14.899 27.356-14.899 15.388 0 31.508 10.991 31.508 38.103v32.973c0 6.595-.489 14.9-5.374 16.365-.488.244-6.106.244-6.106 3.664 0 1.954 1.71 3.175 4.885 3.175 2.931 0 12.701-.977 18.807-.977 5.374 0 10.014 1.221 20.029 1.221 2.442 0 4.885-.488 4.885-2.442 0-1.954-.489-2.931-4.885-3.664-13.922-2.198-14.9-6.595-14.9-17.83v-5.374c0-34.927-.244-30.775-.244-34.927 0-12.945-7.327-41.034-42.01-41.034-7.816 0-15.388 3.176-21.25 6.84-8.793 5.373-9.77 10.013-11.48 10.013-.977 0-1.22-1.954-1.22-6.35 0-3.908.488-8.793.488-10.503 0-1.71-.489-2.93-2.199-2.93h-.488c-2.443 0-10.991 5.373-21.738 8.304-5.374 1.465-11.968 1.221-11.968 4.396ZM1929.619 1720.464c0 .977 1.221 1.953 2.442 2.442 5.374 1.954 14.167-1.465 14.167 18.807v21.494c0 42.255-.489 40.79-10.014 43.965-2.199.732-3.664 2.93-3.664 4.64 0 2.443 3.664 3.175 9.77 3.175 4.152 0 7.083-.488 17.341-.488 9.282 0 7.084.488 17.342.488 1.221 0 2.687.245 3.664.245 3.908 0 4.152-2.687 4.152-4.152 0-3.42-3.175-3.42-7.327-3.664-6.107-.489-13.678-1.954-13.678-17.83v-66.924c0-4.152 1.465-8.793 1.465-11.724 0-3.42-2.198-4.64-3.664-4.64-3.908 0-3.42.732-12.212 4.396-13.678 5.617-19.784 5.862-19.784 9.77Zm13.922-51.048c0 3.908 4.885 13.922 11.968 13.922 2.198 0 11.48-7.572 11.48-13.434 0-4.885-5.618-13.922-11.236-13.922-5.373 0-12.212 10.258-12.212 13.434ZM1997.762 1718.265c0 1.71 1.22 2.687 4.64 2.687h2.443c5.618 0 10.503 1.71 10.503 13.19v35.171c0 7.083 0 4.64-.489 18.319-.977 29.065-12.945 15.876-12.945 23.448 0 1.465.733 2.442 3.664 2.442 2.198 0 16.853-.977 27.355-.977 11.236 0 8.793.977 17.83.977 2.199 0 4.641-.488 4.641-3.175 0-2.931-8.548-3.664-10.014-3.664-12.7-.977-13.922-10.503-13.922-24.669v-9.281c0-8.06.977-35.172 2.198-38.592.977-2.93 11.236-14.899 27.356-14.899 15.388 0 31.508 10.991 31.508 38.103v32.973c0 6.595-.489 14.9-5.374 16.365-.488.244-6.106.244-6.106 3.664 0 1.954 1.71 3.175 4.885 3.175 2.931 0 12.701-.977 18.807-.977 5.374 0 10.014 1.221 20.029 1.221 2.442 0 4.885-.488 4.885-2.442 0-1.954-.489-2.931-4.885-3.664-13.922-2.198-14.9-6.595-14.9-17.83v-5.374c0-34.927-.244-30.775-.244-34.927 0-12.945-7.327-41.034-42.01-41.034-7.816 0-15.388 3.176-21.25 6.84-8.793 5.373-9.77 10.013-11.48 10.013-.977 0-1.22-1.954-1.22-6.35 0-3.908.488-8.793.488-10.503 0-1.71-.489-2.93-2.199-2.93h-.488c-2.443 0-10.991 5.373-21.738 8.304-5.374 1.465-11.968 1.221-11.968 4.396ZM2141.624 1837.214c0 21.25 26.378 26.867 45.43 26.867 25.157 0 46.163-10.258 52.513-26.134 1.466-3.42 1.71-7.328 1.71-11.48 0-20.76-23.936-21.494-35.416-21.494h-11.236c-20.272 0-32.729-.732-32.729-12.7 0-11.48 10.503-11.969 10.991-11.969 3.664 0 7.816 2.199 18.808 2.199 22.47 0 40.3-16.365 40.3-37.126 0-4.885-2.686-12.213-2.686-12.213 3.42-1.465 7.327-3.42 10.014-7.571 2.198-3.42 5.373-13.678 5.373-22.227 0-1.954-2.442-1.954-3.175-1.954-4.152 0-2.442 9.037-8.793 11.724-4.64 1.954-8.793 4.397-12.456 4.397-3.42 0-9.282-9.77-30.776-9.77-34.927 0-42.255 24.669-42.255 37.37 0 25.646 16.61 28.82 16.61 32.729 0 2.442-12.702 7.571-12.702 24.18 0 10.747 8.06 12.945 8.06 14.411 0 2.442-17.585 5.862-17.585 20.761Zm14.166-1.465c0-10.259 9.037-16.365 11.235-16.365 2.687 0 17.098 3.42 30.043 3.42h2.198c13.922 0 27.112 0 27.112 12.456 0 13.678-20.517 22.227-39.324 22.227-16.12 0-31.264-6.35-31.264-21.738Zm10.014-93.059c0-19.784 10.503-29.554 21.738-29.554 16.61 0 25.402 17.83 25.402 34.683 0 15.144-7.327 29.066-22.715 29.066-14.166 0-24.425-14.655-24.425-34.195ZM1568.619 1909.757c0 7.572 23.692-2.198 23.692 24.18 0 6.596.244 15.633.244 41.279 0 27.111-.244 61.306-.244 76.938 0 26.867-20.517 16.12-20.517 24.669 0 3.175 2.687 3.908 5.13 3.908 2.686 0 15.143-.977 26.867-.977 2.442 0 33.95 1.71 34.927 1.71 3.42 0 4.397-1.466 4.397-3.908 0-8.06-30.043 2.198-30.043-27.356 0-3.42-.244 0-.244-34.439 0-17.342.488-17.342 4.152-17.342h20.028c2.931 0 7.816 2.443 18.075 19.052 12.456 20.272 30.775 51.048 43.72 58.62 8.793 5.128 20.273 5.617 21.005 5.617 17.586 0 18.075-1.954 18.075-6.106 0-1.954-1.954-2.931-3.42-2.931-12.7 0-21.493-10.259-22.47-11.48-10.015-10.503-48.606-64.481-48.606-68.39 0-3.907 30.531-10.502 30.531-46.65 0-26.135-25.402-41.034-53.246-41.034-8.549 0-13.922.732-24.425.732h-40.545c-5.13 0-7.083.733-7.083 3.908Zm44.209 39.08v-6.839c0-21.982.488-26.867 12.945-26.867 35.172 0 47.628 23.203 47.628 40.057 0 17.341-8.793 33.95-38.59 33.95h-9.527c-4.64 0-7.327-.244-10.502-2.198-1.954-1.221-1.954-6.106-1.954-38.103ZM1741.547 2030.172c0 27.111 18.563 53.978 55.932 53.978 29.31 0 58.62-18.807 58.62-55.444 0-35.66-28.333-54.223-56.91-54.223-38.347 0-57.642 28.089-57.642 55.689Zm19.295-8.305c0-30.287 18.319-40.79 32.485-40.79 30.043 0 44.453 29.066 44.453 54.957 0 27.6-15.631 40.789-32.973 40.789-20.761 0-43.965-19.296-43.965-54.956ZM1875.15 2030.172c0 27.111 18.563 53.978 55.932 53.978 29.31 0 58.62-18.807 58.62-55.444 0-35.66-28.333-54.223-56.91-54.223-38.347 0-57.642 28.089-57.642 55.689Zm19.295-8.305c0-30.287 18.319-40.79 32.485-40.79 30.043 0 44.453 29.066 44.453 54.957 0 27.6-15.631 40.789-32.973 40.789-20.761 0-43.965-19.296-43.965-54.956ZM2006.802 1984.986c0 7.816 16.364-2.931 16.364 14.166 0 10.014.245 20.273.245 29.798 0 17.342-.489 31.997-1.954 37.126-3.42 10.503-11.236 5.618-11.236 10.747 0 1.71.244 3.664 5.862 3.664 3.664 0 9.526-.733 19.296-.733 10.502 0 16.853.733 20.517.733 5.129 0 5.129-.977 5.129-3.664 0-5.618-20.517 2.931-20.517-22.47v-49.339c0-9.526 12.7-17.83 26.379-17.83 15.876 0 24.913 11.724 24.913 28.577 0 1.466.488 0 .488 15.388 0 26.378-.244 23.203-.244 26.623 0 14.166-3.908 14.655-5.617 15.143-4.885 1.954-5.618 2.687-5.618 4.885 0 2.442 3.664 3.175 5.373 3.175 2.199 0 17.83-1.221 22.227-1.221 7.083 0 13.678 1.221 17.83 1.221 1.465 0 4.64 0 4.64-2.686 0-.733-.732-3.42-4.396-3.908-14.899-2.199-16.853-9.77-16.853-23.204v-20.761c0-24.913-1.465-27.844-1.465-31.02 0-2.198 12.945-13.189 25.157-13.189 7.328 0 14.167 2.687 18.319 7.572 7.816 9.525 9.281 6.594 9.281 60.573v3.908c0 4.885-.244 9.282-.977 11.236-1.954 4.64-11.235 3.908-11.235 8.793 0 1.953 3.175 2.442 5.862 2.442 5.129 0 10.747-.977 17.586-.977 4.885 0 12.945.977 16.12.977 2.687 0 8.06 0 8.06-3.664 0-4.152-7.327-4.152-9.281-4.64-6.35-1.954-6.84-9.282-6.84-22.227v-7.816c0-8.549-.243-19.051-1.465-31.02-1.954-18.807-13.433-36.637-38.835-36.637-20.028 0-31.752 20.029-33.462 20.029-2.443 0-4.885-19.296-31.264-19.296-24.913 0-31.264 17.586-32.973 17.586-1.466 0-1.466-1.466-1.466-2.931 0-1.954 1.221-7.327 1.221-10.258 0-3.908-.732-7.084-2.93-7.084-4.153 0-5.618 1.466-10.747 3.664-10.503 4.64-21.494 3.42-21.494 8.549Z"/></g><g fill-rule="nonzero"><path d="M2841.105 1642.548c0 5.374 4.64 5.618 9.77 5.862 6.595.489 12.945 7.572 12.945 12.945 0 29.31.244 42.255.244 62.04 0 21.005-.244 40.3-.244 66.19 0 6.351-5.373 13.679-10.503 15.877-4.885 1.954-8.548 1.221-8.548 5.618 0 1.954.732 3.175 5.862 3.175 4.885 0 9.77-1.221 24.424-1.221 17.586 0 52.758 1.22 58.62 1.22 21.494 0 41.766-9.525 49.827-16.12 21.25-17.585 35.416-32.485 35.416-79.869 0-52.757-52.514-79.625-96.478-79.625-16.61 0-34.684.977-47.629.977h-21.25c-10.258 0-12.456 0-12.456 2.931Zm43.232 136.535c0-10.258.244-26.623.244-52.025 0-4.64.489-37.37.489-46.895 0-30.776.244-31.02 29.31-31.02 37.858 0 83.776 25.402 83.776 80.113 0 19.052-4.396 42.988-18.074 56.177-13.922 13.434-28.088 19.785-50.804 19.785h-4.884c-6.35 0-12.701-.977-17.83-2.443-19.54-5.618-22.227-2.687-22.227-23.692ZM3035.038 1720.708c0 3.42 2.443 3.908 4.641 3.908.977 0 1.954.244 2.687.244 10.991 0 12.212 4.64 12.212 9.037 0 4.64.489 0 .489 46.652 0 19.295-.244 24.424-9.037 26.623-2.687.732-3.176 2.198-3.176 4.152 0 1.71 0 2.93 5.374 2.93 4.152 0 12.212-1.22 25.402-1.22 5.617 0 12.945 1.22 20.76 1.22 2.687 0 2.932-2.197 2.932-3.907 0-3.664-6.35-3.175-12.457-4.152-5.618-.977-11.48-5.862-11.48-13.19 0-4.152-.488.244-.488-25.646v-25.402c0-5.129 8.549-15.143 18.074-15.143 11.724 0 12.945 5.862 18.563 5.862.733 0 8.305-3.664 8.305-13.678 0-1.221-.733-4.152-5.13-7.083-4.885-3.175-6.35-4.64-11.48-4.64-15.875 0-23.691 19.783-25.645 19.783-1.466 0-1.954-.244-1.954-10.502 0-2.443.244-4.641.244-6.595 0-2.443-.977-4.885-3.175-4.885-.245 0-2.199.488-3.42.977-20.028 9.526-32.24 8.793-32.24 14.655ZM3132.984 1792.76c0 6.596 1.71 12.702 6.106 17.098 5.618 5.862 12.213 7.328 22.715 7.328 17.586 0 31.264-15.144 32.24-15.144 1.222 0 5.374 13.434 19.54 13.434 10.26 0 15.388-1.466 15.388-5.13 0-8.792-18.562 5.863-18.562-26.622 0-18.319 1.22-13.678 1.22-45.43 0-9.282 0-30.776-36.636-30.776-21.006 0-41.034 14.411-41.034 26.868 0 8.304 12.212 9.525 15.143 9.525 2.687 0 4.397-.732 4.397-4.885 0-2.198-.977-5.129-.977-8.793 0-6.106 2.198-14.654 17.586-14.654 6.839 0 23.692 5.129 23.692 26.378 0 3.908-.489 7.816-.489 12.701 0 3.175-1.465 3.42-4.152 3.908-30.531 5.374-56.177 7.816-56.177 34.195Zm19.051-3.663c0-20.272 21.494-23.203 37.126-25.89.733 0 1.71-.489 2.442-.489.977 0 1.71.733 1.71 2.199v17.586c0 8.06 0 24.913-22.47 24.913-12.213 0-18.808-7.328-18.808-18.319ZM3235.323 1711.915c0 2.93 1.465 2.198 4.64 4.885 12.946 10.747 11.725 16.12 18.075 31.996 25.158 62.284 25.158 67.168 29.066 67.168 8.06 0 32.485-62.527 35.171-62.527 4.397 0 21.738 63.26 29.066 63.26 2.93 0 5.862-6.35 11.235-17.83 29.798-63.26 28.821-67.412 35.172-76.205 5.13-7.083 10.747-4.641 10.747-9.037 0-2.931-1.221-3.176-7.083-3.176h-28.089c-2.687 0-5.13 0-5.13 1.954 0 7.084 13.435.977 13.435 14.167 0 11.724-20.029 61.794-23.204 61.794-2.198 0-6.35-13.677-11.48-24.669-8.548-18.807-14.41-36.148-14.41-40.789 0-5.618 4.152-6.595 7.327-6.839 2.687-.244 3.664-.244 3.664-2.442 0-.733-.244-3.42-5.374-3.42-3.175 0-1.465.244-7.571.244-29.799 0-13.19-.488-29.554-.488-1.466 0-3.664 0-3.664 2.198 0 4.397 5.618.977 13.922 12.945 3.664 5.374 7.083 14.655 7.083 16.61 0 5.861-1.221 7.082-12.945 29.553-4.885 9.282-8.549 16.853-9.77 16.853-2.198 0-6.839-13.433-11.968-24.425-8.549-19.295-13.678-31.996-13.678-39.568 0-10.747 10.747-6.594 10.747-11.48 0-2.686-2.442-2.686-11.48-2.686-7.083 0-4.885.244-11.968.244-9.77 0-15.632-.977-17.341-.977-1.466 0-4.641.489-4.641 2.687ZM3421.925 1720.464c0 .977 1.221 1.953 2.442 2.442 5.374 1.954 14.167-1.465 14.167 18.807v21.494c0 42.255-.489 40.79-10.014 43.965-2.199.732-3.664 2.93-3.664 4.64 0 2.443 3.664 3.175 9.77 3.175 4.152 0 7.083-.488 17.341-.488 9.282 0 7.084.488 17.342.488 1.221 0 2.687.245 3.664.245 3.908 0 4.152-2.687 4.152-4.152 0-3.42-3.175-3.42-7.327-3.664-6.107-.489-13.678-1.954-13.678-17.83v-66.924c0-4.152 1.465-8.793 1.465-11.724 0-3.42-2.198-4.64-3.664-4.64-3.908 0-3.42.732-12.212 4.396-13.678 5.617-19.784 5.862-19.784 9.77Zm13.922-51.048c0 3.908 4.885 13.922 11.968 13.922 2.198 0 11.48-7.572 11.48-13.434 0-4.885-5.618-13.922-11.236-13.922-5.373 0-12.212 10.258-12.212 13.434ZM3490.074 1718.265c0 1.71 1.22 2.687 4.64 2.687h2.443c5.618 0 10.503 1.71 10.503 13.19v35.171c0 7.083 0 4.64-.489 18.319-.977 29.065-12.945 15.876-12.945 23.448 0 1.465.733 2.442 3.664 2.442 2.198 0 16.853-.977 27.355-.977 11.236 0 8.793.977 17.83.977 2.199 0 4.641-.488 4.641-3.175 0-2.931-8.548-3.664-10.014-3.664-12.7-.977-13.922-10.503-13.922-24.669v-9.281c0-8.06.977-35.172 2.198-38.592.977-2.93 11.236-14.899 27.356-14.899 15.388 0 31.508 10.991 31.508 38.103v32.973c0 6.595-.489 14.9-5.374 16.365-.488.244-6.106.244-6.106 3.664 0 1.954 1.71 3.175 4.885 3.175 2.931 0 12.701-.977 18.807-.977 5.374 0 10.014 1.221 20.029 1.221 2.442 0 4.885-.488 4.885-2.442 0-1.954-.489-2.931-4.885-3.664-13.922-2.198-14.9-6.595-14.9-17.83v-5.374c0-34.927-.244-30.775-.244-34.927 0-12.945-7.327-41.034-42.01-41.034-7.816 0-15.388 3.176-21.25 6.84-8.793 5.373-9.77 10.013-11.48 10.013-.977 0-1.22-1.954-1.22-6.35 0-3.908.488-8.793.488-10.503 0-1.71-.489-2.93-2.199-2.93h-.488c-2.443 0-10.991 5.373-21.738 8.304-5.374 1.465-11.968 1.221-11.968 4.396ZM3633.936 1837.214c0 21.25 26.378 26.867 45.43 26.867 25.157 0 46.163-10.258 52.513-26.134 1.466-3.42 1.71-7.328 1.71-11.48 0-20.76-23.936-21.494-35.416-21.494h-11.236c-20.272 0-32.729-.732-32.729-12.7 0-11.48 10.503-11.969 10.991-11.969 3.664 0 7.816 2.199 18.808 2.199 22.47 0 40.3-16.365 40.3-37.126 0-4.885-2.686-12.213-2.686-12.213 3.42-1.465 7.327-3.42 10.014-7.571 2.198-3.42 5.373-13.678 5.373-22.227 0-1.954-2.442-1.954-3.175-1.954-4.152 0-2.442 9.037-8.793 11.724-4.64 1.954-8.793 4.397-12.456 4.397-3.42 0-9.282-9.77-30.776-9.77-34.927 0-42.255 24.669-42.255 37.37 0 25.646 16.61 28.82 16.61 32.729 0 2.442-12.702 7.571-12.702 24.18 0 10.747 8.06 12.945 8.06 14.411 0 2.442-17.585 5.862-17.585 20.761Zm14.166-1.465c0-10.259 9.037-16.365 11.235-16.365 2.687 0 17.098 3.42 30.043 3.42h2.198c13.922 0 27.112 0 27.112 12.456 0 13.678-20.517 22.227-39.324 22.227-16.12 0-31.264-6.35-31.264-21.738Zm10.014-93.059c0-19.784 10.503-29.554 21.738-29.554 16.61 0 25.402 17.83 25.402 34.683 0 15.144-7.327 29.066-22.715 29.066-14.166 0-24.425-14.655-24.425-34.195ZM2976.052 1909.757c0 7.572 23.692-2.198 23.692 24.18 0 6.596.244 15.633.244 41.279 0 27.111-.244 61.306-.244 76.938 0 26.867-20.517 16.12-20.517 24.669 0 3.175 2.687 3.908 5.13 3.908 2.686 0 15.143-.977 26.867-.977 2.442 0 33.95 1.71 34.927 1.71 3.42 0 4.397-1.466 4.397-3.908 0-8.06-30.043 2.198-30.043-27.356 0-3.42-.244 0-.244-34.439 0-17.342.488-17.342 4.152-17.342h20.028c2.931 0 7.816 2.443 18.075 19.052 12.456 20.272 30.775 51.048 43.72 58.62 8.793 5.128 20.273 5.617 21.005 5.617 17.586 0 18.075-1.954 18.075-6.106 0-1.954-1.954-2.931-3.42-2.931-12.7 0-21.493-10.259-22.47-11.48-10.015-10.503-48.606-64.481-48.606-68.39 0-3.907 30.531-10.502 30.531-46.65 0-26.135-25.402-41.034-53.246-41.034-8.549 0-13.922.732-24.425.732h-40.545c-5.13 0-7.083.733-7.083 3.908Zm44.209 39.08v-6.839c0-21.982.488-26.867 12.945-26.867 35.172 0 47.628 23.203 47.628 40.057 0 17.341-8.793 33.95-38.59 33.95h-9.527c-4.64 0-7.327-.244-10.502-2.198-1.954-1.221-1.954-6.106-1.954-38.103ZM3148.98 2030.172c0 27.111 18.563 53.978 55.932 53.978 29.31 0 58.62-18.807 58.62-55.444 0-35.66-28.333-54.223-56.91-54.223-38.347 0-57.642 28.089-57.642 55.689Zm19.295-8.305c0-30.287 18.319-40.79 32.485-40.79 30.043 0 44.453 29.066 44.453 54.957 0 27.6-15.631 40.789-32.973 40.789-20.761 0-43.965-19.296-43.965-54.956ZM3282.583 2030.172c0 27.111 18.563 53.978 55.932 53.978 29.31 0 58.62-18.807 58.62-55.444 0-35.66-28.333-54.223-56.91-54.223-38.347 0-57.642 28.089-57.642 55.689Zm19.295-8.305c0-30.287 18.319-40.79 32.485-40.79 30.043 0 44.453 29.066 44.453 54.957 0 27.6-15.631 40.789-32.973 40.789-20.761 0-43.965-19.296-43.965-54.956ZM3414.236 1984.986c0 7.816 16.364-2.931 16.364 14.166 0 10.014.245 20.273.245 29.798 0 17.342-.489 31.997-1.954 37.126-3.42 10.503-11.236 5.618-11.236 10.747 0 1.71.244 3.664 5.862 3.664 3.664 0 9.526-.733 19.296-.733 10.502 0 16.853.733 20.517.733 5.129 0 5.129-.977 5.129-3.664 0-5.618-20.517 2.931-20.517-22.47v-49.339c0-9.526 12.7-17.83 26.379-17.83 15.876 0 24.913 11.724 24.913 28.577 0 1.466.488 0 .488 15.388 0 26.378-.244 23.203-.244 26.623 0 14.166-3.908 14.655-5.617 15.143-4.885 1.954-5.618 2.687-5.618 4.885 0 2.442 3.664 3.175 5.373 3.175 2.199 0 17.83-1.221 22.227-1.221 7.083 0 13.678 1.221 17.83 1.221 1.465 0 4.64 0 4.64-2.686 0-.733-.732-3.42-4.396-3.908-14.899-2.199-16.853-9.77-16.853-23.204v-20.761c0-24.913-1.465-27.844-1.465-31.02 0-2.198 12.945-13.189 25.157-13.189 7.328 0 14.167 2.687 18.319 7.572 7.816 9.525 9.281 6.594 9.281 60.573v3.908c0 4.885-.244 9.282-.977 11.236-1.954 4.64-11.235 3.908-11.235 8.793 0 1.953 3.175 2.442 5.862 2.442 5.129 0 10.747-.977 17.586-.977 4.885 0 12.945.977 16.12.977 2.687 0 8.06 0 8.06-3.664 0-4.152-7.327-4.152-9.281-4.64-6.35-1.954-6.84-9.282-6.84-22.227v-7.816c0-8.549-.243-19.051-1.465-31.02-1.954-18.807-13.433-36.637-38.835-36.637-20.028 0-31.752 20.029-33.462 20.029-2.443 0-4.885-19.296-31.264-19.296-24.913 0-31.264 17.586-32.973 17.586-1.466 0-1.466-1.466-1.466-2.931 0-1.954 1.221-7.327 1.221-10.258 0-3.908-.732-7.084-2.93-7.084-4.153 0-5.618 1.466-10.747 3.664-10.503 4.64-21.494 3.42-21.494 8.549Z"/></g><g fill-rule="nonzero"><path d="M649.115 3418.774c0 2.93 2.687 2.93 4.152 2.93 20.273 0 21.494 16.854 21.494 19.052v41.522c0 27.356 0 60.33-.733 76.206-.732 18.563-7.571 22.715-10.99 22.715-1.71 0-2.932.244-5.619.244-2.442 0-2.686 2.443-2.686 3.42 0 3.175 2.686 3.663 5.129 3.663h3.42c8.304 0 15.143-.977 21.005-.977 6.106 0 26.867 2.687 43.72 2.687 16.609 0 27.356-2.198 42.5-12.7 10.99-7.573 20.516-26.135 20.516-40.058 0-41.766-39.812-42.987-39.812-45.918 0-1.466 24.424-10.747 24.424-36.393 0-27.112-24.18-40.79-52.024-40.79-8.55 0-16.365.733-26.868.733-4.396 0-26.867.244-35.66.244-7.327 0-7.327-.244-9.77-.244-1.465 0-2.198 2.198-2.198 3.664Zm44.209 147.037c0-2.442.244-5.129.244-25.402v-1.954c0-39.08.977-39.568 6.106-39.568 2.199 0 0 .489 22.715.489 8.06 0 47.873 1.954 47.873 43.964 0 18.563-11.235 33.462-26.379 35.905-6.35.977-13.678 1.221-21.005 1.221h-5.618c-8.549 0-23.936-.733-23.936-14.655Zm1.465-110.644v-7.083c0-22.227 3.176-25.158 12.701-25.158 35.172 0 49.338 24.67 49.338 39.324 0 15.632-9.037 28.821-30.775 28.821h-15.632c-6.839 0-7.816-.244-12.456-.732-2.443-.245-3.176-2.931-3.176-35.172ZM806.9 3495.224c0 .977 1.221 1.953 2.442 2.442 5.374 1.954 14.167-1.465 14.167 18.807v21.494c0 42.255-.489 40.79-10.014 43.965-2.199.732-3.664 2.93-3.664 4.64 0 2.443 3.664 3.175 9.77 3.175 4.152 0 7.083-.488 17.341-.488 9.282 0 7.084.488 17.342.488 1.221 0 2.687.245 3.664.245 3.908 0 4.152-2.687 4.152-4.152 0-3.42-3.175-3.42-7.327-3.664-6.107-.489-13.678-1.954-13.678-17.83v-66.924c0-4.152 1.465-8.793 1.465-11.724 0-3.42-2.198-4.64-3.664-4.64-3.908 0-3.42.732-12.212 4.396-13.678 5.617-19.784 5.862-19.784 9.77Zm13.922-51.048c0 3.908 4.885 13.922 11.968 13.922 2.198 0 11.48-7.572 11.48-13.434 0-4.885-5.618-13.922-11.236-13.922-5.373 0-12.212 10.258-12.212 13.434ZM872.357 3419.018c0 1.71 1.221 1.954 2.687 1.954 4.885 0 8.06.244 9.77.977 2.93 1.221 5.862 8.06 5.862 15.632 0 31.02-.977 83.044-.977 103.805v18.075c0 2.442.244 4.396.244 6.35 0 8.549-.733 13.19-6.595 15.876-3.664 1.71-8.304.977-8.304 5.374 0 .733 1.22 2.442 3.908 2.442 5.373 0 8.548-1.954 19.784-1.954 7.571 0 19.54 1.71 24.669 1.71 4.64 0 7.571-.733 7.571-3.42 0-1.71-1.465-3.663-3.175-3.663-18.563 0-19.784-10.014-19.784-17.83v-72.786c0-12.213.489-11.724.489-32.485v-13.678c0-22.227 1.954-33.462 1.954-37.126 0-2.442-.489-4.64-2.931-4.64-4.885 0-12.213 4.396-18.563 6.838-13.678 5.374-16.609 3.908-16.609 8.55ZM940.501 3419.018c0 1.71 1.221 1.954 2.687 1.954 4.885 0 8.06.244 9.77.977 2.93 1.221 5.862 8.06 5.862 15.632 0 31.02-.977 83.044-.977 103.805v18.075c0 2.442.244 4.396.244 6.35 0 8.549-.733 13.19-6.595 15.876-3.664 1.71-8.304.977-8.304 5.374 0 .733 1.22 2.442 3.908 2.442 5.373 0 8.548-1.954 19.784-1.954 7.571 0 19.54 1.71 24.669 1.71 4.64 0 7.571-.733 7.571-3.42 0-1.71-1.465-3.663-3.175-3.663-18.563 0-19.784-10.014-19.784-17.83v-72.786c0-12.213.489-11.724.489-32.485v-13.678c0-22.227 1.954-33.462 1.954-37.126 0-2.442-.489-4.64-2.931-4.64-4.885 0-12.213 4.396-18.563 6.838-13.678 5.374-16.609 3.908-16.609 8.55ZM1012.558 3495.224c0 .977 1.221 1.953 2.442 2.442 5.374 1.954 14.167-1.465 14.167 18.807v21.494c0 42.255-.489 40.79-10.014 43.965-2.199.732-3.664 2.93-3.664 4.64 0 2.443 3.664 3.175 9.77 3.175 4.152 0 7.083-.488 17.341-.488 9.282 0 7.084.488 17.342.488 1.221 0 2.687.245 3.664.245 3.908 0 4.152-2.687 4.152-4.152 0-3.42-3.175-3.42-7.327-3.664-6.107-.489-13.678-1.954-13.678-17.83v-66.924c0-4.152 1.465-8.793 1.465-11.724 0-3.42-2.198-4.64-3.664-4.64-3.908 0-3.42.732-12.212 4.396-13.678 5.617-19.784 5.862-19.784 9.77Zm13.922-51.048c0 3.908 4.885 13.922 11.968 13.922 2.198 0 11.48-7.572 11.48-13.434 0-4.885-5.618-13.922-11.236-13.922-5.373 0-12.212 10.258-12.212 13.434ZM1084.854 3567.52c0 6.596 1.71 12.702 6.106 17.098 5.618 5.862 12.213 7.328 22.715 7.328 17.586 0 31.264-15.144 32.24-15.144 1.222 0 5.374 13.434 19.54 13.434 10.26 0 15.388-1.466 15.388-5.13 0-8.792-18.562 5.863-18.562-26.622 0-18.319 1.22-13.678 1.22-45.43 0-9.282 0-30.776-36.636-30.776-21.006 0-41.034 14.411-41.034 26.868 0 8.304 12.212 9.525 15.143 9.525 2.687 0 4.397-.732 4.397-4.885 0-2.198-.977-5.129-.977-8.793 0-6.106 2.198-14.654 17.586-14.654 6.839 0 23.692 5.129 23.692 26.378 0 3.908-.489 7.816-.489 12.701 0 3.175-1.465 3.42-4.152 3.908-30.531 5.374-56.177 7.816-56.177 34.195Zm19.051-3.663c0-20.272 21.494-23.203 37.126-25.89.733 0 1.71-.489 2.442-.489.977 0 1.71.733 1.71 2.199v17.586c0 8.06 0 24.913-22.47 24.913-12.213 0-18.808-7.328-18.808-18.319ZM1187.682 3495.468c0 3.42 2.443 3.908 4.641 3.908.977 0 1.954.244 2.687.244 10.991 0 12.212 4.64 12.212 9.037 0 4.64.489 0 .489 46.652 0 19.295-.244 24.424-9.037 26.623-2.687.732-3.176 2.198-3.176 4.152 0 1.71 0 2.93 5.374 2.93 4.152 0 12.212-1.22 25.402-1.22 5.617 0 12.945 1.22 20.76 1.22 2.687 0 2.932-2.197 2.932-3.907 0-3.664-6.35-3.175-12.457-4.152-5.618-.977-11.48-5.862-11.48-13.19 0-4.152-.488.244-.488-25.646v-25.402c0-5.129 8.549-15.143 18.074-15.143 11.724 0 12.945 5.862 18.563 5.862.733 0 8.305-3.664 8.305-13.678 0-1.221-.733-4.152-5.13-7.083-4.885-3.175-6.35-4.64-11.48-4.64-15.875 0-23.691 19.783-25.645 19.783-1.466 0-1.954-.244-1.954-10.502 0-2.443.244-4.641.244-6.595 0-2.443-.977-4.885-3.175-4.885-.245 0-2.199.488-3.42.977-20.028 9.526-32.24 8.793-32.24 14.655ZM1283.429 3540.654c0 26.134 16.12 51.047 48.117 51.047 23.203 0 32.973-15.876 35.66-15.876 1.954 0 2.198 2.443 2.198 4.153 0 4.396.733 6.839.733 9.037 0 1.954.977 2.686 2.686 2.686 2.931 0 8.305-1.954 15.388-2.442 17.83-1.465 18.807-3.175 18.807-4.396 0-4.153-6.595-3.908-10.502-5.13-7.084-2.198-8.55-7.327-8.55-29.554 0-17.586.49-45.186.49-89.15 0-20.517 3.175-47.873 3.175-53.002 0-3.664-1.222-4.885-2.931-4.885-2.931 0-6.595 2.442-9.526 3.664-19.296 8.793-27.6 8.06-27.6 11.724v.244c0 1.71 0 1.954 5.13 1.954h2.686c12.945 0 12.945 10.991 12.945 27.356 0 8.793-.489 0-.489 31.508 0 7.327-.488 8.793-1.22 8.793-3.42 0-16.854-7.084-27.845-7.084-39.568 0-59.352 30.287-59.352 59.353Zm17.586-11.48c0-22.715 12.212-40.79 33.95-40.79 8.793 0 21.25 6.107 29.066 10.747 3.419 1.954 6.838 5.374 6.838 18.808 0 4.152 0 0-.244 41.766 0 11.235-14.899 19.296-29.065 19.296-25.402 0-40.545-27.356-40.545-49.827ZM714.207 3684.517c0 7.572 23.692-2.198 23.692 24.18 0 6.596.244 15.633.244 41.279 0 27.111-.244 61.306-.244 76.938 0 26.867-20.517 16.12-20.517 24.669 0 3.175 2.687 3.908 5.13 3.908 2.686 0 15.143-.977 26.867-.977 2.442 0 33.95 1.71 34.927 1.71 3.42 0 4.397-1.466 4.397-3.908 0-8.06-30.043 2.198-30.043-27.356 0-3.42-.244 0-.244-34.439 0-17.342.488-17.342 4.152-17.342h20.028c2.931 0 7.816 2.443 18.075 19.052 12.456 20.272 30.775 51.048 43.72 58.62 8.793 5.128 20.273 5.617 21.005 5.617 17.586 0 18.075-1.954 18.075-6.106 0-1.954-1.954-2.931-3.42-2.931-12.7 0-21.493-10.259-22.47-11.48-10.015-10.503-48.606-64.481-48.606-68.39 0-3.907 30.531-10.502 30.531-46.65 0-26.135-25.402-41.034-53.246-41.034-8.549 0-13.922.732-24.425.732H721.29c-5.13 0-7.083.733-7.083 3.908Zm44.209 39.08v-6.839c0-21.982.488-26.867 12.945-26.867 35.172 0 47.628 23.203 47.628 40.057 0 17.341-8.793 33.95-38.59 33.95h-9.527c-4.64 0-7.327-.244-10.502-2.198-1.954-1.221-1.954-6.106-1.954-38.103ZM887.136 3804.932c0 27.111 18.563 53.978 55.932 53.978 29.31 0 58.62-18.807 58.62-55.444 0-35.66-28.333-54.223-56.91-54.223-38.347 0-57.642 28.089-57.642 55.689Zm19.295-8.305c0-30.287 18.319-40.79 32.485-40.79 30.043 0 44.453 29.066 44.453 54.957 0 27.6-15.631 40.789-32.973 40.789-20.761 0-43.965-19.296-43.965-54.956ZM1020.738 3804.932c0 27.111 18.563 53.978 55.932 53.978 29.31 0 58.62-18.807 58.62-55.444 0-35.66-28.333-54.223-56.91-54.223-38.347 0-57.642 28.089-57.642 55.689Zm19.295-8.305c0-30.287 18.319-40.79 32.485-40.79 30.043 0 44.453 29.066 44.453 54.957 0 27.6-15.631 40.789-32.973 40.789-20.761 0-43.965-19.296-43.965-54.956ZM1152.39 3759.746c0 7.816 16.365-2.931 16.365 14.166 0 10.014.245 20.273.245 29.798 0 17.342-.489 31.997-1.954 37.126-3.42 10.503-11.236 5.618-11.236 10.747 0 1.71.244 3.664 5.862 3.664 3.664 0 9.526-.733 19.296-.733 10.502 0 16.853.733 20.517.733 5.129 0 5.129-.977 5.129-3.664 0-5.618-20.517 2.931-20.517-22.47v-49.339c0-9.526 12.7-17.83 26.379-17.83 15.876 0 24.913 11.724 24.913 28.577 0 1.466.488 0 .488 15.388 0 26.378-.244 23.203-.244 26.623 0 14.166-3.908 14.655-5.617 15.143-4.885 1.954-5.618 2.687-5.618 4.885 0 2.442 3.664 3.175 5.373 3.175 2.199 0 17.83-1.221 22.227-1.221 7.083 0 13.678 1.221 17.83 1.221 1.465 0 4.64 0 4.64-2.686 0-.733-.732-3.42-4.396-3.908-14.899-2.199-16.853-9.77-16.853-23.204v-20.761c0-24.913-1.465-27.844-1.465-31.02 0-2.198 12.945-13.189 25.157-13.189 7.328 0 14.167 2.687 18.319 7.572 7.816 9.525 9.281 6.594 9.281 60.573v3.908c0 4.885-.244 9.282-.977 11.236-1.954 4.64-11.235 3.908-11.235 8.793 0 1.953 3.175 2.442 5.862 2.442 5.129 0 10.747-.977 17.586-.977 4.885 0 12.945.977 16.12.977 2.687 0 8.06 0 8.06-3.664 0-4.152-7.327-4.152-9.281-4.64-6.35-1.954-6.84-9.282-6.84-22.227v-7.816c0-8.549-.243-19.051-1.465-31.02-1.954-18.807-13.433-36.637-38.835-36.637-20.028 0-31.752 20.029-33.462 20.029-2.443 0-4.885-19.296-31.264-19.296-24.913 0-31.264 17.586-32.973 17.586-1.466 0-1.466-1.466-1.466-2.931 0-1.954 1.221-7.327 1.221-10.258 0-3.908-.732-7.084-2.93-7.084-4.153 0-5.618 1.466-10.747 3.664-10.503 4.64-21.494 3.42-21.494 8.549Z"/></g></svg>