<?xml version="1.0" encoding="utf-8"?>
<svg xmlns="http://www.w3.org/2000/svg" version="1.0" viewBox="0 0 243 370">
	<title>The main house floor plan. From the northwest corner going east is the pantry, dining room, and drawing room. From the southwest corner going east is the billiard room, hall/staircase, and stairs/study. There is a terrace outside on the north and east sides, the front door is on the south opening into the hall, and a small summer house and lodge are further south of the big house.</title>
	<path d="M.264.696C.072 1.032 0 32.232 0 106.2v105.024l.576.576.576.576 8.88.024c5.352 0 9.12-.096 9.504-.24.768-.288.864-1.296.168-1.68-.312-.144-3.624-.24-9.12-.24H1.92l.048-40.752.072-40.728h36.432l1.176 3.24c2.064 5.688 2.376 6.432 2.736 6.576.528.192 1.296-.264 1.296-.792 0-.552-3.552-10.344-3.888-10.752-.192-.24-4.272-.312-19.056-.312H1.92v-17.04h16.392c12.528 0 16.488-.072 16.92-.312.384-.192 1.44-1.992 3.24-5.52 2.184-4.224 2.64-5.304 2.424-5.64-.36-.552-1.008-.648-1.488-.216-.216.216-1.44 2.448-2.688 4.944l-2.28 4.584H1.92V29.76l8.904-.048c8.208-.072 8.952-.096 9.192-.504.192-.288.192-.528 0-.84-.24-.36-1.032-.408-9.12-.528l-8.856-.12-.072-12.072L1.92 3.6h1.56c1.392 0 1.56-.048 1.56-.48s-.168-.48-1.536-.48h-1.56l-.072-1.152C1.8.456 1.752.36 1.152.288.72.24.432.36.264.696zm5.424 2.28c-.216.552.048.624 2.4.624 2.064 0 2.232-.024 2.232-.48 0-.456-.168-.48-2.256-.48-1.704 0-2.28.072-2.376.336zm5.28 0c-.216.552.048.624 2.4.624 2.064 0 2.232-.024 2.232-.48 0-.456-.168-.48-2.256-.48-1.704 0-2.28.072-2.376.336zm5.28 0c-.216.552.048.624 2.4.624 2.064 0 2.232-.024 2.232-.48 0-.456-.168-.48-2.256-.48-1.704 0-2.28.072-2.376.336zm5.28 0c-.216.552.048.624 2.4.624 2.064 0 2.232-.024 2.232-.48 0-.456-.168-.48-2.256-.48-1.704 0-2.28.072-2.376.336zm5.28 0c-.216.552.048.624 2.4.624 2.064 0 2.232-.024 2.232-.48 0-.456-.168-.48-2.256-.48-1.704 0-2.28.072-2.376.336zm5.28 0c-.216.552.048.624 2.4.624 2.064 0 2.232-.024 2.232-.48 0-.456-.168-.48-2.256-.48-1.704 0-2.28.072-2.376.336zm5.28 0c-.216.552.048.624 2.4.624C41.832 3.6 42 3.576 42 3.12c0-.456-.168-.48-2.256-.48-1.704 0-2.28.072-2.376.336zm5.28 0c-.216.552.048.624 2.4.624 2.064 0 2.232-.024 2.232-.48 0-.456-.168-.48-2.256-.48-1.704 0-2.28.072-2.376.336zm5.28 0c-.216.552.048.624 2.4.624 2.064 0 2.232-.024 2.232-.48 0-.456-.168-.48-2.256-.48-1.704 0-2.28.072-2.376.336zm5.28 0c-.216.552.048.624 2.4.624 2.064 0 2.232-.024 2.232-.48 0-.456-.168-.48-2.256-.48-1.704 0-2.28.072-2.376.336zm5.28 0c-.216.552.048.624 2.4.624 2.064 0 2.232-.024 2.232-.48 0-.456-.168-.48-2.256-.48-1.704 0-2.28.072-2.376.336zm5.28 0c-.216.552.048.624 2.4.624 2.064 0 2.232-.024 2.232-.48 0-.456-.168-.48-2.256-.48-1.704 0-2.28.072-2.376.336zm5.28 0c-.216.552.048.624 2.4.624 2.064 0 2.232-.024 2.232-.48 0-.456-.168-.48-2.256-.48-1.704 0-2.28.072-2.376.336zm5.28 0c-.216.552.048.624 2.4.624 2.064 0 2.232-.024 2.232-.48 0-.456-.168-.48-2.256-.48-1.704 0-2.28.072-2.376.336zm5.28 0c-.216.552.048.624 2.4.624 2.064 0 2.232-.024 2.232-.48 0-.456-.168-.48-2.256-.48-1.704 0-2.28.072-2.376.336zm5.28 0c-.216.552.048.624 2.4.624 2.064 0 2.232-.024 2.232-.48 0-.456-.168-.48-2.256-.48-1.704 0-2.28.072-2.376.336zm5.28 0c-.216.552.048.624 2.4.624 2.064 0 2.232-.024 2.232-.48 0-.456-.168-.48-2.256-.48-1.704 0-2.28.072-2.376.336zm5.28 0c-.216.552.048.624 2.4.624 2.064 0 2.232-.024 2.232-.48 0-.456-.168-.48-2.256-.48-1.704 0-2.28.072-2.376.336zm5.28 0c-.216.552.048.624 2.4.624 2.064 0 2.232-.024 2.232-.48 0-.456-.168-.48-2.256-.48-1.704 0-2.28.072-2.376.336zm5.28 0c-.216.552.048.624 2.4.624 2.064 0 2.232-.024 2.232-.48 0-.456-.168-.48-2.256-.48-1.704 0-2.28.072-2.376.336zm5.28 0c-.216.552.048.624 2.4.624 2.064 0 2.232-.024 2.232-.48 0-.456-.168-.48-2.256-.48-1.704 0-2.28.072-2.376.336zm5.28 0c-.216.552.048.624 2.4.624 2.064 0 2.232-.024 2.232-.48 0-.456-.168-.48-2.256-.48-1.704 0-2.28.072-2.376.336zm5.28 0c-.216.552.048.624 2.4.624 2.064 0 2.232-.024 2.232-.48 0-.456-.168-.48-2.256-.48-1.704 0-2.28.072-2.376.336zm5.28 0c-.216.552.048.624 2.4.624 2.064 0 2.232-.024 2.232-.48 0-.456-.168-.48-2.256-.48-1.704 0-2.28.072-2.376.336zm5.28 0c-.216.552.048.624 2.4.624 2.064 0 2.232-.024 2.232-.48 0-.456-.168-.48-2.256-.48-1.704 0-2.28.072-2.376.336zm5.28 0c-.216.552.048.624 2.4.624 2.064 0 2.232-.024 2.232-.48 0-.456-.168-.48-2.256-.48-1.704 0-2.28.072-2.376.336zm5.28 0c-.216.552.048.624 2.4.624 2.064 0 2.232-.024 2.232-.48 0-.456-.168-.48-2.256-.48-1.704 0-2.28.072-2.376.336zm5.28 0c-.216.552.048.624 2.4.624 2.064 0 2.232-.024 2.232-.48 0-.456-.168-.48-2.256-.48-1.704 0-2.28.072-2.376.336zm5.28 0c-.216.552.048.624 2.4.624 2.064 0 2.232-.024 2.232-.48 0-.456-.168-.48-2.256-.48-1.704 0-2.28.072-2.376.336zm5.28 0c-.216.552.048.624 2.4.624 2.064 0 2.232-.024 2.232-.48 0-.456-.168-.48-2.256-.48-1.704 0-2.28.072-2.376.336zm5.28 0c-.216.552.048.624 2.4.624 2.064 0 2.232-.024 2.232-.48 0-.456-.168-.48-2.256-.48-1.704 0-2.28.072-2.376.336zm5.28 0c-.216.552.048.624 2.4.624 2.064 0 2.232-.024 2.232-.48 0-.456-.168-.48-2.256-.48-1.704 0-2.28.072-2.376.336zm5.28 0c-.216.552.048.624 2.4.624 2.064 0 2.232-.024 2.232-.48 0-.456-.168-.48-2.256-.48-1.704 0-2.28.072-2.376.336zm5.28 0c-.216.552.048.624 2.4.624 2.064 0 2.232-.024 2.232-.48 0-.456-.168-.48-2.256-.48-1.704 0-2.28.072-2.376.336zm5.28 0c-.216.552.048.624 2.4.624 2.064 0 2.232-.024 2.232-.48 0-.456-.168-.48-2.256-.48-1.704 0-2.28.072-2.376.336zm5.28 0c-.216.552.048.624 2.4.624 2.064 0 2.232-.024 2.232-.48 0-.456-.168-.48-2.256-.48-1.704 0-2.28.072-2.376.336zm5.28 0c-.216.552.048.624 2.4.624 2.064 0 2.232-.024 2.232-.48 0-.456-.168-.48-2.256-.48-1.704 0-2.28.072-2.376.336zm5.28 0c-.216.552.048.624 2.4.624 2.064 0 2.232-.024 2.232-.48 0-.456-.168-.48-2.256-.48-1.704 0-2.28.072-2.376.336zm5.28 0c-.216.552.048.624 2.4.624 2.064 0 2.232-.024 2.232-.48 0-.456-.168-.48-2.256-.48-1.704 0-2.28.072-2.376.336zm5.28 0c-.216.552.048.624 2.4.624 2.064 0 2.232-.024 2.232-.48 0-.456-.168-.48-2.256-.48-1.704 0-2.28.072-2.376.336zm5.28 0c-.216.552.048.624 2.4.624 2.064 0 2.232-.024 2.232-.48 0-.456-.168-.48-2.256-.48-1.704 0-2.28.072-2.376.336zm5.28 0c-.216.552.048.624 2.352.624s2.688-.096 2.256-.648c-.384-.456-4.44-.432-4.608.024zm5.232.144c-.264.408.072.6 1.8 1.08 2.04.528 2.76.576 2.76.144 0-.672-4.2-1.8-4.56-1.224zm5.088 1.608c-.336.312-.144.528 1.104 1.272.672.432 1.488 1.008 1.8 1.272.384.36.6.432.792.24.456-.456.096-.912-1.464-1.968-1.464-.96-1.92-1.128-2.232-.816zm4.152 3.384c0 .264.168.624.408.792.216.192.816.912 1.32 1.608.912 1.224 1.392 1.416 1.392.552 0-.552-2.184-3.24-2.712-3.336-.264-.048-.408.072-.408.384zM89.28 9.48c-.12.336-.24.912-.24 1.272.024.624.024.624.36.168.72-1.008.864-1.08 2.28-1.08h1.44v3.576c0 4.368-.096 4.968-.864 5.16-1.104.288-.336.576 1.464.576 1.872.024 2.208-.168 1.2-.624l-.6-.288v-8.4h1.56c1.296 0 1.608.072 1.848.48.456.696.672.576.672-.36v-.84h-3.888c-2.16 0-4.152-.072-4.44-.144-.432-.12-.6-.024-.792.504zm150.384 2.736c-.072.12.024.624.24 1.128.216.528.552 1.44.744 2.064.216.744.456 1.152.72 1.152.528 0 .312-1.608-.408-3.312-.504-1.152-.984-1.536-1.296-1.032zm-139.992 1.08c-1.512.672-2.16 3.48-1.128 4.872 1.008 1.368 3.456 1.512 4.56.264.456-.504.456-.504-.144-.336-1.584.504-2.088.456-2.856-.264-.408-.36-.816-1.032-.888-1.464l-.144-.768h2.04c1.128 0 2.136-.096 2.208-.24.168-.264-.408-1.464-.888-1.848-.552-.456-1.944-.576-2.76-.216zm1.896.552c.24.216.432.576.432.84 0 .36-.192.432-1.44.432-.792 0-1.44-.096-1.44-.216 0-.096.216-.48.504-.84.552-.72 1.296-.792 1.944-.216zm3.504-.6c-.792.264-.864.576-.192.792.432.144.48.36.48 2.28 0 1.176-.096 2.208-.24 2.28-.6.36-.12.6 1.2.6 1.512 0 1.8-.192.912-.6-.48-.216-.552-.432-.624-1.992-.072-2.112.144-2.496 1.368-2.4.72.072.864 0 .936-.456.12-.792-.792-.96-1.656-.336-.696.504-.696.504-.696.024 0-.528-.432-.6-1.488-.192zm5.28 0c-.792.264-.864.576-.192.792.432.144.48.36.48 2.28 0 1.176-.096 2.208-.24 2.28-.6.36-.12.6 1.2.6 1.512 0 1.8-.192.912-.6-.48-.216-.552-.432-.624-1.992-.072-2.112.144-2.496 1.368-2.4.72.072.864 0 .936-.456.12-.792-.792-.96-1.656-.336-.696.504-.696.504-.696.024 0-.528-.432-.6-1.488-.192zm6 .096c-.84.456-1.224 1.128-.864 1.488.456.456.912.336.912-.264 0-1.08 1.032-1.488 1.728-.72 1.032 1.176.648 2.064-.984 2.328-2.424.384-2.688 3.024-.312 3.024.504 0 1.128-.168 1.416-.36.432-.312.528-.312.792 0 .312.36 1.68.504 1.68.168 0-.096-.216-.312-.48-.48-.432-.264-.48-.552-.48-2.4 0-1.152-.096-2.208-.192-2.352-.528-.816-2.136-1.032-3.216-.432zm2.208 3.936c0 .816-.096 1.008-.624 1.248-.816.384-1.416 0-1.416-.912 0-.48.168-.768.6-.984 1.104-.552 1.44-.408 1.44.648zm5.184-4.08c-2.424.744-3.192 4.344-1.176 5.64.864.576 2.688.6 3.528.048.936-.624.744-.888-.36-.504-.84.312-1.056.288-1.752-.024-.432-.216-.936-.648-1.128-1.008-.432-.816-.384-2.304.144-3.096.36-.552.528-.6 1.248-.504.48.096 1.104.384 1.416.672l.576.528v-.744c0-.408-.072-.792-.168-.84-.456-.264-1.704-.36-2.328-.168zm5.568.144c-.816.432-1.344 1.416-1.536 2.784-.12.84-.024 1.2.432 1.872 1.032 1.536 3.48 1.776 4.656.432.456-.504.456-.504-.144-.336-1.584.504-2.088.456-2.832-.264-.408-.36-.792-1.032-.888-1.464l-.168-.768h2.064c1.104 0 2.112-.096 2.184-.24.24-.384-.576-1.656-1.32-2.04-.864-.456-1.608-.456-2.448.024zm2.064.624c.672.96.504 1.152-1.056 1.152-.792 0-1.44-.096-1.44-.216 0-.096.216-.48.504-.84.6-.768 1.488-.816 1.992-.096zm109.8 3.168c-.048.048-.048 1.104.024 2.352.096 1.776.192 2.232.48 2.232s.384-.384.432-1.8c.072-2.064-.072-2.88-.528-2.88-.168 0-.36.048-.408.096zm.144 5.496c-.072.168-.12 1.248-.072 2.352.048 1.608.144 2.016.432 2.016.288 0 .36-.408.36-2.256 0-1.608-.096-2.304-.288-2.352-.168-.072-.36.048-.432.24zM21.048 25.848c-.312.288-.168.984.216 1.128.216.072 3.12.144 6.456.144 3.336 0 6.24-.072 6.456-.144.504-.192.504-.96 0-1.152-.504-.192-12.936-.192-13.128.024zm42.624 0c-.432.168-.384.96.072 1.128.216.072 3.12.144 6.456.144 3.336 0 6.24-.072 6.456-.144.216-.072.384-.336.384-.576 0-.24-.168-.504-.384-.576-.456-.168-12.552-.168-12.984.024zm32.64 0c-.432.168-.384.96.072 1.128.216.072 3.12.144 6.456.144 3.336 0 6.24-.072 6.456-.144.216-.072.384-.336.384-.576 0-.24-.168-.504-.384-.576-.456-.168-12.552-.168-12.984.024zm43.44 0c-.432.168-.384.96.072 1.128.216.072 3.12.144 6.456.144 3.336 0 6.24-.072 6.456-.144.216-.072.384-.336.384-.576 0-.24-.168-.504-.384-.576-.456-.168-12.552-.168-12.984.024zm38.64 0c-.432.168-.384.96.072 1.128.216.072 3.12.144 6.456.144 3.336 0 6.24-.072 6.456-.144.216-.072.384-.336.384-.576 0-.24-.168-.504-.384-.576-.456-.168-12.552-.168-12.984.024zm62.904 2.064c-.072.192-.096 1.248-.048 2.352.048 1.608.144 2.016.432 2.016.288 0 .384-.456.432-2.352.048-1.992 0-2.328-.312-2.328-.216 0-.432.144-.504.312zm-164.208.216c-.384.384-.36.792.096 1.248.312.336 1.512.384 9.432.384 9.792 0 9.768 0 9.576-1.248l-.072-.552-9.36-.072c-7.104-.048-9.456.024-9.672.24zm76.44-.12c-.264.264-.192 1.152.12 1.464.216.216 3.144.288 11.736.288 10.104 0 11.496-.048 11.832-.384.216-.192.384-.504.384-.672 0-.84-.384-.864-12.24-.864-6.432 0-11.76.072-11.832.168zM34.8 28.536c-.312.6-.312.648.144 1.08.312.336 1.416.384 8.4.384h8.016v77.52h-1.368c-1.92 0-2.448.192-2.64.912-.312 1.248-.264 1.248 12.504 1.248 8.88 0 11.928-.072 12.336-.312.384-.192 1.44-1.992 3.24-5.52 2.184-4.224 2.64-5.304 2.424-5.64-.36-.552-1.008-.648-1.488-.216-.216.216-1.44 2.448-2.688 4.944l-2.28 4.584H53.52V30l4.704-.048c4.2-.072 4.752-.12 4.992-.504.192-.288.192-.528 0-.84-.24-.384-1.224-.408-14.208-.48-13.608-.048-13.944-.048-14.208.408zm75.048-.288c-.264.264-.192 1.152.12 1.464.216.216 1.8.288 5.64.288h5.352v77.496l-4.32.072c-3.528.048-4.392.144-4.56.432-.336.528-.288.864.144 1.296.312.336 1.416.384 8.328.384 4.392 0 8.208-.072 8.472-.144.384-.096 1.152-1.44 3.072-5.376 1.512-3.096 2.496-5.376 2.4-5.592-.216-.576-1.032-.744-1.512-.312-.216.192-1.368 2.376-2.52 4.824l-2.136 4.44h-5.448V30h7.896c8.496 0 8.568 0 8.376-1.248l-.072-.552-14.544-.072c-7.992-.024-14.616.024-14.688.12zm83.4.12c-.432.432-.336 1.104.168 1.392.312.144 3.984.24 10.32.24h9.864v77.52h-35.832c-32.04 0-35.88.048-36.36.384-.72.504-.672 1.008.192 1.488l.696.408.072 2.856.072 2.88 5.04 3.072c2.784 1.68 5.256 3.048 5.496 3 .672-.072 1.056-.792.72-1.32-.144-.216-2.328-1.656-4.872-3.168l-4.584-2.76v-4.68h69.36V117l-12.408-.048c-9.696-.048-12.576 0-13.032.24l-.6.312-.072 4.608-.048 4.608h-6.72c-6.696 0-6.72 0-7.056.528-.528.864-3.984 9.888-3.984 10.464 0 .744.888 1.176 1.392.672.216-.216 1.2-2.472 2.208-5.016l1.824-4.608 19.248-.072 19.248-.048.048 11.568.072 11.592.696.072c.384.048.768-.048.888-.24.12-.168.216-27.912.216-61.656 0-47.376-.072-61.392-.288-61.608-.408-.408-21.576-.408-21.984 0zm-2.208 94.512v3.84h-1.68v-7.68h1.68v3.84zm3.36 0v3.84h-1.92v-7.68h1.92v3.84zm3.12 0v3.84h-1.68v-7.68h1.68v3.84zm3.12 0v3.84h-1.68v-7.68h1.68v3.84zm3.36 0v3.84h-1.68v-7.68H204v3.84zm3.12 0v3.84h-1.68v-7.68h1.68v3.84zm3.36 0v3.84h-1.68v-7.68h1.68v3.84zm3.12 0v3.84h-1.68v-7.68h1.68v3.84zM21.192 30.888c-.432.168-.384.96.072 1.128.216.072 3.12.144 6.456.144 3.336 0 6.24-.072 6.456-.144.504-.192.504-.96 0-1.152-.456-.168-12.552-.168-12.984.024zm42.48 0c-.432.168-.384.96.072 1.128.216.072 3.12.144 6.456.144 3.336 0 6.24-.072 6.456-.144.216-.072.384-.336.384-.576 0-.24-.168-.504-.384-.576-.456-.168-12.552-.168-12.984.024zm32.64 0c-.432.168-.384.96.072 1.128.216.072 3.12.144 6.456.144 3.336 0 6.24-.072 6.456-.144.216-.072.384-.336.384-.576 0-.24-.168-.504-.384-.576-.456-.168-12.552-.168-12.984.024zm43.44 0c-.432.168-.384.96.072 1.128.216.072 3.12.144 6.456.144 3.336 0 6.24-.072 6.456-.144.216-.072.384-.336.384-.576 0-.24-.168-.504-.384-.576-.456-.168-12.552-.168-12.984.024zm38.64 0c-.432.168-.384.96.072 1.128.216.072 3.12.144 6.456.144 3.336 0 6.24-.072 6.456-.144.216-.072.384-.336.384-.576 0-.24-.168-.504-.384-.576-.456-.168-12.552-.168-12.984.024zm62.904 2.304c-.072.192-.096 1.248-.048 2.352.048 1.608.144 2.016.432 2.016.288 0 .384-.456.432-2.352.048-1.992 0-2.328-.312-2.328-.216 0-.432.144-.504.312zm0 5.28c-.072.192-.096 1.248-.048 2.352.048 1.608.144 2.016.432 2.016.288 0 .384-.456.432-2.352.048-1.992 0-2.328-.312-2.328-.216 0-.432.144-.504.312zm.024 5.28c-.072.168-.12 1.248-.072 2.352.048 1.608.144 2.016.432 2.016.288 0 .36-.408.36-2.256 0-1.608-.096-2.304-.288-2.352-.168-.072-.36.048-.432.24zm-175.2 4.752c-.072.096.168.336.528.504l.672.312.072 3.912.048 3.888-.624.6-.648.6 2.496.024c4.152.072 5.136-.168 6.384-1.512 1.2-1.272 1.656-3.864.936-5.544-.456-1.104-1.872-2.256-3.312-2.688-1.344-.408-6.336-.48-6.552-.096zm6.24.912c1.248.552 2.448 1.944 2.664 3.048.216 1.128-.048 2.856-.552 3.696-.84 1.44-3.168 2.088-5.088 1.416l-.744-.264v-3.888c0-2.712.096-3.984.288-4.176.432-.432 2.328-.336 3.432.168zm70.104-.96c-.096.144.072.36.432.504l.624.24v4.176c0 3.984-.024 4.224-.48 4.464-.264.144-.456.336-.384.432.048.096 1.608.12 3.456.048 3.312-.12 3.384-.12 4.272-.864 1.344-1.08 1.752-1.752 1.992-3.264.408-2.448-.384-4.104-2.448-5.16-1.104-.576-1.584-.648-4.272-.744-2.088-.072-3.096-.024-3.192.168zm6.888 1.368c1.32.96 1.848 2.04 1.848 3.816 0 1.656-.504 2.832-1.512 3.576-.552.408-1.032.504-2.496.504-2.544 0-2.544-.024-2.4-4.584.048-2.016.192-3.768.288-3.936.12-.216.648-.264 1.752-.168 1.176.096 1.776.264 2.52.792zm91.944-.792c-.072.192-.096 1.248-.048 2.352.048 1.608.144 2.016.432 2.016.288 0 .384-.456.432-2.352.048-1.992 0-2.328-.312-2.328-.216 0-.432.144-.504.312zm-162.648.528c-.504.48-.504.696-.048 1.08.288.24.432.24.72 0 .432-.36.456-.504.048-1.056-.312-.408-.336-.408-.72-.024zm12.24.072c-.36.384-.36.504-.072.888s.384.408.72.144c.48-.384.504-.84.072-1.2-.264-.192-.432-.168-.72.168zm86.016-.096c-.384.456-.24 1.224.192 1.224.192 0 .456-.192.6-.408.192-.336.168-.504-.12-.792-.336-.336-.408-.336-.672-.024zm16.464 2.808c-.336.36-.576.456-.96.336-1.032-.336-2.52-.408-3.048-.12-.288.144-.672.648-.864 1.128-.336.768-.312.912.12 1.8.408.816.408 1.032.144 1.56-.216.408-.264.768-.12 1.032.168.312.096.528-.24.84-1.176 1.056 0 2.28 2.16 2.28 1.752 0 2.952-.72 3.072-1.848.096-1.056-.624-1.512-2.496-1.512-1.032 0-1.56-.12-1.776-.36-.432-.528.12-1.128.864-.936 1.368.336 3.144-1.008 2.928-2.256-.024-.216.144-.696.384-1.056.24-.36.384-.816.336-1.032-.048-.312-.144-.288-.504.144zm-1.968.816c1.056 1.056.672 3-.576 3-.864 0-1.224-.432-1.392-1.632-.096-.768-.024-1.056.384-1.464.648-.648.864-.624 1.584.096zm1.128 6.024c.408.264.168.984-.432 1.32-.792.408-2.328.432-2.832 0-.408-.336-.528-1.248-.192-1.56.168-.192 3.072.024 3.456.24zM82.32 52.512c-.936.312-1.008.384-.528.552.504.192.528.36.528 2.472 0 1.92-.072 2.328-.408 2.52-.336.192 0 .24 1.248.24 1.44-.024 1.584-.072 1.032-.288-.792-.312-1.008-1.368-.72-3.24.12-.696.144-1.584.072-1.944l-.144-.672-1.08.36zm12.24 0c-.936.312-1.008.384-.528.552.288.12.576.48.672.84.216.84-.072 3.672-.408 4.08-.24.288-.024.336 1.248.336 1.488-.024 1.512-.024.888-.384-.648-.336-.672-.432-.672-2.232 0-2.112.336-2.664 1.632-2.664 1.2 0 1.728.912 1.728 2.976 0 1.032-.12 1.848-.288 2.016-.216.216.024.288 1.152.264 1.152 0 1.32-.048.888-.264-.624-.312-.792-.84-.792-2.784 0-1.368-.072-1.608-.696-2.232-.792-.792-2.016-.936-2.808-.336-.6.456-.768.456-.864-.072-.072-.432-.144-.432-1.152-.096zm12.672-.024c-.336.336-.528.36-1.032.12-1.056-.48-2.424-.36-3.168.288-.528.456-.672.768-.672 1.56 0 .576.168 1.128.408 1.368.36.36.36.456 0 1.2-.288.624-.312.888-.096 1.104.216.216.168.408-.216.816-.36.384-.48.72-.36 1.128.432 1.752 5.112 1.416 5.568-.432.312-1.248-.456-1.8-2.544-1.8-1.464 0-1.92-.168-1.92-.72 0-.504.48-.744 1.152-.552.912.24 2.136-.36 2.568-1.272.216-.456.312-.936.24-1.08-.096-.144 0-.432.192-.648.432-.504.744-1.488.48-1.488-.12 0-.384.192-.6.408zm-1.752.672c1.032 1.008.552 3-.72 3-1.2 0-1.8-2.16-.84-3.12.624-.624.864-.6 1.56.12zm1.128 6.024c.336.216.216.72-.288 1.176-.312.264-.888.432-1.584.456-.888.024-1.2-.096-1.56-.528-.36-.456-.384-.672-.192-1.056.24-.456.408-.48 1.848-.336.864.096 1.656.216 1.776.288zm47.976-6.744c-.984.312-1.2.72-.504.912.432.12.48.312.48 2.208 0 1.728-.072 2.16-.408 2.424-.384.288-.192.312 1.248.312 1.632 0 1.656 0 1.008-.36-.648-.36-.672-.384-.6-2.328l.072-1.968h1.08c.984 0 1.08-.048 1.08-.6 0-.816-.936-.936-1.704-.216-.576.528-.576.528-.576.024 0-.672-.216-.744-1.176-.408zm26.208-.024c-.888.312-1.272.624-.744.624.216 0 .456.168.528.384.288.72.144 3.576-.192 4.224l-.36.672h1.488c1.464-.024 1.464-.024.84-.384-.648-.336-.672-.432-.672-2.256 0-1.68.048-1.944.528-2.256.816-.576 1.752-.48 2.328.24.408.504.504.984.504 2.352 0 1.032-.12 1.848-.288 2.016-.216.216.024.288 1.152.264 1.2 0 1.32-.048.888-.264-.48-.24-.552-.456-.552-1.8 0-3.168-1.56-4.656-3.696-3.552-.84.456-.816.456-.912-.096-.072-.384-.168-.408-.84-.168zm-102.72.192c-.624.312-.72.672-.192.672.192 0 .432.288.504.624.216.816-.072 3.72-.384 4.032-.48.48-.216.624 1.2.624 1.512 0 1.8-.192.912-.6-.528-.216-.552-.408-.624-2.952-.072-2.904-.144-3.024-1.416-2.4zm6.144.192-.576.48.672-.144c1.104-.24 1.848.072 2.232.984.48 1.152.432 3.216-.072 3.768-.36.408-.312.432 1.152.432 1.464-.024 1.512-.024.912-.36-.6-.336-.648-.456-.72-2.424-.096-1.896-.144-2.088-.768-2.64-.84-.72-2.064-.768-2.832-.096zm6.144-.144-.72.312.552.288c.48.264.528.456.528 2.28 0 1.488-.096 2.088-.36 2.304-.576.48-.168.72 1.224.72 1.296 0 1.728-.312.816-.6-.6-.192-.816-1.32-.672-3.744.12-2.088.048-2.184-1.368-1.56zm69.696.024c-.84.456-1.08 1.104-.552 1.488.504.36.744.192.864-.648.048-.432.24-.624.696-.672.84-.096 1.416.528 1.416 1.488 0 .744-.048.792-1.248 1.08-1.488.336-2.112.84-2.112 1.704 0 1.272 1.632 1.896 2.808 1.08.456-.312.576-.312 1.224.048.408.24.864.336 1.152.216.432-.168.432-.192-.072-.576-.456-.36-.528-.696-.6-2.64-.048-1.896-.144-2.304-.528-2.592-.6-.432-2.232-.408-3.048.024zm2.424 3.84c0 .96-.072 1.128-.624 1.32-.864.336-1.536-.072-1.536-.936 0-.624.336-.936 1.44-1.296.672-.24.72-.168.72.912zm2.64-3.984c0 .12.144.336.336.48.168.144.768 1.464 1.344 2.904 1.152 3.048 1.224 3.072 2.496.528l.792-1.56.552 1.536c.936 2.592.984 2.592 2.472-.552.72-1.512 1.416-2.832 1.584-2.928.144-.096.216-.288.144-.408-.192-.288-2.04-.288-2.04.024 0 .12.12.24.24.24.408 0 .264 1.32-.264 2.616-.288.672-.6 1.224-.696 1.224-.216 0-1.44-2.952-1.44-3.48 0-.192.12-.36.24-.36a.24.24 0 0 0 .24-.24c0-.144-.528-.24-1.2-.24-.648 0-1.2.072-1.2.144s.216.408.48.744.48.84.48 1.08c0 .528-.936 2.352-1.224 2.352-.216 0-1.152-2.184-1.32-3.12-.096-.456-.048-.72.12-.72.144 0 .264-.12.264-.24 0-.144-.528-.24-1.2-.24-.648 0-1.2.096-1.2.216zm11.16.12-.72.312.552.288c.48.264.528.456.528 2.28 0 1.488-.096 2.088-.36 2.304-.576.48-.168.72 1.224.72 1.296 0 1.728-.312.816-.6-.432-.144-.48-.36-.48-2.904 0-3.024-.024-3.072-1.56-2.4zm65.016 1.656c-.072.192-.096 1.248-.048 2.352.048 1.608.144 2.016.432 2.016.288 0 .384-.456.432-2.352.048-1.992 0-2.328-.312-2.328-.216 0-.432.144-.504.312zm-233.952.624c-.072.12.072.264.336.336.816.216 1.008 1.248.84 4.728-.168 3.84-.264 4.32-.72 4.32-.192 0-.36.096-.36.24s.792.24 1.92.24 1.92-.096 1.92-.24-.192-.24-.456-.24c-.864 0-1.104-.672-1.2-3.528-.048-1.512 0-3.312.096-4.032.144-1.32.144-1.32 1.008-1.32.648 0 1.032.192 1.656.816 1.56 1.56.792 3.504-1.392 3.504-.576 0-.888.096-.792.24.216.36 1.968.288 2.76-.12.984-.504 1.44-1.272 1.44-2.472 0-1.248-.672-2.04-2.064-2.424-1.128-.312-4.824-.36-4.992-.048zm23.208 3.552c-.912.984-.912 1.032-.432 1.032.288 0 .36.408.36 2.232 0 1.92.072 2.304.456 2.664.576.528 1.992.6 2.568.12.384-.312.312-.336-.624-.456-1.272-.144-1.464-.6-1.272-2.976l.144-1.56.96-.072c1.416-.096 1.464-.672.072-.672-1.008 0-1.104-.048-1.104-.6 0-.816-.216-.744-1.128.288zm-13.512.336c-.84.192-1.776 1.032-1.608 1.512.048.144.312.288.6.336.384.072.504-.072.576-.6.048-.552.192-.696.816-.744.792-.072 1.224.264 1.296 1.032.12 1.128.024 1.272-1.056 1.416-2.04.312-3.072 1.992-1.776 2.88.696.48 1.224.48 2.28 0 .6-.312.888-.336 1.104-.12.312.312 1.608.36 1.608.048 0-.12-.216-.264-.48-.336-.432-.12-.48-.336-.48-2.256 0-2.976-.6-3.624-2.88-3.168zM18.72 63c0 .936-.072 1.08-.576 1.224-1.032.264-1.464.024-1.536-.816-.072-.672.024-.816.72-1.128 1.248-.552 1.392-.48 1.392.72zm4.32-4.272c-.192.072-.624.24-.96.36l-.6.24.552.216c.48.192.528.336.528 2.28 0 1.608-.096 2.208-.408 2.544-.36.408-.312.432 1.224.432 1.008 0 1.56-.096 1.464-.24-.072-.144-.312-.24-.504-.24-.936 0-1.032-4.056-.096-4.56.72-.384 1.824-.288 2.28.24.648.72.816 3.696.24 4.32-.432.48-.408.48 1.032.48 1.584 0 1.824-.12.912-.48-.528-.192-.576-.36-.648-2.28-.096-1.944-.144-2.112-.768-2.664-.792-.672-2.064-.768-2.928-.192-.576.384-.6.36-.6-.12 0-.528-.096-.576-.72-.336zm12.312.216c-.888.384-1.056.816-.312.816.456 0 .48.168.48 2.28 0 1.368-.096 2.28-.24 2.28a.24.24 0 0 0-.24.24c0 .144.696.24 1.584.24.984 0 1.512-.096 1.416-.24-.072-.144-.336-.24-.6-.24-.576 0-.72-.456-.72-2.28 0-1.992.552-2.64 1.68-2.04.36.192.504.144.696-.216.264-.456.144-.648-.624-1.08-.144-.072-.6.144-1.008.48l-.744.624v-.624c0-.696-.24-.744-1.368-.24zm4.488.072c0 .12.144.312.312.48.552.456 2.424 4.632 2.424 5.424 0 .408-.24 1.08-.528 1.488-.648.936-.672 1.08-.024.984.408-.048.792-.792 2.04-4.032.816-2.16 1.632-3.984 1.752-4.032.696-.24.12-.528-.984-.528-1.272 0-1.272.024-.72.432l.552.432-.576 1.656c-.288.936-.624 1.68-.744 1.68-.096 0-.504-.744-.912-1.656-.648-1.512-.696-1.704-.336-1.944.648-.48.456-.6-.936-.6-.72 0-1.32.096-1.32.216zm201.456.576c-.072.192-.096 1.248-.048 2.352.048 1.608.144 2.016.432 2.016.288 0 .384-.456.432-2.352.048-1.992 0-2.328-.312-2.328-.216 0-.432.144-.504.312zM69.024 63.816c-.096.144 0 .264.192.264s.528.168.72.384c.312.312.384 1.056.384 4.296v3.912l-.648.504-.672.48 1.344.024c.744 0 1.704.072 2.112.144.912.192 1.032-.312.144-.528-.84-.216-1.08-.768-1.08-2.616v-1.584l.912.072c.792.072.984.216 1.968 1.68 1.776 2.64 2.664 3.336 3.864 2.952.6-.192.6-.6-.024-.6-.48 0-2.496-2.28-3.264-3.744l-.432-.792.648-.504c.816-.648 1.224-2.016.816-2.832-.624-1.272-1.416-1.608-4.248-1.68-1.68-.072-2.64 0-2.736.168zm5.112 1.128c.6.504.744.792.744 1.56 0 1.368-.672 1.944-2.112 1.848l-1.128-.072-.072-1.44c-.12-2.136.048-2.52 1.008-2.52.528 0 1.08.216 1.56.624zm76.032-1.176c-.096.072.168.336.552.576l.72.456v7.872l-.648.504-.672.48 1.344.024c.744 0 1.704.072 2.112.144.912.192 1.032-.312.144-.528-.84-.216-1.08-.768-1.08-2.592V69.12h.84c.792 0 .912.12 2.184 2.016 1.44 2.184 2.496 2.952 3.6 2.688.6-.168.576-.624-.024-.624-.384 0-1.464-1.2-2.712-3.072l-.96-1.392.816-.768c.672-.648.816-.96.816-1.824 0-1.128-.528-1.824-1.752-2.28-.744-.288-5.016-.36-5.28-.096zm5.136 1.248c.504.528.696.936.696 1.56 0 1.224-.744 1.824-2.208 1.824h-1.152v-1.872c0-1.032.072-1.968.168-2.04.072-.096.528-.168.96-.168.6 0 1.032.192 1.536.696zm86.016-.144c-.072.168-.12 1.248-.072 2.352.048 1.608.144 2.016.432 2.016.288 0 .36-.408.36-2.256 0-1.608-.096-2.304-.288-2.352-.168-.072-.36.048-.432.24zM80.448 68.16c-1.464.888-1.896 2.928-.936 4.344.672 1.008 1.44 1.416 2.688 1.416 2.424 0 3.936-2.28 3.024-4.536-.648-1.536-3.192-2.184-4.776-1.224zm3.168.72c1.464 1.752.864 4.56-1.008 4.56-1.968 0-3.24-3.024-1.944-4.656.72-.936 2.112-.888 2.952.096zm4.512-.72c-1.464.888-1.896 2.928-.936 4.344.984 1.464 2.736 1.824 4.44.96 1.104-.552 1.56-1.344 1.56-2.664s-.456-2.112-1.56-2.664c-1.152-.6-2.496-.576-3.504.024zm3.168.72c1.464 1.752.912 4.56-.912 4.56-2.04 0-3.36-2.976-2.04-4.656.72-.936 2.112-.888 2.952.096zm3.576-1.032c-.624.12-.72.432-.192.648.576.216.528 4.416-.048 4.848-.384.288-.192.312 1.248.312 1.632 0 1.656 0 1.032-.36-.648-.336-.672-.432-.672-2.232 0-1.512.096-1.944.432-2.256.6-.552 1.392-.504 1.968.072.648.648.72 4.176.072 4.536-.312.168-.024.24 1.08.312.816.024 1.488.024 1.488-.024s-.264-.336-.6-.648c-.528-.48-.6-.744-.6-2.28 0-1.368.096-1.8.432-2.04.576-.456 1.584-.408 2.04.096.504.552.648 3.912.192 4.464-.288.336-.168.384 1.08.384 1.296-.024 1.368-.048.96-.36-.36-.288-.504-.792-.624-2.448-.144-1.848-.24-2.136-.816-2.64-.816-.696-1.8-.696-2.64-.048l-.624.48-.624-.48c-.36-.288-.936-.504-1.296-.504s-.936.216-1.296.504l-.624.48v-.48c0-.504-.216-.552-1.368-.336zm66.624.384c-.984.672-1.416 1.44-1.416 2.64 0 1.8 1.272 3.048 3.12 3.048 1.992 0 3.36-1.272 3.36-3.12 0-2.544-2.904-4.032-5.064-2.568zm2.952.408c.792.624 1.224 2.256.888 3.432-.432 1.608-1.944 1.848-3.24.552-.72-.72-.816-.96-.816-2.112 0-.984.12-1.44.48-1.824.624-.672 1.896-.696 2.688-.048zm4.728-.408c-.984.672-1.416 1.44-1.416 2.64 0 1.8 1.32 3.048 3.24 3.048 1.872 0 3.24-1.296 3.24-3.12 0-2.544-2.904-4.032-5.064-2.568zm2.952.408c.84.648 1.296 2.328.912 3.456-.504 1.584-1.968 1.824-3.264.528-.72-.72-.816-.96-.816-2.112 0-.984.12-1.44.48-1.824.624-.672 1.872-.696 2.688-.048zm4.032-.792c-1.08.36-1.08.36-.528.576.48.192.528.336.528 2.28 0 1.608-.096 2.208-.408 2.544-.36.408-.312.432 1.152.432s1.512-.024.984-.384c-.504-.36-.552-.552-.528-2.448.048-3.168.048-3.168-.408-3.144-.24 0-.6.072-.792.144zm1.992.12c-.696.336-.72.768-.048.552.768-.264 1.536.048 1.848.72.408.888.36 3.264-.072 3.888-.36.504-.336.504.984.6.744.024 1.392 0 1.464-.12.048-.096 0-.168-.144-.168-.696 0-.984-.792-.984-2.64 0-1.632.072-1.944.456-2.16.768-.408 1.656-.288 2.04.288.48.672.528 4.032.096 4.464-.216.216.024.288 1.152.264 1.368 0 1.392-.024.888-.384-.48-.312-.552-.576-.552-1.92 0-3.144-1.44-4.464-3.504-3.216-.696.432-.744.432-1.272 0-.624-.504-1.536-.552-2.352-.168zm63.144 2.184c-.072.192-.096 1.248-.048 2.352.048 1.608.144 2.016.432 2.016.288 0 .384-.456.432-2.352.048-1.992 0-2.328-.312-2.328-.216 0-.432.144-.504.312zm0 5.28c-.072.192-.096 1.248-.048 2.352.048 1.608.144 2.016.432 2.016.288 0 .384-.456.432-2.352.048-1.992 0-2.328-.312-2.328-.216 0-.432.144-.504.312zm0 5.28c-.072.192-.096 1.248-.048 2.352.048 1.608.144 2.016.432 2.016.288 0 .384-.456.432-2.352.048-1.992 0-2.328-.312-2.328-.216 0-.432.144-.504.312zm.024 5.28c-.072.168-.12 1.248-.072 2.352.048 1.608.144 2.016.432 2.016.288 0 .36-.408.36-2.256 0-1.608-.096-2.304-.288-2.352-.168-.072-.36.048-.432.24zm-.024 5.28c-.072.192-.096 1.248-.048 2.352.048 1.608.144 2.016.432 2.016.288 0 .384-.456.432-2.352.048-1.992 0-2.328-.312-2.328-.216 0-.432.144-.504.312zm0 5.28c-.072.192-.096 1.248-.048 2.352.048 1.608.144 2.016.432 2.016.288 0 .384-.456.432-2.352.048-1.992 0-2.328-.312-2.328-.216 0-.432.144-.504.312zm-136.728 1.776c-.192.24-1.32 2.4-2.472 4.8l-2.088 4.392h-8.352c-4.848 0-8.592.096-8.952.24-.768.288-.864 1.296-.168 1.68.672.336 17.64.336 18.312-.024.624-.336 5.496-10.2 5.304-10.752-.312-.816-1.008-.96-1.584-.336zm136.728 3.504c-.072.192-.096 1.248-.048 2.352.048 1.608.144 2.016.432 2.016.288 0 .384-.456.432-2.352.048-1.992 0-2.328-.312-2.328-.216 0-.432.144-.504.312zm.024 5.28c-.072.168-.12 1.248-.072 2.352.048 1.608.144 2.016.432 2.016.288 0 .36-.408.36-2.256 0-1.608-.096-2.304-.288-2.352-.168-.072-.36.048-.432.24zm-.024 5.28c-.072.192-.096 1.248-.048 2.352.048 1.608.144 2.016.432 2.016.288 0 .384-.456.432-2.352.048-1.992 0-2.328-.312-2.328-.216 0-.432.144-.504.312zm-85.344 1.248c-.768.432-1.392 1.512-1.392 2.352 0 .984.864 1.752 2.808 2.568 2.256.936 2.544 1.176 2.52 2.208-.072 2.328-3.552 2.52-4.776.264-.72-1.344-1.008-.984-.552.696.288.984.624 1.248 1.992 1.488 1.344.24 2.496-.072 3.432-.936.696-.672.816-.936.816-1.872 0-1.488-.624-2.16-3-3.12-1.536-.624-1.968-.912-2.16-1.44-.264-.816 0-1.344.936-1.8.96-.48 2.04-.144 3.12 1.008l.912.984-.168-1.2c-.096-.672-.192-1.224-.216-1.248-.048-.048-.864-.12-1.848-.192-1.344-.096-1.944-.048-2.424.24zm18.336.888c-.384.384-.36.792.048 1.128.24.216.384.192.6-.072.6-.696-.024-1.68-.648-1.056zm-11.376 2.328c-1.008 1.008-1.104 1.224-.552 1.224.288 0 .36.384.36 1.992 0 2.52.312 3.048 1.776 3.048.624 0 1.152-.144 1.32-.336.264-.288.144-.36-.744-.432l-1.032-.072-.072-2.088-.072-2.088 1.032-.072c.72-.048 1.056-.192 1.104-.456.072-.336-.096-.384-1.008-.288-1.056.12-1.08.12-1.152-.624l-.072-.744-.888.936zm5.448.48c-.264.12-.672.432-.936.72-.384.408-.408.552-.144.864.432.528.816.312.96-.504.24-1.416 2.16-.696 2.16.816 0 .624-.096.72-1.248.984-.696.144-1.44.456-1.68.672-.648.576-.552 1.656.192 2.16.6.384.696.384 1.752 0 .696-.24 1.176-.312 1.32-.168.24.24 1.584.336 1.584.12 0-.072-.216-.336-.48-.6-.408-.408-.48-.792-.48-2.352 0-1.152-.12-2.04-.312-2.304-.336-.48-1.968-.72-2.688-.408zm2.04 3.696c0 1.128-.456 1.656-1.32 1.56-.648-.072-.72-.168-.72-.912s.096-.864.84-1.128c1.176-.408 1.2-.408 1.2.48zm3.552-3.624c-.744.264-.864.552-.312.768.576.216.504 4.176-.048 4.608-.384.288-.24.312 1.08.336 1.44 0 1.992-.288 1.008-.552-.432-.12-.48-.336-.48-2.784 0-2.856 0-2.856-1.248-2.376zm3.6 0c-.792.264-.864.576-.192.744.432.12.48.336.48 2.208 0 1.728-.072 2.16-.408 2.424-.384.288-.216.312 1.2.336 1.512 0 2.256-.36 1.08-.528-.504-.072-.552-.216-.624-1.824-.072-2.112.168-2.544 1.344-2.376.888.168 1.272-.312.768-.912-.408-.504-.96-.456-1.608.168l-.552.504v-.504c0-.576-.408-.648-1.488-.24zm5.856-.12c-.168.072-.456.432-.648.792-.504 1.008-.096 1.728 1.344 2.424 1.752.792 1.944 2.184.312 2.184-.648 0-1.512-.816-1.536-1.44 0-.144-.096-.288-.24-.288-.12 0-.24.432-.24.96 0 .912.048.96.984 1.2 1.584.432 2.688-.048 3-1.344.264-.984-.264-1.752-1.56-2.304-1.272-.504-1.656-1.008-1.2-1.536.432-.504 1.128-.408 1.752.264.312.336.624.6.72.6.264 0 .144-1.104-.144-1.392-.288-.288-1.944-.36-2.544-.12zm57.888.384c-.072.192-.096 1.248-.048 2.352.048 1.608.144 2.016.432 2.016.288 0 .384-.456.432-2.352.048-1.992 0-2.328-.312-2.328-.216 0-.432.144-.504.312zm0 5.28c-.072.192-.096 1.248-.048 2.352.048 1.608.144 2.016.432 2.016.288 0 .384-.456.432-2.352.048-1.992 0-2.328-.312-2.328-.216 0-.432.144-.504.312zm-183.792 4.152c-.216.192-.384.504-.384.672 0 .816.48.864 9.288.864h8.712v62.856l.504.264c.384.216.6.192.96-.144.432-.384.456-.816.456-7.68v-7.296l14.232-.048 14.208-.072.072-24.6c.048-22.92.024-24.624-.36-24.912-.312-.216-5.472-.288-23.856-.288-21 0-23.496.048-23.832.384zm46.176 3.696v2.16H77.04v-4.32h26.64v2.16zm0 5.88v2.28H77.04v-4.56h26.64v2.28zm0 6v2.28H77.04v-4.56h26.64v2.28zm0 6v2.28H77.04v-4.56h26.64v2.28zm0 6.048v2.232H77.04V152.472h26.64v2.256zm0 6v2.232H77.04v-4.44h26.64v2.208zm0 6.072v2.16H77.04v-4.32h26.64v2.16zm0 5.88v2.04H77.04v-4.08h26.64v2.04zm38.928-45.672c-.216.216-.288 9.816-.288 41.76v41.472H77.04v-2.712l-.024-2.688-3.528-5.28c-3.288-4.92-3.576-5.28-4.248-5.28-1.416 0-1.104.744 2.496 6.216l3.384 5.088v4.656h-3.456c-2.976 0-3.528.048-3.984.432-.456.384-.504.528-.264.96.144.288.384.552.504.552.144.024.36.072.48.096.144.024 9.528.072 20.88.096l20.64.024v1.92h1.92v-1.92h13.44v1.92h1.92v-1.92h44.856c26.856 0 45.096-.096 45.456-.216 1.416-.552.672-1.944-1.032-1.944h-.96v-20.76c0-20.496 0-20.736-.48-21-.336-.192-.624-.192-.96 0-.48.264-.48.504-.48 21v20.76h-69.36v-81.6l9.672-.048 9.648-.072.072-.552c.192-1.272.312-1.248-10.608-1.248-7.56 0-10.2.072-10.416.288zm98.712 1.224c-.072.168-.12 1.248-.072 2.352.048 1.608.144 2.016.432 2.016.288 0 .36-.408.36-2.256 0-1.608-.096-2.304-.288-2.352-.168-.072-.36.048-.432.24zm-.024 5.28c-.072.192-.096 1.248-.048 2.352.048 1.608.144 2.016.432 2.016.288 0 .384-.456.432-2.352.048-1.992 0-2.328-.312-2.328-.216 0-.432.144-.504.312zm-111.144 5.424c-1.128.408-1.272.624-.552.816.456.12.48.336.48 4.464 0 3.648-.048 4.392-.36 4.488-.816.312-.264.576 1.2.576 1.488 0 2.184-.36 1.032-.528-.552-.072-.552-.12-.672-5.136l-.12-5.064-1.008.384zm3.96-.048c-.912.36-1.224.792-.576.792.6 0 .696.912.504 5.016-.144 3.264-.24 4.008-.552 4.272-.336.24-.144.288 1.224.312 1.656 0 2.016-.192 1.08-.6-.552-.24-.552-.312-.576-5.112-.024-2.664-.072-4.896-.12-4.944-.048-.048-.504.072-.984.264zm107.184-.096c-.072.192-.096 1.248-.048 2.352.048 1.608.144 2.016.432 2.016.288 0 .384-.456.432-2.352.048-1.992 0-2.328-.312-2.328-.216 0-.432.144-.504.312zm-129.696.6c0 .096.24.288.552.408.504.24.528.336.6 4.368.048 3.936.024 4.152-.432 4.44-.84.528-.528.672 1.32.672 1.032 0 1.8-.096 1.8-.24s-.144-.24-.336-.24c-.792 0-1.104-.72-1.104-2.544v-1.776h5.52v1.92c0 1.656-.072 1.968-.48 2.208-.816.528-.552.672 1.2.672 1.728 0 2.088-.192 1.152-.6-.528-.24-.552-.336-.624-4.368-.048-3.936-.024-4.152.432-4.44.816-.504.552-.672-1.08-.672-1.632 0-1.896.168-1.08.672.408.24.48.552.48 2.088v1.8h-5.568l.096-1.824c.072-1.368.192-1.896.504-2.136.696-.504.48-.6-1.272-.6-.912 0-1.68.072-1.68.192zm12.84 3.96c-.936.432-1.416 1.032-1.224 1.512.216.552.984.312 1.008-.36.048-.672.528-1.032 1.176-.84.72.216 1.104.84 1.032 1.632-.072.648-.192.744-1.32.984-.696.168-1.416.432-1.632.6-.552.456-.456 1.824.168 2.256.696.504 1.104.48 2.16-.096.72-.384.888-.408 1.008-.12.072.216.432.36.864.36.84 0 .888-.072.24-.72-.432-.432-.48-.744-.432-2.52.048-1.584 0-2.112-.312-2.4-.528-.528-1.872-.672-2.736-.288zm2.04 3.792c0 1.104-.384 1.656-1.2 1.656-1.344 0-1.464-1.632-.168-2.16 1.032-.408 1.368-.288 1.368.504zm114.816-3.072c-.072.192-.096 1.248-.048 2.352.048 1.608.144 2.016.432 2.016.288 0 .384-.456.432-2.352.048-1.992 0-2.328-.312-2.328-.216 0-.432.144-.504.312zm.024 5.28c-.072.168-.12 1.248-.072 2.352.048 1.608.144 2.016.432 2.016.288 0 .36-.408.36-2.256 0-1.608-.096-2.304-.288-2.352-.168-.072-.36.048-.432.24zm-211.488.96c-.912.336-1.248.648-.72.648.816 0 .936.84.744 5.064-.12 3.216-.24 4.104-.528 4.272-.552.312-.048.408 1.512.264 1.392-.144 1.416-.144.768-.432l-.672-.288.048-4.848c.024-2.736-.048-4.872-.168-4.896-.12-.024-.552.072-.984.216zm3.768.096c-.576.264-.72.408-.48.504.192.072.432.24.528.384.096.144.192 2.088.192 4.32 0 3.456-.072 4.128-.408 4.512-.36.408-.312.432 1.272.408 1.464-.024 1.584-.048.984-.288-.384-.168-.72-.504-.816-.864-.072-.312-.072-2.568 0-4.992.168-4.8.216-4.656-1.272-3.984zm23.64.024c-.912.36-.936.384-.36.528.576.144.6.24.672 2.016.072 1.848.072 1.872-.48 1.68-2.904-.912-5.352 1.776-4.176 4.584.576 1.368 2.4 1.968 3.744 1.2.768-.432.96-.432.96 0 0 .384.48.456 1.392.216.6-.168.72-.576.168-.576-.552 0-.672-1.464-.528-5.928.168-4.584.24-4.416-1.392-3.72zm-.312 4.896c.552.264.72.984.624 2.712-.072 1.248-.144 1.464-.696 1.776-1.728.96-3.744-1.344-3.024-3.528.456-1.344 1.632-1.728 3.096-.96zM17.28 150.72l-1.32.12.72.36.72.36.072 3.24c.096 4.152-.048 5.184-.744 5.4-.912.312 3.888.624 4.968.336 2.616-.72 3.384-3.624 1.272-4.992l-.888-.6.6-.624c1.416-1.464.312-3.456-2.064-3.696-.72-.072-1.464-.096-1.656-.072-.192.024-.96.096-1.68.168zm4.056 1.104c.6.48.744.816.744 1.536 0 1.176-.48 1.536-2.016 1.56H18.84l-.072-1.536c-.048-.84-.024-1.68.048-1.848.216-.576 1.704-.408 2.52.288zm.84 4.392c.312.312.648.816.744 1.152.192.792-.288 2.184-.84 2.472-.696.384-3.072.312-3.288-.096-.096-.192-.168-1.224-.12-2.304l.096-1.968 1.416.096c1.032.072 1.56.24 1.992.648zm4.032-4.488c-.384.384-.36.792.096 1.176.336.264.432.24.72-.12.216-.312.24-.576.072-.888-.264-.528-.48-.576-.888-.168zm11.856.072c-.48.48-.48.696-.024 1.08.288.24.432.24.72 0 .456-.384.456-.816.024-1.176-.264-.216-.432-.192-.72.096zm173.496.888c-.072.168-.096 3.768-.072 7.992l.072 7.68.552.072.528.072-.048-7.992c-.072-7.392-.096-7.992-.504-8.064-.216-.048-.456.072-.528.24zm5.04 0c-.072.168-.096 3.768-.072 7.992l.072 7.68.552.072.528.072-.048-7.992c-.072-7.392-.096-7.992-.504-8.064-.216-.048-.456.072-.528.24zM26.184 154.68c-.864.288-1.296.84-.672.84.192 0 .408.312.48.72.192.888-.072 3.816-.336 3.984-.552.336-.096.576 1.056.576 1.488 0 1.848-.192 1.056-.576-.48-.264-.528-.48-.648-3.048l-.12-2.784-.816.288zm21.768.048c-.984.408-1.2.792-.456.792.6 0 .744.456.744 2.376 0 1.056-.12 1.776-.384 2.136l-.36.528h1.584c1.008 0 1.536-.096 1.44-.24-.072-.144-.336-.24-.6-.24-.576 0-.72-.456-.72-2.184 0-1.752.552-2.52 1.56-2.136.792.312.768.312.936-.144.384-1.008-1.032-1.392-1.944-.528l-.552.504v-.624c0-.744-.024-.744-1.248-.24zm193.344-.096c-.072.192-.096 1.248-.048 2.352.048 1.608.144 2.016.432 2.016.288 0 .384-.456.432-2.352.048-1.992 0-2.328-.312-2.328-.216 0-.432.144-.504.312zm-203.688.216-.672.24.48.456c.432.408.504.768.504 2.352 0 1.368-.096 1.968-.36 2.184-.576.48-.168.72 1.224.72 1.296 0 1.728-.312.816-.6-.648-.216-.792-.912-.696-3.48.096-2.352.096-2.376-1.296-1.872zm4.296.216c-.744.576-.84 1.416-.168 1.416.312 0 .48-.216.6-.72.12-.6.24-.72.84-.72.84 0 1.464.744 1.464 1.704 0 .576-.12.672-1.008.816-2.352.384-3.264 1.608-2.112 2.76.576.576 1.44.624 2.4.12.648-.336.768-.336 1.32.024.336.216.768.312.984.24.36-.144.36-.216-.096-.648-.456-.408-.528-.72-.528-2.616 0-1.944-.048-2.16-.528-2.496-.768-.552-2.4-.48-3.168.12zm2.736 3.408c0 1.056-.48 1.656-1.296 1.656-1.368 0-1.44-1.368-.144-2.016 1.2-.624 1.44-.552 1.44.36zm141.84-1.824c-.192.072-.624.24-.96.384l-.6.24.6.144c.576.144.6.264.672 2.016l.072 1.872-.672-.192c-1.752-.48-3.192.12-3.96 1.632-1.392 2.688.96 5.496 3.504 4.176.864-.456 1.104-.456 1.104.024 0 .288.144.36.552.24.288-.072.72-.144.96-.144.216 0 .408-.12.408-.24 0-.144-.168-.24-.36-.24-.576 0-.672-1.032-.528-5.664.12-4.536.12-4.584-.792-4.248zm-1.464 4.896c.984.336 1.224.84 1.224 2.496 0 1.656-.264 2.184-1.2 2.4-1.032.216-2.064-.48-2.544-1.728-.36-.912-.36-1.128-.048-1.92.168-.504.6-1.032.912-1.2.744-.384.72-.384 1.656-.048zm-22.896-4.32c-1.176.696-1.56 1.248-1.56 2.256 0 1.44.624 2.088 2.856 3 2.184.864 2.448 1.104 2.472 2.184.072 2.352-3.768 2.52-4.968.216-.792-1.512-1.056-.576-.336 1.224.336.84 1.896 1.296 3.504 1.056 2.496-.36 3.648-3.048 2.064-4.728-.36-.36-1.344-.936-2.208-1.272-1.992-.768-2.112-.84-2.376-1.56-.816-2.16 2.856-2.856 4.152-.792.264.432.576.768.696.792.192 0 .024-2.112-.168-2.328-.264-.24-3.72-.288-4.128-.048zm79.176 2.688c-.072.192-.096 1.248-.048 2.352.048 1.608.144 2.016.432 2.016.288 0 .384-.456.432-2.352.048-1.992 0-2.328-.312-2.328-.216 0-.432.144-.504.312zm-72.432.864c-.84.864-.864.936-.384 1.056.456.12.504.264.432 2.304-.048 1.752.024 2.256.336 2.568.528.528 2.232.552 2.736.048.384-.384.36-.408-.6-.36-.672.024-1.08-.096-1.248-.312-.12-.192-.192-1.224-.168-2.28l.072-1.92.864-.024c1.68-.024 1.992-.816.336-.816-.984 0-1.08-.048-1.08-.6 0-.816-.24-.768-1.296.336zm4.728.432c-.624.12-.744.552-.192.552.288 0 .36.336.36 1.488 0 1.92.36 3.192 1.032 3.672.696.48 2.088.456 2.808-.048.408-.288.6-.312.672-.12.048.168.504.288 1.032.288.984 0 1.272-.336.456-.552-.456-.12-.48-.336-.48-2.808v-2.712l-.744.168c-.408.072-.84.144-.96.144s-.216.096-.216.24c0 .12.168.24.36.24.288 0 .36.384.36 2.016 0 2.256-.264 2.784-1.416 2.784-1.176 0-1.56-.744-1.704-3.192-.12-2.328-.168-2.4-1.368-2.16zm15.288.048c0 .144.12.312.24.384.288.192 1.488 2.52 2.16 4.224l.48 1.2-.528 1.128a74.61 74.61 0 0 1-.624 1.32c-.048.12.144.168.432.12.432-.048.696-.528 1.464-2.592 1.392-3.72 2.16-5.52 2.4-5.52.12 0 .216-.12.216-.24 0-.144-.552-.24-1.248-.24h-1.248l.528.48.504.48-.504 1.488c-.264.84-.576 1.608-.696 1.728-.096.12-.48-.408-.816-1.176-.864-1.992-.984-2.52-.504-2.52.216 0 .384-.12.384-.24 0-.144-.6-.24-1.32-.24-.72 0-1.32.096-1.32.216zm52.416 3.936c-.072.192-.096 1.248-.048 2.352.048 1.608.144 2.016.432 2.016.288 0 .384-.456.432-2.352.048-1.992 0-2.328-.312-2.328-.216 0-.432.144-.504.312zm-221.472.864c-.096.144 0 .264.192.264s.528.168.72.384c.312.312.384 1.056.384 4.296v3.912l-.648.504-.672.48 1.728.024c.936 0 1.896.072 2.136.168.288.096.36.048.288-.192-.072-.192-.312-.384-.576-.408-.792-.144-1.056-.792-1.056-2.52v-1.632l.912.072c.792.072.984.216 1.968 1.68 1.8 2.664 2.52 3.24 3.744 2.928.696-.168.768-.576.12-.576-.48 0-1.68-1.32-3.048-3.336l-.744-1.08.768-.768c1.32-1.32 1.248-2.736-.192-3.792-.576-.432-1.104-.528-3.288-.576-1.68-.072-2.64 0-2.736.168zm5.112 1.128c.6.504.744.816.744 1.536 0 1.392-.912 2.064-2.544 1.872-.672-.072-.696-.12-.768-1.512-.12-2.136.048-2.52 1.008-2.52.528 0 1.08.216 1.56.624zm6.336 3.216a3.06 3.06 0 0 0-.96 4.344c.672.984 1.44 1.416 2.64 1.416 2.496 0 4.032-2.4 3-4.68-.624-1.392-3.216-1.992-4.68-1.08zm3.048.672c.864.864 1.128 2.304.624 3.48-.624 1.512-2.4 1.488-3.432-.048-.816-1.224-.672-3.288.264-3.912.624-.432 1.872-.192 2.544.48zm4.608-.672c-1.464.888-1.896 2.928-.936 4.344.672 1.008 1.44 1.416 2.688 1.416 2.496 0 4.056-2.52 2.928-4.728-.744-1.416-3.144-1.968-4.68-1.032zm3.168.72c1.464 1.752.864 4.56-1.008 4.56-1.968 0-3.24-3.024-1.944-4.656.72-.936 2.112-.888 2.952.096zm3.576-1.032c-.624.12-.72.432-.192.648.576.216.528 4.416-.048 4.848-.384.288-.192.312 1.248.312 1.632 0 1.656 0 1.032-.36-.648-.336-.672-.408-.672-2.376 0-1.752.072-2.064.456-2.28.72-.384 1.416-.288 1.944.24.648.648.696 3.672.072 4.368-.36.408-.312.432 1.128.432h1.512l-.648-.6c-.576-.528-.624-.744-.624-2.376 0-1.536.072-1.848.456-2.064.72-.36 1.584-.288 2.016.192.504.552.576 4.104.12 4.56-.216.216.024.288 1.152.288 1.32-.024 1.392-.048.936-.384-.384-.288-.504-.744-.624-2.424-.12-1.872-.192-2.112-.792-2.616-.816-.72-1.8-.744-2.64-.072l-.624.48-.624-.48c-.36-.288-.936-.504-1.296-.504s-.936.216-1.296.504l-.624.48v-.48c0-.504-.216-.552-1.368-.336zm195.648.384c-.072.168-.12 1.248-.072 2.352.048 1.608.144 2.016.432 2.016.288 0 .36-.408.36-2.256 0-1.608-.096-2.304-.288-2.352-.168-.072-.36.048-.432.24zm-.024 5.28c-.072.192-.096 1.248-.048 2.352.048 1.608.144 2.016.432 2.016.288 0 .384-.456.432-2.352.048-1.992 0-2.328-.312-2.328-.216 0-.432.144-.504.312zm-160.32 3.144c-1.008.456-1.536 1.272-1.536 2.352 0 1.248.744 1.992 3 2.904 2.256.912 2.784 1.56 2.304 2.736-.336.816-1.128 1.272-2.208 1.272-1.056 0-2.016-.576-2.664-1.608-.504-.84-.552-.864-.624-.36-.048.288.048.912.192 1.368.336 1.008 1.416 1.44 3.264 1.248 1.536-.168 2.328-.648 2.856-1.776.864-1.8-.048-3.264-2.568-4.2-.792-.264-1.68-.72-2.016-.96-1.08-.864-.552-2.472.864-2.616 1.344-.12 1.776.048 2.688 1.032l.912.984-.024-.816c-.024-1.08-.24-1.512-.816-1.608-1.752-.288-2.952-.264-3.624.048zm18.648.96c-.384.456-.24 1.224.192 1.224.192 0 .456-.192.6-.408.192-.336.168-.504-.12-.792-.336-.336-.408-.336-.672-.024zm141.672 1.176c-.072.192-.096 1.248-.048 2.352.048 1.608.144 2.016.432 2.016.288 0 .384-.456.432-2.352.048-1.992 0-2.328-.312-2.328-.216 0-.432.144-.504.312zm-153.384 1.296c-.864.96-.984 1.272-.432 1.272.288 0 .36.384.36 2.088 0 2.256.072 2.496.888 2.928.768.384 1.392.336 2.016-.24l.576-.48-.84.12c-.456.072-1.008.048-1.176-.072-.408-.264-.672-2.952-.408-4.008.144-.552.264-.624.912-.48.72.144 1.392-.144 1.392-.624 0-.12-.36-.216-.768-.192-1.272.072-1.392.024-1.392-.6 0-.816-.216-.744-1.128.288zm15.24.48c-.984.384-1.2.792-.432.792.408 0 .48.168.528 1.368.048 1.992-.048 3.024-.336 3.36-.192.24.096.312 1.392.288 1.44 0 1.584-.048 1.056-.288-.864-.408-.96-.6-.96-2.376 0-1.368.072-1.656.504-1.968.36-.24.672-.288 1.056-.144.744.288 1.296-.288.84-.84-.432-.504-1.2-.456-1.848.168l-.552.504v-.624c0-.744-.048-.744-1.248-.24zm19.128-.144c-.864.264-1.32.816-1.32 1.656 0 .744.48 1.248 1.728 1.752 1.44.6 1.776 1.92.552 2.232-.768.192-1.44-.216-1.8-1.08-.36-.912-.72-.744-.72.336 0 .672.12.84.744 1.056 1.656.576 2.856.24 3.336-.912.504-1.224.168-1.848-1.464-2.664-1.176-.6-1.44-.84-1.368-1.272.12-.84 1.464-.864 2.016-.048.24.36.504.528.624.408.288-.288-.192-1.488-.624-1.488-.192 0-.48-.048-.672-.096-.168-.048-.624 0-1.032.12zM93.096 183c-.84.456-1.08 1.104-.552 1.488.504.36.744.192.864-.648.072-.696.84-.912 1.608-.48.384.192.504.504.504 1.176 0 .888-.024.912-1.248 1.2-1.488.336-2.112.84-2.112 1.704 0 1.272 1.632 1.896 2.808 1.08.456-.312.576-.312 1.224.048.432.24.864.336 1.152.216.432-.192.432-.216-.072-.552-.504-.336-.552-.552-.552-2.496 0-1.824-.072-2.208-.48-2.616-.576-.576-2.208-.648-3.144-.12zm2.424 3.84c0 .96-.072 1.128-.624 1.32-.792.312-1.536-.072-1.536-.816 0-.792.744-1.368 1.992-1.56.096 0 .168.456.168 1.056zm3.48-3.864-.72.312.552.288c.48.264.528.456.528 2.4 0 1.704-.072 2.16-.384 2.28-.72.288-.048.624 1.224.624 1.392 0 1.944-.336.96-.576-.6-.144-.6-.168-.6-2.904 0-3.048-.024-3.096-1.56-2.424zm10.464.096c-2.064 1.056-2.28 4.656-.336 5.544.816.384 2.376.336 3.192-.096.768-.408 1.032-1.032.312-.696-1.656.696-3.216.096-3.648-1.44-.648-2.352.864-3.72 2.808-2.544l.768.48v-.696c0-.504-.144-.72-.528-.84-.936-.24-1.728-.168-2.568.288zm5.712-.072c-.84.456-1.08 1.104-.552 1.488.504.36.744.192.864-.648.048-.432.24-.624.696-.672.84-.096 1.416.528 1.416 1.488 0 .744-.048.792-1.248 1.08-.696.144-1.44.456-1.68.672-.528.48-.552 1.584-.048 2.088.48.48 1.752.504 2.424.024.456-.312.576-.312 1.224.048.408.24.864.336 1.152.216.432-.168.432-.192-.072-.576-.456-.36-.528-.696-.6-2.64-.048-1.896-.144-2.304-.528-2.592-.6-.432-2.232-.408-3.048.024zm2.424 3.648c0 1.032-.168 1.368-.792 1.584-.768.288-1.416-.24-1.32-1.104.048-.624.216-.816.912-1.056 1.2-.408 1.2-.408 1.2.576zm9.6-3.336c-1.488 1.488-1.44 4.176.072 5.088.984.624 2.472.6 3.48 0 1.08-.672.96-1.008-.216-.6-1.32.48-2.472.024-2.976-1.176-.648-1.536-.6-1.584 1.8-1.584 2.496 0 2.712-.216 1.344-1.584-1.104-1.104-2.496-1.152-3.504-.144zm2.496.192c.672.648.456 1.008-.696 1.2-.6.072-1.248.096-1.44 0-.336-.12-.336-.216 0-.864.288-.552.528-.72 1.08-.72.384 0 .864.168 1.056.384zm111.6 2.808c-.072.192-.096 1.248-.048 2.352.048 1.608.144 2.016.432 2.016.288 0 .384-.456.432-2.352.048-1.992 0-2.328-.312-2.328-.216 0-.432.144-.504.312zm.024 5.28c-.072.168-.12 1.248-.072 2.352.048 1.608.144 2.016.432 2.016.288 0 .36-.408.36-2.256 0-1.608-.096-2.304-.288-2.352-.168-.072-.36.048-.432.24zm-.024 5.28c-.072.192-.096 1.248-.048 2.352.048 1.608.144 2.016.432 2.016.288 0 .384-.456.432-2.352.048-1.992 0-2.328-.312-2.328-.216 0-.432.144-.504.312zm0 5.28c-.072.192-.096 1.248-.048 2.352.048 1.608.144 2.016.432 2.016.288 0 .384-.456.432-2.352.048-1.992 0-2.328-.312-2.328-.216 0-.432.144-.504.312zm0 5.28c-.072.192-.096 1.248-.048 2.352.048 1.608.144 2.016.432 2.016.288 0 .384-.456.432-2.352.048-1.992 0-2.328-.312-2.328-.216 0-.432.144-.504.312zm-220.824 1.104c-.264.24-.264.384-.048.648.216.264 1.488.336 6.672.336 3.504 0 6.528-.096 6.72-.216.384-.24.192-.984-.264-.984-10.032-.144-12.792-.096-13.08.216zm39.648-.264c-6.288.048-6.96.168-6.312.936.192.24 1.728.312 6.648.312 3.504 0 6.528-.096 6.72-.216.432-.264.192-.888-.384-1.008-.24-.048-3.24-.072-6.672-.024zm-25.56 2.448c-.552.552-.408 1.152.384 1.44.768.312 16.68.312 17.472 0 .768-.288.864-1.296.168-1.68-.312-.144-3.576-.24-9-.24-8.184 0-8.568.024-9.024.48zm184.464.36a.418.418 0 0 0 .24.528c.456.168.672-.048.504-.528-.192-.456-.552-.456-.744 0zm-.552 1.368c-.48.672-1.56 3.576-1.416 3.912.264.696.792.072 1.536-1.752.864-2.04.936-2.448.432-2.448-.168 0-.432.144-.552.288zm22.56.48c-.456.576-.528 1.128-.192 1.392.264.216.408.144.72-.336.6-.912.096-1.848-.528-1.056zm-214.272.384c-3.456.024-6.336.168-6.456.288-.144.144-.096.36.096.6.264.312 1.224.36 6.696.36 3.504 0 6.528-.096 6.72-.216.432-.264.192-.888-.384-1.008-.24-.048-3.24-.072-6.672-.024zm26.928.384c-.312.792.36.864 6.792.864 3.504 0 6.504-.096 6.696-.216.192-.12.264-.384.192-.6-.144-.336-.936-.384-6.864-.384-5.472 0-6.72.072-6.816.336zm185.688 2.928c-.816 1.776-.96 2.64-.456 2.592.312 0 2.064-3.48 1.968-3.912-.144-.912-.72-.432-1.512 1.32zm-137.136-1.128c0 .12.264.288.6.36l.6.144v4.08c0 3.792-.024 4.104-.48 4.488-.264.24-.48.504-.48.6 0 .12.816.192 1.8.192 1.032 0 1.8-.096 1.8-.24s-.096-.24-.24-.24c-.12 0-.456-.216-.72-.48-.384-.384-.48-.792-.48-2.16v-1.68h1.416c1.392 0 2.184.36 2.184 1.008 0 .144.072.192.168.096.192-.168.336-2.784.168-2.784-.048 0-.312.216-.576.48-.408.408-.744.48-1.872.432l-1.368-.072-.072-1.296c-.12-2.304-.048-2.424 1.728-2.424 1.848 0 2.304.144 2.304.744 0 .24.096.456.216.456.264 0 .504-.6.504-1.344v-.576h-3.6c-1.968 0-3.6.096-3.6.216zm114.024 1.992c-.12.312-.504 1.2-.864 1.968-.6 1.368-.648 2.064-.12 2.064.312 0 1.92-3.432 1.92-4.104 0-.624-.672-.576-.936.072zm-84.312 1.32c-.984 1.008-1.104 1.272-.552 1.272.288 0 .36.408.36 2.16 0 1.848.072 2.232.48 2.64.552.552 2.112.672 2.592.192.456-.456.336-.552-.72-.552h-1.032l-.072-2.208-.072-2.208 1.032-.072c.696-.048 1.056-.192 1.104-.432.048-.288-.144-.336-1.008-.288-1.056.096-1.08.072-1.152-.672l-.072-.744-.888.912zm-21.36.6c-.792.264-.864.576-.192.792.432.144.48.36.48 2.28 0 1.176-.096 2.208-.24 2.28-.6.36-.12.6 1.2.6 1.512 0 1.8-.192.912-.6-.48-.216-.552-.432-.624-1.992-.096-2.184.144-2.544 1.44-2.328.864.144.912.12.912-.432 0-.888-.816-1.08-1.704-.432-.696.504-.696.504-.696.024 0-.528-.432-.6-1.488-.192zm6.768.024c-1.848.648-2.568 3.432-1.32 4.944 1.08 1.272 2.76 1.488 4.512.576 1.224-.624 1.728-2.736 1.008-4.152-.648-1.248-2.664-1.92-4.2-1.368zm2.448.864c.648.576.768.864.864 2.088.12 1.8-.384 2.592-1.704 2.592-2.208 0-3.384-3.552-1.656-4.896.816-.672 1.584-.6 2.496.216zm3.792-.816c-.792.312-.792.336-.288.504.504.144.528.288.528 2.4 0 1.8-.072 2.304-.36 2.4-.72.288-.048.576 1.344.576 1.368 0 1.992-.36.888-.528-.696-.096-.984-1.248-.744-3.024.168-1.104.312-1.416.816-1.704.888-.48 2.016-.024 2.352.984.408 1.152.336 3.528-.096 3.696-.672.264-.096.576 1.104.576 1.272 0 1.464-.192.696-.672-.408-.24-.48-.552-.48-1.992 0-2.136-.408-2.976-1.608-3.312-.744-.216-1.08-.168-1.8.192-.888.432-.912.432-.912 0 0-.528-.288-.552-1.44-.096zm113.448 2.16c-.84 1.704-.936 2.088-.648 2.28.192.12.432.144.552.072.36-.216 1.872-3.744 1.752-4.08-.264-.672-.672-.24-1.656 1.728zm-23.616 2.136c-.816 1.632-.936 2.064-.696 2.28.408.336.576.144 1.632-2.016.48-.936.792-1.824.744-1.992-.24-.672-.744-.168-1.68 1.728zm-115.944 1.392c-.288 1.08-.216 1.392.312 1.392.36 0 .96-1.776.72-2.16-.336-.528-.792-.192-1.032.768zm137.232 1.152c-.936 1.872-1.032 2.4-.408 2.4.36 0 2.376-3.792 2.184-4.104-.336-.576-.888-.048-1.776 1.704zm-93.744.336c-.072.168-.096.912-.048 1.608.048.96.168 1.296.432 1.296.288 0 .384-.36.432-1.632.048-1.344 0-1.608-.312-1.608a.555.555 0 0 0-.504.336zm70.032 1.728c-.984 1.704-1.152 2.664-.456 2.448.408-.144 2.4-3.72 2.208-4.032-.336-.528-.768-.144-1.752 1.584zm-113.904-1.152c-.072.12-.216 1.152-.288 2.304-.144 1.8-.12 2.064.24 2.208.216.096.456.12.504.072.048-.048.12-1.104.168-2.352.048-1.56-.024-2.28-.216-2.352-.144-.048-.336 0-.408.12zm135.6 2.976c-1.056 1.848-1.44 2.832-1.2 3.072.12.12.336.144.48.048.408-.264 2.28-3.792 2.088-3.96-.36-.384-.816-.096-1.368.84zm-92.424 1.92c-.576 2.472-.576 2.448-.072 2.544.432.096 1.032-1.464 1.296-3.384.144-1.008.12-1.128-.312-1.128-.384 0-.552.336-.912 1.968zm-35.04-1.488c-2.328.12-2.376.12-1.68.48l.72.36.072 4.032c.048 3.768.024 4.032-.432 4.416-.264.24-.48.504-.48.6 0 .288 5.256.216 6.312-.072 1.992-.552 3.504-2.664 3.528-4.944 0-2.088-.696-3.264-2.496-4.2-1.248-.648-2.688-.816-5.544-.672zm3.36.744c2.856.792 4.272 3.864 3 6.624-.624 1.392-1.656 1.992-3.408 1.992-.744 0-1.632-.096-1.968-.24l-.624-.24v-3.816c0-3.168.072-3.888.384-4.2.432-.456 1.272-.48 2.616-.12zm99.648 1.368c-1.152 1.68-1.392 2.448-.792 2.448.408 0 2.856-3.528 2.664-3.84-.336-.528-.816-.168-1.872 1.392zm-111.384-.216c-.144.192.192 2.52.48 3.456.24.84.6 1.176.936.888.216-.192.216-.504-.024-1.488-.192-.696-.336-1.488-.336-1.776 0-.288-.072-.696-.144-.912-.168-.408-.696-.528-.912-.168zm132.864 3.024c-.96 1.656-1.152 2.52-.552 2.52.288 0 2.232-3.264 2.28-3.816 0-.192-.144-.408-.336-.432-.24-.048-.744.576-1.392 1.728zm-113.04-.888c-.864.264-1.944 1.464-2.112 2.328-.312 1.68.408 3.024 1.92 3.6 2.616 1.008 5.16-1.224 4.44-3.84-.408-1.488-2.64-2.592-4.248-2.088zm1.896.528c.624.36 1.416 1.968 1.416 2.952 0 .912-.696 1.968-1.44 2.208-.672.216-1.992-.48-2.472-1.296-.624-1.08-.552-2.784.192-3.504.6-.624 1.512-.768 2.304-.36zm5.328-.216c-2.424 1.2-2.28 4.656.264 5.616 1.824.696 3.984-.264 4.44-1.992.48-1.728-.432-3.408-2.16-3.888-1.128-.336-1.392-.312-2.544.264zm2.544.36c1.2.84 1.608 3.168.744 4.248-.672.84-1.272.984-2.256.528-.984-.456-1.584-1.584-1.584-2.952 0-1.776 1.704-2.784 3.096-1.824zm3.864-.48-.816.36.576.288c.552.288.6.456.672 2.256.048 1.488-.024 2.016-.312 2.304-.192.216-.36.432-.36.504 0 .072.696.144 1.56.144.888 0 1.56-.096 1.56-.24s-.144-.24-.336-.24c-.768 0-1.104-.72-1.104-2.28 0-1.872.384-2.4 1.608-2.16.912.168 1.32-.336.792-.96-.408-.504-.96-.456-1.608.168l-.552.504v-.504c0-.624-.48-.672-1.68-.144zm8.184 2.184c-.912 1.728-1.08 2.472-.552 2.472.336 0 .624-.432 1.464-2.064.816-1.608.936-2.256.408-2.256-.192 0-.792.84-1.32 1.848zm66.816-.24c-1.512 1.896-1.608 2.136-1.224 2.448.264.24.6-.048 1.68-1.44.744-.936 1.344-1.848 1.344-2.04 0-.72-.768-.288-1.8 1.032zm-107.088.936c-.216.6 1.752 3.936 2.328 3.936.528 0 .504-.768-.048-1.512-.336-.408-.84-1.224-1.128-1.8-.552-1.056-.912-1.272-1.152-.624zm128.76 2.424c-1.104 1.8-1.224 2.232-.552 2.232.408 0 2.616-3.504 2.4-3.84-.336-.528-.768-.168-1.848 1.608zm-24.624.624c-1.8 2.448-1.944 2.808-1.104 2.808.312 0 2.736-3.216 2.736-3.6 0-.12-.168-.24-.36-.336-.24-.072-.672.288-1.272 1.128zm-66.864.672c-.84 1.056-1.296 1.8-1.176 1.92.12.12.384.168.576.096.456-.216 2.736-2.928 2.736-3.288 0-.816-.84-.288-2.136 1.272zm-34.344.456c-.24.384.264 1.056 1.704 2.376 1.248 1.152 1.776 1.344 1.776.672 0-.312-2.88-3.288-3.168-3.288-.096 0-.24.096-.312.24zm124.152 1.056c-.192.168-.816 1.032-1.368 1.92-.768 1.176-.984 1.68-.792 1.872.192.192.36.192.624-.024.456-.384 2.304-3.24 2.304-3.576 0-.432-.432-.552-.768-.192zm-93.408 1.992c-1.464 1.248-1.848 1.944-1.224 2.16.408.12 3.576-2.928 3.384-3.24-.288-.456-.504-.36-2.16 1.08zm66.936.552c-1.248 1.536-1.56 2.4-.864 2.4.408 0 2.952-3.384 2.808-3.744-.216-.6-.528-.384-1.944 1.344zm-93.864.048c-.12.168.264.696 1.008 1.344 1.632 1.464 2.184 1.8 2.64 1.632.504-.192.24-.528-1.656-2.112-1.464-1.224-1.704-1.32-1.992-.864zm23.352 2.568c-.552.528-1.2 1.272-1.44 1.68-.384.672-.408.768-.048.888.24.096.816-.336 1.8-1.368.768-.84 1.416-1.68 1.44-1.848 0-.552-.744-.288-1.752.648zm92.88.624c-1.104 1.536-1.344 2.136-.936 2.376.312.192.6-.12 1.824-1.824 1.08-1.512 1.224-2.112.552-2.112-.168 0-.816.696-1.44 1.56zm-25.824.72c-1.392 1.44-1.68 2.016-1.08 2.208.336.12 3.288-2.976 3.168-3.336-.216-.624-.648-.384-2.088 1.128zm-86.424-.312c0 .192.216.744.48 1.272s.48 1.272.48 1.68c0 .864.336 1.44.696 1.224.456-.288.288-2.136-.264-3.264-.528-1.032-1.392-1.608-1.392-.912zm17.04 4.344c0 2.352.096 2.736.648 2.304.216-.192.312-.912.312-2.4 0-1.968-.048-2.136-.48-2.136-.456 0-.48.168-.48 2.232zm91.968-.288c-1.2 1.656-1.344 2.136-.648 2.136.336 0 2.76-3.168 2.76-3.6 0-.12-.192-.24-.432-.24-.288 0-.936.672-1.68 1.704zm-26.184.072c-1.056 1.08-1.488 1.656-1.392 1.944.216.528.744.216 2.304-1.416 1.176-1.272 1.416-1.8.84-1.992-.12-.048-.912.624-1.752 1.464zm-81.696.792c-.216.192-.216 3.744-.024 4.248.072.216.288.384.456.384.456 0 .6-.576.6-2.4 0-.912-.072-1.8-.144-2.016-.144-.384-.624-.504-.888-.216zm77.904 2.904c-1.488 1.368-1.752 1.8-1.272 2.088.36.216 3.36-2.496 3.36-3.024 0-.744-.528-.504-2.088.936zm27.96-.984c-.984 1.104-2.352 3.096-2.28 3.312.192.576.84.144 2.016-1.416.72-.912 1.248-1.776 1.2-1.896-.144-.432-.552-.432-.936 0zM126 258.816c0 2.28.12 2.688.672 2.328.216-.12.288-.816.24-2.328-.072-1.8-.144-2.136-.48-2.208-.384-.072-.432.144-.432 2.208zm63.36-1.128c-.792.36-.816.384-.288.576.528.192.528.264.528 4.56 0 3.864-.048 4.392-.408 4.68-.384.288-.216.312 1.128.312 1.296 0 1.464-.048 1.032-.264-.648-.312-.888-1.392-.744-3.096.168-1.656 1.272-2.376 2.592-1.656.888.48 1.296 3.504.6 4.488-.336.48-.312.504.912.624 1.512.144 1.896-.024 1.032-.48-.576-.312-.624-.456-.624-1.896 0-3.264-1.536-4.56-3.768-3.192l-.84.528.192-2.808c.168-3.096.192-3.048-1.344-2.376zm-19.68.432c0 .072.264.24.576.36.816.312.96 1.272.744 5.184-.144 2.784-.24 3.312-.624 3.648-.24.216-.456.48-.456.576 0 .24 3.696.264 3.936.024.096-.096-.192-.336-.624-.552-.984-.456-1.248-1.512-1.056-4.2.072-1.056.144-2.496.144-3.192 0-1.392.264-1.656 1.344-1.392 1.056.264 2.016 1.416 2.016 2.4 0 1.248-1.32 2.256-2.568 1.944-.312-.072-.552-.024-.552.096 0 .648 2.448.456 3.384-.288.936-.72 1.272-2.448.696-3.528-.456-.864-1.656-1.2-4.44-1.2-1.392 0-2.52.048-2.52.12zm-59.592 1.248c-.216.192-.216 3.744-.024 4.248.072.216.288.384.456.384.456 0 .6-.576.6-2.4 0-.912-.072-1.8-.144-2.016-.144-.384-.624-.504-.888-.216zm101.472 2.112c-.888 1.032-1.32 1.704-1.224 1.944.072.216.288.336.456.288.456-.168 2.808-3.024 2.808-3.432 0-.72-.696-.312-2.04 1.2zm-26.88.12c-.888.912-.912.984-.456 1.104.48.12.528.288.48 2.304-.024 1.992.024 2.184.552 2.616.72.6 1.752.576 2.448-.024l.576-.48-.912.144c-1.392.24-1.608-.096-1.608-2.448 0-2.112 0-2.112 1.152-2.016.552.048 1.248-.36 1.248-.744 0-.12-.504-.192-1.128-.144-1.128.048-1.152.024-1.08-.624.096-.888-.168-.816-1.272.312zM126 264.096c0 1.248.096 2.328.216 2.4.504.312.768-.6.696-2.52-.072-1.68-.144-2.016-.48-2.088-.384-.072-.432.144-.432 2.208zm52.488-1.512c-.72.72-.72.768-.288 1.08.672.48.792.432.888-.456.048-.624.192-.792.672-.84.864-.096 1.416.432 1.488 1.368.072.816.048.84-1.368 1.248-1.512.456-2.04.936-2.04 1.776 0 1.152 1.584 1.68 2.856.984.48-.264.672-.264 1.224.048.384.24.816.312 1.104.192.432-.192.432-.216-.072-.552-.504-.336-.552-.552-.552-2.496 0-2.616-.312-3.096-2.064-3.096-.912 0-1.224.12-1.848.744zm2.832 3.264c-.024.36-.072.816-.072.984-.072.48-1.2.816-1.752.528-.528-.312-.6-1.248-.12-1.656.384-.336 1.632-.72 1.848-.6.072.048.12.384.096.744zm26.784-.384c-1.392 1.608-1.608 2.136-.864 2.136.504 0 3.072-3.048 2.904-3.48-.216-.6-.504-.432-2.04 1.344zm-98.016-.816c-.216.192-.216 3.744-.024 4.248.072.216.288.384.456.384.456 0 .6-.576.6-2.4 0-.912-.072-1.8-.144-2.016-.144-.384-.624-.504-.888-.216zM126 269.376c0 1.248.096 2.328.216 2.4.504.312.768-.6.696-2.52-.072-1.68-.144-2.016-.48-2.088-.384-.072-.432.144-.432 2.208zm78.648-.144c-1.32 1.32-1.728 2.208-1.056 2.208.456 0 3.048-2.76 3.048-3.216 0-.696-.6-.384-1.992 1.008zm-27.96.6c-.576.624-.672 1.008-.264 1.248.336.216 1.416-.816 1.416-1.368 0-.6-.528-.552-1.152.12zm-66.6.096c-.24.24-.192 3.984.048 4.368.192.288.288.288.6.048.288-.24.384-.768.384-2.064 0-.984-.072-1.92-.144-2.136-.144-.384-.624-.504-.888-.216zm64.056 2.88c-1.392 1.68-1.632 2.232-.912 2.208.552 0 3.024-3 2.832-3.456-.216-.6-.504-.432-1.92 1.248zm26.76.456c-1.224 1.296-1.44 1.632-1.2 1.92.24.312.528.12 1.824-1.152 1.44-1.416 1.896-2.352 1.176-2.352-.168 0-.984.72-1.8 1.584zM126 274.656c0 1.248.096 2.328.216 2.4.504.312.768-.6.696-2.52-.072-1.68-.144-2.016-.48-2.088-.384-.072-.432.144-.432 2.208zm-15.912.552c-.216.192-.216 3.744-.024 4.248.072.216.288.384.456.384.456 0 .6-.576.6-2.4 0-.912-.072-1.8-.144-2.016-.144-.384-.624-.504-.888-.216zm60.456 1.56c-1.296 1.44-1.536 1.848-1.176 2.208.24.24 3.192-2.76 3.192-3.264 0-.792-.672-.432-2.016 1.056zm41.856-1.104c-2.04.432-5.064 1.944-6.696 3.336-2.496 2.136-4.032 4.44-5.088 7.68-.792 2.424-.816 6.456-.024 9 .84 2.688 2.064 4.704 4.104 6.744 3.216 3.216 6.624 4.632 11.184 4.656 4.608 0 7.944-1.416 11.328-4.8 1.536-1.56 2.16-2.4 2.928-4.008 2.76-5.664 2.112-11.808-1.728-16.896-3.552-4.68-10.056-7.008-16.008-5.712zm6.36 1.896c6.336 1.32 11.16 7.224 11.16 13.68 0 4.344-2.376 8.832-6.048 11.4-6.048 4.248-14.616 2.928-19.032-2.928-4.296-5.688-3.792-13.32 1.2-18.336 3.408-3.408 8.016-4.8 12.72-3.816zm-21.456-.504c-1.392 1.392-1.68 2.064-.912 2.064.456 0 3.048-2.712 3.048-3.168 0-.768-.576-.456-2.136 1.104zM126 279.936c0 2.28.12 2.688.672 2.328.216-.12.288-.816.24-2.328-.072-1.8-.144-2.136-.48-2.208-.384-.072-.432.144-.432 2.208zm40.824.576c-1.152 1.032-1.512 1.512-1.392 1.824.216.528.504.36 2.208-1.272 1.272-1.224 1.656-1.944 1.032-1.944-.168 0-1.008.624-1.848 1.392zm26.88.144c-1.392 1.392-1.848 2.304-1.152 2.304.36 0 3.288-2.904 3.288-3.288 0-.744-.792-.384-2.136.984zm-83.616-.168c-.216.192-.216 3.744-.024 4.248.072.216.288.384.456.384.456 0 .6-.576.6-2.4 0-.912-.072-1.8-.144-2.016-.144-.384-.624-.504-.888-.216zm52.56 3.552c-1.488 1.248-1.824 1.8-1.032 1.8.48 0 3.504-2.4 3.504-2.784 0-.672-.912-.312-2.472.984zM126 285.216c0 1.248.096 2.328.216 2.4.504.312.768-.6.696-2.52-.072-1.68-.144-2.016-.48-2.088-.384-.072-.432.144-.432 2.208zm63.936-.768c-1.632 1.56-1.776 1.8-1.152 2.04.456.168 3.216-2.472 3.216-3.096 0-.72-.456-.504-2.064 1.056zm-79.848 1.32c-.216.192-.216 3.744-.024 4.248.072.216.288.384.456.384.456 0 .6-.576.6-2.4 0-.912-.072-1.8-.144-2.016-.144-.384-.624-.504-.888-.216zm48.552 1.368c-1.68 1.416-1.92 1.752-1.344 1.968.432.168 3.816-2.448 3.672-2.856-.192-.6-.816-.336-2.328.888zm27.408 1.056c-1.512 1.392-1.848 1.968-1.056 1.968.6-.024 3.528-2.736 3.312-3.072-.312-.504-.72-.312-2.256 1.104zM126 290.496c0 1.248.096 2.328.216 2.4.504.312.768-.6.696-2.52-.072-1.68-.144-2.016-.48-2.088-.384-.072-.432.144-.432 2.208zm28.392-.144c-1.392 1.056-1.944 1.968-1.176 1.968.48 0 3.504-2.376 3.504-2.76 0-.624-.816-.36-2.328.792zm27.792 1.248c-.936.792-1.704 1.56-1.704 1.656 0 .648.84.312 2.232-.816 1.848-1.536 1.944-1.656 1.512-2.016-.264-.24-.672 0-2.04 1.176zm-72.096-.552c-.24.24-.192 3.984.048 4.368.192.288.288.288.6.048.288-.24.384-.768.384-2.064 0-.984-.072-1.92-.144-2.136-.144-.384-.624-.504-.888-.216zm40.104 2.4c-1.032.696-1.632 1.272-1.632 1.536s.12.456.24.456c.504 0 3.864-2.448 3.768-2.712-.168-.552-.792-.36-2.376.72zM126 295.776c0 1.248.096 2.328.216 2.4.504.312.768-.6.696-2.52-.072-1.68-.144-2.016-.48-2.088-.384-.072-.432.144-.432 2.208zm52.08-.816c-.912.816-1.68 1.56-1.68 1.656 0 .672.864.312 2.376-.984 1.392-1.152 1.68-1.488 1.44-1.776-.144-.192-.312-.336-.36-.336-.048 0-.84.648-1.776 1.44zm-32.208 1.44c-1.872 1.176-2.184 1.584-1.536 1.824.432.168 3.864-2.064 3.864-2.52 0-.648-.48-.504-2.328.696zm-35.784-.072c-.216.192-.216 3.744-.024 4.248.072.216.288.384.456.384.456 0 .6-.576.6-2.4 0-.912-.072-1.8-.144-2.016-.144-.384-.624-.504-.888-.216zm-73.272.528c-.24.24-.048.48.456.552.528.072.528.12.6 4.2.048 3.984.048 4.128-.48 4.608-.288.288-.48.504-.408.504 2.28.144 6 .096 6.408-.096.576-.24 1.392-1.512 1.152-1.776-.072-.072-.432.12-.744.432-.552.528-.84.576-2.592.6H39.24l-.072-3.912-.048-3.888.6-.576.624-.576-1.704-.096c-.96-.024-1.776-.024-1.824.024zm137.28 1.368c-.912.744-1.68 1.512-1.728 1.68-.168.696.936.288 2.328-.864 1.704-1.416 1.8-1.536 1.368-1.896-.24-.216-.672.024-1.968 1.08zm-32.664.96c-1.608 1.008-2.064 1.56-1.56 1.872.336.216 3.912-2.088 3.84-2.472-.12-.624-.528-.504-2.28.6zM126 301.056c0 2.28.12 2.688.672 2.328.216-.12.288-.816.24-2.328-.072-1.8-.144-2.136-.48-2.208-.384-.072-.432.144-.432 2.208zm43.944.528c-1.656 1.272-2.136 2.016-1.32 2.016.216 0 1.152-.6 2.064-1.344 1.344-1.08 1.608-1.392 1.368-1.68-.144-.192-.312-.336-.336-.336-.048 0-.84.6-1.776 1.344zM63 300.96c-.888.384-.912.432-.408.576.48.168.528.312.528 2.016 0 1.128-.144 2.112-.336 2.496l-.36.672h1.488c1.464-.024 1.464-.024.84-.384-.648-.336-.672-.432-.672-2.256 0-1.68.048-1.944.528-2.256.768-.552 1.704-.48 2.304.168.456.48.528.84.528 2.352 0 1.08-.12 1.92-.288 2.088-.216.216.024.288 1.152.264 1.2 0 1.32-.048.888-.264-.48-.24-.552-.456-.552-1.632 0-2.568-.504-3.648-1.848-3.984-.576-.144-.912-.072-2.28.504-.288.096-.408.024-.48-.312-.072-.432-.096-.432-1.032-.048zm-16.608.24c-.84.504-1.056 1.296-.408 1.536.48.192.864-.048.744-.408-.192-.504.312-1.128.888-1.128.744 0 1.344.72 1.344 1.608 0 .672-.096.72-1.248 1.008-.696.144-1.44.456-1.68.672-.6.528-.576 1.896.024 2.232.696.36 1.752.288 2.376-.144.504-.36.6-.36.984 0 .456.432 1.368.504 1.584.168.072-.12-.096-.288-.36-.384-.552-.168-.72-1.032-.648-3.192.048-1.344-.024-1.584-.528-1.992-.72-.6-2.088-.576-3.072.024zm2.568 3.6c0 .744-.12 1.032-.6 1.344-1.08.696-2.16-.216-1.56-1.32.216-.408 1.152-.864 1.992-.96.096-.024.168.408.168.936zm2.568-3.912c-.096.072 0 .264.192.408.192.144.816 1.44 1.392 2.856.576 1.44 1.152 2.616 1.272 2.616.12.024.6-.696 1.056-1.56.456-.888.912-1.608.984-1.608.072 0 .432.768.792 1.68.384.936.792 1.656.912 1.632.144-.048.792-1.272 1.44-2.712.648-1.464 1.344-2.736 1.536-2.832.576-.312.168-.6-.792-.528-1.368.096-1.416.12-.96.384.216.12.408.456.408.696 0 .504-.888 2.88-1.176 3.192-.192.192-1.464-2.832-1.464-3.504 0-.216.12-.408.264-.408.12 0 .192-.096.12-.192-.168-.288-2.232-.336-2.424-.048-.072.12-.024.24.12.24.12 0 .408.36.624.792.36.768.36.864-.288 2.112l-.648 1.296-.6-1.32c-.696-1.608-.936-2.88-.552-2.88.168 0 .216-.12.144-.24-.168-.264-2.112-.336-2.352-.072zm85.344 1.176c-1.656 1.032-2.232 1.776-1.368 1.776.696 0 3.696-1.992 3.696-2.448 0-.648-.432-.528-2.328.672zm-26.784-.456c-.216.192-.216 3.744-.024 4.248.072.216.288.384.456.384.456 0 .6-.576.6-2.4 0-.912-.072-1.8-.144-2.016-.144-.384-.624-.504-.888-.216zm55.656 3.336c-1.512 1.248-1.896 1.944-1.056 1.872.6-.048 3.312-2.352 3.312-2.808 0-.696-.552-.456-2.256.936zm-33.36-.072c-1.752 1.08-2.112 1.512-1.488 1.752.456.168 3.984-1.992 3.984-2.448 0-.576-.792-.36-2.496.696zm-6.336 1.704c.024 1.392.192 2.64.312 2.76.312.312 3.96-1.776 3.96-2.256 0-.672-.528-.6-1.872.24l-1.368.84-.12-1.968c-.096-1.68-.192-1.992-.552-2.064-.432-.096-.456.096-.36 2.448zM192 306.48c-1.128.264-2.16 1.464-2.16 2.496 0 1.272.912 2.136 3.024 2.928 2.496.912 3.12 1.968 1.944 3.36-1.08 1.248-3.504.768-4.44-.888-.72-1.248-1.056-.6-.504.96.336.96.984 1.224 2.976 1.224 1.272 0 1.632-.096 2.232-.6 1.464-1.224 1.608-3.168.288-4.272-.384-.336-1.464-.888-2.4-1.248-1.68-.648-2.16-1.08-2.16-2.016 0-1.944 3.432-1.92 4.488.048l.432.768.072-.696c.168-1.344-.096-1.728-1.416-2.016-.672-.168-1.296-.288-1.368-.264-.096.024-.552.12-1.008.216zm-81.912.408c-.216.192-.216 3.744-.024 4.248.072.216.288.384.456.384.456 0 .6-.576.6-2.4 0-.912-.072-1.8-.144-2.016-.144-.384-.624-.504-.888-.216zm51.576 1.296c-1.488 1.176-1.872 1.704-1.368 1.992.312.192 3.48-2.304 3.576-2.808.144-.72-.552-.456-2.208.816zm-4.104 3.216c-1.656 1.272-2.04 1.848-1.32 1.968.456.096 3.48-2.352 3.48-2.808 0-.648-.504-.456-2.16.84zm48.912-.792c-.816.264-1.08.672-.432.672.192 0 .408.264.504.6.192.816-.12 4.2-.408 4.2-.12 0-.216.096-.216.24s.648.24 1.512.24l1.488-.024-.648-.48c-.624-.48-.672-.6-.672-2.376 0-1.632.072-1.944.456-2.16.696-.36 1.608-.288 2.04.144.432.432.552 4.032.144 4.296-.576.36-.144.6 1.08.6 1.272 0 1.776-.312.888-.528-.384-.12-.48-.456-.6-2.136-.168-2.28.048-2.688 1.272-2.688 1.128 0 1.392.456 1.584 2.64.144 1.704.12 1.992-.24 2.136-.792.312-.36.576.936.576 1.248 0 1.728-.264.984-.552-.216-.096-.384-.768-.504-1.992-.216-2.448-.432-2.928-1.44-3.36-.72-.288-.96-.288-1.656 0-.432.192-.888.456-.96.6-.096.144-.336.072-.624-.216-.576-.576-2.064-.648-2.832-.096-.504.336-.528.336-.528-.12 0-.552-.024-.552-1.128-.216zm11.448.072c-.792.312-.792.336-.288.504.504.144.528.288.528 2.4 0 1.8-.072 2.304-.36 2.4-.792.312-.288.576 1.08.576 1.392 0 1.92-.288.96-.552-.408-.096-.48-.336-.504-1.656-.048-2.784.12-3.144 1.44-3.024.624.048.936.24 1.152.672.432.864.408 3.48-.048 3.936-.576.552-.456.624 1.08.624 1.512 0 1.8-.192.912-.6-.504-.216-.552-.384-.552-2.28 0-1.992 0-2.04.696-2.352.6-.312.744-.288 1.32.12.576.432.624.648.696 2.352.048 1.08-.048 1.992-.192 2.136-.456.456-.24.624.936.624 1.224 0 1.824-.336 1.008-.552-.384-.096-.456-.384-.528-2.184-.096-1.848-.168-2.112-.72-2.688-.84-.816-2.136-.888-2.928-.144l-.576.528-.432-.48c-.552-.6-2.16-.648-2.808-.072-.408.36-.432.36-.432-.12 0-.6-.264-.624-1.44-.168zm12.72-.072c-2.064 1.08-2.28 4.68-.336 5.712.864.48 2.472.408 3.288-.12.72-.456.888-.984.24-.72-.24.096-.816.216-1.296.288-1.104.168-2.088-.624-2.352-1.92l-.216-.888h2.136c1.968 0 2.136-.048 2.136-.48 0-1.344-2.304-2.544-3.6-1.872zm1.896.816c.288.36.504.744.504.84 0 .12-.648.216-1.44.216-1.56 0-1.728-.192-1.056-1.152.504-.72 1.392-.672 1.992.096zm3.384-.72-.84.36.672.384c.696.36.696.36.6 2.424-.048 1.368-.168 2.088-.384 2.16-.768.24-.12.528 1.272.528.888 0 1.56-.096 1.56-.24s-.216-.24-.48-.24c-.672 0-.96-.72-.96-2.376 0-1.776.408-2.304 1.608-2.064.912.168 1.32-.336.792-.96-.408-.504-1.056-.456-1.56.12-.24.264-.528.48-.648.48-.096 0-.192-.216-.192-.48 0-.576-.312-.6-1.44-.096zm-38.232 0c-.096.096.048.312.312.504.408.288.48.624.48 2.208 0 1.512.096 1.992.48 2.496.696.864 1.728 1.032 2.88.456.744-.36.96-.384.96-.144 0 .36.72.408 1.68.096.6-.192.6-.192.072-.36-.672-.216-.864-1.104-.744-3.504l.072-1.776-.672-.072c-1.152-.144-1.464.096-.888.672.648.648.696 3.576.072 4.128-.672.576-1.224.672-1.872.384-.768-.336-.936-.888-.936-3.192l-.024-1.92-.84-.072c-.48-.048-.936 0-1.032.096zm-87.6 1.464c-.24.24-.192 3.984.048 4.368.192.288.288.288.6.048.288-.24.384-.768.384-2.064 0-.984-.072-1.92-.144-2.136-.144-.384-.624-.504-.888-.216zm43.272 2.496c-1.56 1.2-1.92 1.704-1.464 2.016.36.216 3.6-2.304 3.624-2.832 0-.672-.504-.48-2.16.816zm-4.2 3.216c-1.8 1.392-2.04 1.728-1.464 1.944.504.192 3.792-2.28 3.696-2.76-.12-.624-.528-.48-2.232.816zm-39.072-.432c-.216.192-.216 3.744-.024 4.248.072.216.288.384.456.384.456 0 .6-.576.6-2.4 0-.912-.072-1.8-.144-2.016-.144-.384-.624-.504-.888-.216zm34.776 3.672c-1.488 1.152-1.992 1.92-1.248 1.92.336 0 3.264-2.04 3.552-2.496.216-.312.024-.624-.384-.624-.168 0-1.032.552-1.92 1.2zm50.328.864c.096.096.408.288.696.432.528.264.552.408.624 3.984.072 4.224 0 4.704-.72 4.944-.888.264.024.528 1.728.456 1.968-.072 1.968-.072 1.032-.48l-.792-.336v-3.864h5.568l-.096 1.944c-.048 1.536-.168 1.992-.504 2.16-.768.456-.408.624 1.272.6 1.8 0 2.04-.144 1.08-.576l-.6-.288v-3.936c0-4.128.072-4.704.624-4.704.192 0 .336-.12.336-.24 0-.144-.672-.24-1.56-.24-.864 0-1.56.048-1.56.12s.216.336.48.6c.384.384.48.792.48 2.16v1.68h-5.52v-1.656c0-1.872.144-2.424.624-2.424.192 0 .336-.12.336-.24 0-.144-.768-.24-1.848-.24-1.008 0-1.752.072-1.68.144zm-85.104.744c-.216.192-.216 3.744-.024 4.248.072.216.288.384.456.384.456 0 .6-.576.6-2.4 0-.912-.072-1.8-.144-2.016-.144-.384-.624-.504-.888-.216zm30.552 1.536c-1.56 1.224-1.872 1.704-1.176 1.848.48.096 3.624-2.304 3.504-2.664-.192-.576-.816-.36-2.328.816zm67.608 1.92c-3.048 1.608-1.416 6.384 1.992 5.832 1.968-.312 2.88-1.392 2.88-3.36 0-.96-.12-1.224-.816-1.896-1.248-1.176-2.592-1.344-4.056-.576zm2.352.216c.408.144.792.624 1.128 1.344 1.056 2.4-.288 4.44-2.328 3.6-1.56-.672-2.16-3.408-.96-4.584.624-.648 1.176-.744 2.16-.36zm12.72-.12c-.696.672-.768 1.584-.216 2.064.216.192.912.6 1.512.936.84.456 1.104.744 1.104 1.176 0 1.344-1.728 1.272-2.376-.096-.216-.456-.456-.84-.504-.84-.072 0-.12.48-.12 1.056 0 1.008.048 1.08.792 1.248 1.944.432 3.288-.312 3.288-1.776 0-.936-.312-1.296-1.728-1.968-1.272-.624-1.728-1.32-1.104-1.704.552-.36 1.152-.24 1.728.384.696.744.864.744.864.048 0-.816-.456-1.128-1.608-1.128-.792 0-1.2.144-1.632.6zm6.36-.288c-1.464.744-2.136 3.12-1.32 4.704.696 1.368 3.072 1.776 4.44.744.768-.576.552-.768-.528-.432-1.512.456-2.808-.384-3.12-2.04l-.12-.648h1.992c1.152 0 2.064-.12 2.136-.264.288-.456-.408-1.608-1.2-1.992-.96-.456-1.488-.48-2.28-.072zm1.728.456c.216.168.456.552.552.84.144.528.096.552-1.296.552-1.584 0-1.752-.192-1.08-1.152.408-.576 1.248-.696 1.824-.24zm-17.184-.312c-.072.12.072.264.336.336.432.12.48.336.48 1.824 0 2.28.408 3.24 1.536 3.624.768.24 1.008.216 1.8-.168.768-.384.96-.408 1.128-.12.168.24.456.288 1.128.168.936-.192 1.224-.6.408-.6-.456 0-.48-.168-.48-2.64v-2.64h-.936c-1.056 0-1.512.36-.744.6.432.144.48.36.48 1.944 0 2.328-.216 2.736-1.44 2.736-1.368 0-1.68-.576-1.68-3.168v-2.112h-.936c-.528 0-1.008.096-1.08.216zm-77.784 1.296c-1.704 1.272-1.968 1.656-1.296 1.8.576.096 3.576-2.136 3.576-2.64 0-.696-.504-.504-2.28.84zm-26.352.576c-.216.192-.216 3.744-.024 4.248.072.216.288.384.456.384.456 0 .6-.576.6-2.4 0-.912-.072-1.8-.144-2.016-.144-.384-.624-.504-.888-.216zm22.104 2.496c-1.56 1.176-2.04 1.896-1.272 1.896.528 0 3.768-2.4 3.648-2.736-.192-.552-.816-.336-2.376.84zm-4.32 3.12c-1.584 1.2-2.064 1.896-1.2 1.896.576-.024 3.696-2.376 3.576-2.712-.192-.576-.792-.36-2.376.816zm-17.784-.336c-.24.24-.192 3.984.048 4.368.192.288.288.288.6.048.288-.24.384-.768.384-2.064 0-.984-.072-1.92-.144-2.136-.144-.384-.624-.504-.888-.216zm15.576 5.016c-.336.336-.384 2.088-.384 15.672 0 11.568.072 15.36.288 15.576.216.216 13.368.288 57.696.288 51.888 0 57.456-.048 57.792-.384.456-.432.456-.48.144-1.08-.264-.456-1.008-.456-44.16-.456h-43.92v-14.616c0-12.984-.048-14.664-.384-15-.336-.336-1.896-.384-13.536-.384s-13.2.048-13.536.384zm25.488 15.624-.072 13.872-11.928.072-11.952.048v-27.84h24l-.048 13.848zm-41.064-15.36c-.216.192-.216 3.744-.024 4.248s.72.504.912 0c.072-.216.144-1.104.144-2.016 0-.912-.072-1.8-.144-2.016-.144-.384-.624-.504-.888-.216zm0 5.28c-.216.192-.216 3.744-.024 4.248s.72.504.912 0c.072-.216.144-1.104.144-2.016 0-.912-.072-1.8-.144-2.016-.144-.384-.624-.504-.888-.216zm0 5.28c-.216.192-.216 3.744-.024 4.248s.72.504.912 0c.072-.216.144-1.104.144-2.016 0-.912-.072-1.8-.144-2.016-.144-.384-.624-.504-.888-.216zm67.992 4.08c-.792.36-.816.384-.288.576.48.192.528.36.528 1.968v1.776l-1.272-.12c-2.088-.168-3.192.672-3.624 2.736-.24 1.056.456 2.664 1.32 3.096.84.456 1.848.456 2.616 0 .768-.432.96-.432.96 0 0 .384.696.432 1.68.12.576-.192.576-.192.096-.36-.696-.216-.792-1.176-.624-6.216.12-4.392.168-4.272-1.392-3.576zm-.096 5.136c.24.192.336.816.336 2.04 0 1.536-.072 1.8-.528 2.112-.84.6-1.608.456-2.496-.432-.696-.696-.816-.984-.816-1.896 0-1.464.192-1.848 1.032-2.208.768-.312 1.824-.144 2.472.384zm-20.928-4.8c-.072.12.144.312.48.456l.624.24v4.056c0 3.84-.024 4.104-.504 4.56-.504.456-.48.456 2.472.552 3.264.096 3.912-.048 4.416-1.08.504-.936.288-1.056-.624-.36-.648.456-1.056.552-2.592.552h-1.848v-4.032c0-3.96 0-4.056.576-4.512.312-.24.528-.456.48-.48-.84-.12-3.384-.096-3.48.048zm-46.968.864c-.24.24-.192 3.984.048 4.368.192.288.288.288.6.048.288-.24.384-.768.384-2.064 0-.984-.072-1.92-.144-2.136-.144-.384-.624-.504-.888-.216zm76.32 3.024c-.288.288-.6.384-.84.288-.216-.096-.912-.24-1.536-.288-1.032-.12-1.2-.072-1.896.624-.648.672-.744.888-.624 1.632.096.48.312 1.032.504 1.224.312.312.312.432-.024.912-.216.36-.288.816-.192 1.248.096.48.024.792-.24 1.008-.192.168-.36.552-.36.864 0 1.728 4.584 1.704 5.52 0 .672-1.272-.264-2.064-2.4-2.064-.648 0-1.32-.072-1.536-.144-.384-.144-.552-1.032-.192-1.08.096 0 .672-.048 1.296-.072 1.392-.048 2.352-.816 2.352-1.896 0-.408.168-.912.384-1.152.192-.216.336-.672.288-.984-.072-.552-.096-.552-.504-.12zm-1.92.528c1.2.84.816 3.24-.528 3.24-1.152 0-1.8-2.184-.912-3.168.48-.528.768-.552 1.44-.072zm1.392 6.384c.384.384-.192 1.032-1.272 1.368-.816.264-1.104.264-1.632 0-.936-.456-1.224-1.008-.816-1.512.288-.36.6-.384 1.92-.264.864.096 1.656.264 1.8.408zm-18.48-6.648c-1.92.864-2.304 3.696-.72 5.184.432.408.96.6 1.92.672 1.128.096 1.464.024 2.28-.528 1.752-1.152 1.872-3.792.192-4.968-.888-.648-2.688-.84-3.672-.36zm2.472.528c1.272.888 1.656 3.12.744 4.272-.936 1.176-2.88.624-3.576-1.056-.384-.912-.192-2.52.384-3.144.504-.552 1.704-.6 2.448-.072zm19.128-.072c-.96.96-1.32 2.616-.816 3.792.624 1.536 2.904 2.136 4.488 1.176.816-.504 1.08-1.128.36-.84-.984.384-1.656.504-2.232.36-.696-.168-1.68-1.512-1.68-2.304 0-.552.048-.576 2.16-.576 1.2 0 2.16-.048 2.16-.12 0-.384-.792-1.584-1.248-1.896-.288-.216-.96-.384-1.464-.384-.744 0-1.104.168-1.728.792zm2.568.096c.888.792.336 1.272-1.536 1.272-1.008 0-1.128-.288-.528-1.152.432-.624 1.44-.696 2.064-.12zm-81.48 1.44c-.216.192-.216 3.744-.024 4.248s.72.504.912 0c.072-.216.144-1.104.144-2.016 0-.912-.072-1.8-.144-2.016-.144-.384-.624-.504-.888-.216zm0 5.28c-.096.072-.168.792-.168 1.56v1.392H55.368c-42.12 0-54.624.072-54.84.288-.384.384-.36.792.096 1.248.336.336 5.664.384 55.056.384 49.392 0 54.72-.048 55.056-.384.288-.264.384-.84.384-2.136 0-.96-.072-1.92-.144-2.136-.144-.384-.624-.504-.888-.216z"/>
</svg>
